<svg width="104" height="220" viewBox="0 0 104 220" fill="none" xmlns="http://www.w3.org/2000/svg">
<path d="M41.7793 130.657H40.7549V219.924H41.7793V130.657Z" fill="#323232"/>
<path d="M73.0427 95.6228L43.5484 219.924H42.4974L72.0449 95.459L73.0427 95.6228Z" fill="#323232"/>
<path d="M40.8877 219.923H39.8766L30.9365 64.1489L31.9609 64.1161L40.7546 217.51L40.8877 219.923Z" fill="#323232"/>
<path d="M61.1094 34.4661C58.5775 40.7563 54.2644 46.4639 48.5241 51.1204C40.7814 57.6729 32.7992 61.2112 32.879 61.9101C33.1185 63.8977 35.4732 66.9119 35.287 67.5671C35.1007 68.2224 33.1318 68.8886 31.4688 68.8886C29.8059 68.8886 27.8369 68.2333 27.6507 67.5671C27.4644 66.901 29.8192 63.8977 30.0586 61.9101C30.2183 60.5123 -2.12299 47.582 0.125331 22.0164C1.24284 8.90047 11.3536 3.61479 19.868 1.43063C22.2464 0.837434 24.6872 0.427949 27.1584 0.207498C28.5713 0.0698161 29.9928 0.000528383 31.4156 0C35.9655 0 60.9099 0.906434 62.7591 21.9836C63.1672 26.1926 62.6076 30.4269 61.1094 34.4661Z" fill="#FCB945"/>
<path d="M32.8657 61.9102C33.1052 63.8978 35.4599 66.9119 35.2737 67.5672C35.0874 68.2224 33.1185 68.8886 31.4555 68.8886C29.7925 68.8886 27.8236 68.2333 27.6373 67.5672C27.4511 66.901 29.8059 63.8978 30.0453 61.9102C30.205 60.5123 -2.1363 47.5821 0.112025 22.0164C1.24284 8.90051 11.3536 3.61483 19.868 1.43066C12.2716 6.76003 2.9191 17.244 9.69068 34.3242C15.9434 50.0938 34.3158 54.768 48.4709 51.0877C40.7681 57.662 32.7859 61.2113 32.8657 61.9102Z" fill="#FFD896"/>
<path d="M53.1272 14.4046C53.1298 15.5498 52.7185 16.6699 51.9453 17.6232C51.1722 18.5765 50.0719 19.32 48.7837 19.7598C47.4956 20.1996 46.0774 20.3157 44.7088 20.0936C43.3402 19.8715 42.0826 19.3211 41.0952 18.5121C40.1077 17.7031 39.4349 16.6718 39.1617 15.5487C38.8886 14.4256 39.0274 13.2613 39.5607 12.203C40.094 11.1448 40.9977 10.2402 42.1575 9.60368C43.3173 8.96719 44.6811 8.62744 46.0762 8.62744C47.9439 8.62744 49.7354 9.23575 51.0573 10.3189C52.3792 11.402 53.1236 12.8714 53.1272 14.4046Z" fill="white"/>
<path d="M102.178 64.1381C99.6458 70.4283 95.3327 76.1359 89.5924 80.7923C81.8497 87.3448 73.8808 90.8832 73.9606 91.5821C74.1868 93.5697 76.5415 96.5838 76.3553 97.2391C76.169 97.8943 74.2001 98.5605 72.5504 98.5605C70.9007 98.5605 68.9052 97.9053 68.7189 97.2391C68.5327 96.5729 70.8874 93.5697 71.1269 91.5821C71.2999 90.1842 38.9586 77.254 41.1936 51.6883C42.3377 38.5833 52.4352 33.2649 61.0028 31.1353C63.3767 30.5421 65.813 30.1326 68.2799 29.9122C69.6972 29.7745 71.1232 29.7052 72.5504 29.7047C77.1003 29.7047 102.045 30.6111 103.881 51.6883C104.273 55.8892 103.695 60.1132 102.178 64.1381Z" fill="#FCB945"/>
<path d="M73.9606 91.582C74.1868 93.5696 76.5415 96.5838 76.3553 97.239C76.169 97.8943 74.2001 98.5604 72.5504 98.5604C70.9007 98.5604 68.9052 97.9052 68.7189 97.239C68.5327 96.5728 70.8874 93.5696 71.1269 91.582C71.2999 90.1841 38.9586 77.2539 41.1936 51.6883C42.3377 38.5833 52.4352 33.2648 61.0028 31.1353C53.4064 36.4646 44.0539 46.9486 50.8122 64.0288C57.1181 79.7985 75.4506 84.4289 89.5924 80.7922C81.8497 87.3338 73.8808 90.8831 73.9606 91.582Z" fill="#FFD896"/>
<path d="M95.167 44.1529C95.167 45.2981 94.7531 46.4176 93.9777 47.3697C93.2024 48.3218 92.1004 49.0636 90.8112 49.5014C89.5221 49.9392 88.1037 50.0531 86.7355 49.8289C85.3674 49.6047 84.1111 49.0524 83.1255 48.2418C82.14 47.4312 81.4695 46.3989 81.1989 45.2754C80.9284 44.1519 81.0699 42.9878 81.6056 41.9303C82.1413 40.8729 83.0471 39.9697 84.2084 39.335C85.3697 38.7003 86.7342 38.3627 88.1293 38.3649C89.0546 38.3649 89.9709 38.5147 90.8256 38.8057C91.6803 39.0967 92.4567 39.5232 93.1104 40.0608C93.7641 40.5984 94.2822 41.2366 94.6351 41.9387C94.988 42.6409 95.1687 43.3933 95.167 44.1529Z" fill="white"/>
<path d="M70.8874 99.2048C68.3037 105.548 63.9219 111.297 58.1026 115.979C50.4663 122.401 42.6038 125.928 42.6836 126.583C42.9231 128.56 45.3444 131.585 45.0916 132.24C44.8388 132.895 42.9364 133.573 41.2734 133.573C39.6105 133.573 37.6415 132.917 37.4553 132.251C37.269 131.585 39.6238 128.571 39.8499 126.594C40.0229 125.196 7.68162 112.266 9.91664 86.7004C11.0741 73.4862 21.3179 68.1896 29.8722 66.0928C32.2537 65.5143 34.6936 65.1123 37.1626 64.8915C38.5277 64.767 39.8999 64.7014 41.2734 64.6949C45.8233 64.6949 70.7677 65.6123 72.6169 86.6895C73.0017 90.9134 72.415 95.159 70.8874 99.2048Z" fill="#7858A1"/>
<path opacity="0.1" d="M9.91664 86.6895C11.0741 73.4753 21.3179 68.1787 29.8722 66.0819C22.2225 71.3457 12.5774 81.8844 19.3889 99.1829C25.615 114.909 43.9209 119.605 58.0494 115.979C50.4663 122.401 42.6038 125.928 42.6836 126.583C42.9231 128.56 45.3444 131.585 45.0916 132.24C44.8388 132.896 42.9364 133.573 41.2734 133.573C39.6105 133.573 37.6415 132.917 37.4553 132.251C37.269 131.585 39.6238 128.571 39.8499 126.594C40.0229 125.185 7.68162 112.255 9.91664 86.6895Z" fill="black"/>
<path d="M63.0251 78.9685C63.0251 80.1132 62.6116 81.2323 61.8368 82.1841C61.0621 83.136 59.9608 83.8778 58.6725 84.3159C57.3841 84.754 55.9663 84.8686 54.5986 84.6453C53.2308 84.4219 51.9745 83.8707 50.9884 83.0612C50.0023 82.2517 49.3308 81.2204 49.0587 80.0977C48.7866 78.9749 48.9263 77.8111 49.4599 76.7535C49.9936 75.6958 50.8974 74.7919 52.0569 74.1559C53.2164 73.5199 54.5796 73.1804 55.9742 73.1804C57.8442 73.1804 59.6376 73.7902 60.9599 74.8757C62.2823 75.9612 63.0251 77.4334 63.0251 78.9685Z" fill="white"/>
<path d="M46.5442 199.207H37.1608C34.3993 199.207 32.1608 201.445 32.1608 204.207V215C32.1608 217.761 34.3993 220 37.1608 220H46.5442C49.3057 220 51.5442 217.761 51.5442 215V204.207C51.5442 201.445 49.3057 199.207 46.5442 199.207Z" fill="#323232"/>
</svg>
