<svg width="121" height="116" viewBox="0 0 121 116" fill="none" xmlns="http://www.w3.org/2000/svg">
<path d="M117.148 57.7231C117.148 87.8342 91.7093 112.446 60.0741 112.446C28.4389 112.446 3 87.8342 3 57.7231C3 27.6121 28.4389 3 60.0741 3C91.7093 3 117.148 27.6121 117.148 57.7231Z" stroke="#FCB945" stroke-width="6"/>
<path fill-rule="evenodd" clip-rule="evenodd" d="M38.9305 26.1895C37.1535 26.1895 35.4493 26.8427 34.1929 28.0054C32.9364 29.1681 32.2305 30.7451 32.2305 32.3895V75.7895C32.2305 77.4338 32.9364 79.0108 34.1929 80.1735C35.4493 81.3362 37.1535 81.9895 38.9305 81.9895H79.1305C80.9074 81.9895 82.6116 81.3362 83.8681 80.1735C85.1246 79.0108 85.8305 77.4338 85.8305 75.7895V46.0729C85.8301 44.4286 85.124 42.8519 83.8674 41.6895L69.0805 28.0061C67.8243 26.8432 66.1204 26.1898 64.3436 26.1895H38.9305ZM38.9305 32.3895H64.3436L79.1305 46.0729V75.7895H38.9305V32.3895ZM45.6305 38.5895C44.742 38.5895 43.8899 38.9161 43.2617 39.4974C42.6334 40.0788 42.2805 40.8673 42.2805 41.6895C42.2805 42.5116 42.6334 43.3001 43.2617 43.8815C43.8899 44.4628 44.742 44.7895 45.6305 44.7895H62.3805C63.2689 44.7895 64.121 44.4628 64.7493 43.8815C65.3775 43.3001 65.7305 42.5116 65.7305 41.6895C65.7305 40.8673 65.3775 40.0788 64.7493 39.4974C64.121 38.9161 63.2689 38.5895 62.3805 38.5895H45.6305ZM42.2805 54.0895C42.2805 53.2673 42.6334 52.4788 43.2617 51.8974C43.8899 51.3161 44.742 50.9895 45.6305 50.9895H72.4305C73.3189 50.9895 74.171 51.3161 74.7993 51.8974C75.4275 52.4788 75.7805 53.2673 75.7805 54.0895C75.7805 54.9116 75.4275 55.7001 74.7993 56.2815C74.171 56.8628 73.3189 57.1895 72.4305 57.1895H45.6305C44.742 57.1895 43.8899 56.8628 43.2617 56.2815C42.6334 55.7001 42.2805 54.9116 42.2805 54.0895ZM45.6305 63.3895C44.742 63.3895 43.8899 63.7161 43.2617 64.2974C42.6334 64.8788 42.2805 65.6673 42.2805 66.4895C42.2805 67.3116 42.6334 68.1001 43.2617 68.6815C43.8899 69.2628 44.742 69.5895 45.6305 69.5895H72.4305C73.3189 69.5895 74.171 69.2628 74.7993 68.6815C75.4275 68.1001 75.7805 67.3116 75.7805 66.4895C75.7805 65.6673 75.4275 64.8788 74.7993 64.2974C74.171 63.7161 73.3189 63.3895 72.4305 63.3895H45.6305Z" fill="#FCB945"/>
</svg>
