<svg width="38" height="53" viewBox="0 0 38 53" fill="none" xmlns="http://www.w3.org/2000/svg">
<path fill-rule="evenodd" clip-rule="evenodd" d="M10.0176 24.7403C10.0176 29.6933 10.6035 33.0432 12.2005 37.2671C12.6561 38.4722 13.63 40.4135 14.2907 41.433L15.5338 43.2438C15.697 43.4681 16.8157 44.9258 16.9457 44.9258C17.1686 44.9258 21.1491 42.8776 21.4641 42.6485L19.7965 39.8685C19.5102 39.3447 19.2994 38.9077 19.024 38.3425C17.5514 35.3196 16.3579 31.0119 15.9882 27.1952C15.9164 26.4544 15.8143 25.5806 15.8136 24.8473C15.8127 23.9842 15.8144 23.1191 15.8162 22.2558C15.8194 20.7755 15.8875 21.1613 15.3079 20.3667C14.9628 19.8937 11.8919 15.4555 11.5237 15.3203L10.9869 17.3774C10.4546 19.5811 10.0176 22.2435 10.0176 24.7403Z" fill="white"/>
<path fill-rule="evenodd" clip-rule="evenodd" d="M9.86616 48.6524C10.1879 48.4402 10.6754 48.2167 11.0072 48.047C11.4142 47.8386 11.7437 47.6722 12.1574 47.4543C12.578 47.2328 12.8973 47.0836 13.3083 46.8625C13.7025 46.6504 14.1353 46.3996 14.5352 46.2716C14.1966 45.5767 13.4725 44.8903 13.0608 44.1575C12.6333 43.3968 12.1926 42.809 11.7052 41.8805C9.73941 38.1356 8.20522 33.1554 7.90611 28.3662C7.87061 27.7977 7.87263 27.0342 7.82195 26.4117C7.76035 25.6556 7.73584 25.2732 7.81233 24.5049C7.84689 24.1583 7.82802 23.8448 7.83012 23.4942C7.83344 22.9536 7.90097 22.9123 7.9082 22.4629C7.65305 22.7199 6.02104 29.0822 5.92213 29.4633L4.21333 35.71C4.13351 36.0595 4.20899 36.212 4.30168 36.632C4.8608 39.1657 5.56148 41.3898 6.53742 43.3941L7.25307 44.7912C7.71147 45.5695 8.82731 47.4188 9.4032 48.0466C9.63385 48.2981 9.69567 48.3024 9.86616 48.6524Z" fill="white"/>
<path fill-rule="evenodd" clip-rule="evenodd" d="M35.165 2.58795L35.2403 4.55474L33.8096 4.45117C32.5503 4.45117 31.5504 5.91585 31.5504 7.86723C31.5504 8.34797 31.5963 9.22357 31.701 9.52342C30.8165 9.49639 29.2458 8.78845 28.2941 10.9478C27.7517 12.1787 28.011 13.2488 28.0863 14.4922C26.1853 13.8834 24.3963 14.8598 24.3963 17.3907L24.4716 19.461C23.6641 18.9284 21.1582 19.3186 21.1582 21.1172C21.1582 22.1284 21.4614 22.877 22.2878 22.877C23.0742 22.877 22.7964 22.2126 23.7284 22.4438C24.6563 22.6741 26.515 23.4331 26.8755 21.1064C27.063 19.8967 26.6555 19.1377 26.6555 17.4942C27.8936 17.4942 27.8271 17.8047 29.0653 17.8047C30.1581 17.8047 30.4961 16.5804 30.4961 15.3203C30.4961 14.4116 30.2702 14.1136 30.2702 12.5254C31.3147 12.5254 34.1108 13.9501 34.1108 10.6621C34.1108 9.53058 33.7347 8.44238 33.8848 7.55664C34.8952 7.55664 36.8351 8.82185 37.5405 6.7849C38.0032 5.44873 37.4242 4.366 37.4242 2.89844C37.4242 2.661 38.2395 1.53673 37.478 0.443567C37.2964 0.182873 37.0781 0.0401526 36.8492 0H36.5722C35.8701 0.118669 35.165 1.11543 35.165 2.58795Z" fill="white"/>
<path fill-rule="evenodd" clip-rule="evenodd" d="M23.7986 41.4062C24.0318 41.4062 25.7709 40.4315 26.1243 40.2555C26.8165 39.9107 27.8651 39.5871 27.8651 38.3008C27.8651 37.3223 27.2529 36.7865 26.8673 36.2564C25.9563 35.0041 18.3496 24.441 18 24.1191C18 26.0366 18.3219 28.048 18.6023 29.6056C19.3189 33.5859 20.7574 36.7719 22.6159 39.823C22.7336 40.0162 23.7293 41.4062 23.7986 41.4062Z" fill="white"/>
<path fill-rule="evenodd" clip-rule="evenodd" d="M0 51.4473C0 52.2985 0.449288 53 1.20492 53C1.59174 53 3.87397 51.7214 4.37915 51.4629L7.5306 49.8945C7.44369 49.4472 7.13438 49.1941 6.9093 48.8852L6.23096 47.8509C5.79201 47.1736 5.35798 46.3874 4.98432 45.631C4.45355 44.5564 3.21392 41.7682 3.01227 40.5781H2.86166C2.77663 41.0795 2.65835 41.3994 2.53225 41.8851C2.40377 42.3799 2.29908 42.7578 2.16192 43.2393C1.8701 44.2641 0 50.9233 0 51.4473Z" fill="white"/>
<path fill-rule="evenodd" clip-rule="evenodd" d="M19.3817 3.40219C19.5199 4.16569 19.8036 4.44636 20.2192 6.74251C20.4355 7.93715 20.3809 9.54365 20.2852 10.47C19.9606 13.6131 19.4473 14.2155 18.6631 16.4749C18.0938 18.1152 20.1412 19.7815 20.9188 17.4002C21.2625 16.3482 21.567 15.758 21.9129 14.4636C22.6522 11.6976 22.9772 8.68852 22.3573 5.26452C21.2689 -0.748138 19.143 2.08302 19.3817 3.40219Z" fill="white"/>
<path fill-rule="evenodd" clip-rule="evenodd" d="M25.6794 26.0714C25.4829 27.3242 26.385 28.6648 27.4791 27.745C29.9362 25.6797 32.7263 24.4684 35.7064 25.9744C36.2418 26.2451 36.0323 26.2793 36.7819 26.5013C37.6217 26.7501 38.3345 25.2103 37.8315 24.0891C37.7027 23.8022 37.4294 23.5555 37.1625 23.3758L35.2585 22.4455C34.8712 22.3012 34.6959 22.3654 34.2876 22.2687C32.4248 21.8276 29.8957 22.5561 28.3059 23.5668L27.2494 24.2861C27.0671 24.4353 27.042 24.4202 26.8653 24.5479C26.4782 24.8277 25.7958 25.3288 25.6794 26.0714Z" fill="white"/>
<path fill-rule="evenodd" clip-rule="evenodd" d="M25.9043 5.90049C25.9043 7.25981 27.058 8.06724 27.8448 7.11878C28.6133 6.19219 28.1057 4.34766 27.1091 4.34766C26.4703 4.34766 25.9043 5.06066 25.9043 5.90049Z" fill="white"/>
<path fill-rule="evenodd" clip-rule="evenodd" d="M32.3047 32.2968C32.3047 34.345 34.5849 34.3852 34.6053 32.2981C34.6249 30.2906 32.3047 30.144 32.3047 32.2968Z" fill="white"/>
<path fill-rule="evenodd" clip-rule="evenodd" d="M33.8867 16.873C33.8867 18.2158 35.025 19.0587 35.8273 18.0913C36.6176 17.1385 36.0499 15.3203 35.0163 15.3203C34.4693 15.3203 33.8867 16.1211 33.8867 16.873Z" fill="white"/>
<path fill-rule="evenodd" clip-rule="evenodd" d="M14.7578 7.97018C14.7578 9.96161 16.122 9.96509 16.6558 9.33696C17.3591 8.50906 17.0053 6.54248 15.8874 6.54248C15.359 6.54248 14.7578 7.22796 14.7578 7.97018Z" fill="white"/>
</svg>
