<svg width="93" height="87" viewBox="0 0 93 87" fill="none" xmlns="http://www.w3.org/2000/svg">
<path fill-rule="evenodd" clip-rule="evenodd" d="M20.8213 40.3178C20.8213 48.1927 22.0394 53.5189 25.3594 60.2345C26.3067 62.1505 28.3312 65.2371 29.7048 66.858L32.2891 69.737C32.6285 70.0936 34.9541 72.4113 35.2246 72.4113C35.6878 72.4113 43.963 69.1548 44.6179 68.7906L41.1511 64.3705C40.556 63.5377 40.1177 62.8429 39.5451 61.9443C36.4836 57.1381 34.0025 50.2893 33.2338 44.221C33.0846 43.0432 32.8723 41.6539 32.8708 40.488C32.869 39.1158 32.8725 37.7402 32.8764 36.3677C32.883 34.0141 33.0244 34.6276 31.8195 33.3642C31.1021 32.6122 24.718 25.5557 23.9525 25.3408L22.8365 28.6115C21.7299 32.1151 20.8213 36.3481 20.8213 40.3178Z" fill="#FFBD00"/>
<path fill-rule="evenodd" clip-rule="evenodd" d="M20.5093 78.3366C21.1782 77.9992 22.1916 77.6439 22.8814 77.374C23.7277 77.0428 24.4127 76.7781 25.2728 76.4317C26.1471 76.0795 26.8109 75.8423 27.6653 75.4907C28.4848 75.1535 29.3846 74.7548 30.2159 74.5513C29.5122 73.4464 28.0068 72.3551 27.1508 71.1901C26.2621 69.9806 25.3458 69.0461 24.3325 67.5697C20.2458 61.6157 17.0564 53.6975 16.4345 46.0831C16.3607 45.1792 16.3649 43.9653 16.2595 42.9755C16.1315 41.7735 16.0805 41.1654 16.2396 39.9439C16.3114 39.3929 16.2722 38.8944 16.2765 38.337C16.2834 37.4774 16.4238 37.4118 16.4389 36.6973C15.9084 37.1059 12.5156 47.2215 12.3099 47.8273L8.75744 57.7591C8.59149 58.3149 8.74842 58.5573 8.94112 59.225C10.1035 63.2534 11.5602 66.7896 13.5891 69.9763L15.0769 72.1976C16.0299 73.435 18.3496 76.3753 19.5469 77.3733C20.0264 77.7733 20.1549 77.7801 20.5093 78.3366Z" fill="#493169"/>
<path fill-rule="evenodd" clip-rule="evenodd" d="M73.1125 5.09756L73.2691 8.22459L70.2946 8.05993C67.6767 8.05993 65.5979 10.3887 65.5979 13.4912C65.5979 14.2555 65.6934 15.6477 65.911 16.1244C64.0722 16.0814 60.8068 14.9559 58.8283 18.3891C57.7006 20.346 58.2398 22.0474 58.3963 24.0244C54.4441 23.0564 50.7251 24.6089 50.7251 28.6327L50.8815 31.9244C49.2029 31.0776 43.9932 31.6979 43.9932 34.5576C43.9932 36.1653 44.6234 37.3556 46.3415 37.3556C47.9765 37.3556 47.399 36.2993 49.3365 36.6668C51.2656 37.033 55.1295 38.2398 55.8791 34.5404C56.2689 32.6171 55.4217 31.4103 55.4217 28.7974C57.9957 28.7974 57.8574 29.291 60.4315 29.291C62.7033 29.291 63.4061 27.3445 63.4061 25.341C63.4061 23.8962 62.9365 23.4225 62.9365 20.8974C65.1079 20.8974 70.9208 23.1626 70.9208 17.9348C70.9208 16.1358 70.139 14.4056 70.4511 12.9974C72.5515 12.9974 76.5844 15.009 78.051 11.7704C79.013 9.64597 77.8092 7.92451 77.8092 5.59121C77.8092 5.2137 79.5043 3.42619 77.9212 1.68815C77.5436 1.27366 77.0898 1.04675 76.6139 0.98291H76.0379C74.5784 1.17158 73.1125 2.75635 73.1125 5.09756Z" fill="#FFBD00"/>
<path fill-rule="evenodd" clip-rule="evenodd" d="M49.4729 66.8157C49.9578 66.8157 53.5731 65.266 54.3079 64.9862C55.747 64.438 57.9269 63.9235 57.9269 61.8783C57.9269 60.3226 56.6542 59.4707 55.8525 58.6278C53.9587 56.6368 38.1447 39.8422 37.418 39.3306C37.418 42.3792 38.0872 45.5772 38.6701 48.0537C40.16 54.382 43.1504 59.4475 47.0141 64.2985C47.2588 64.6057 49.3288 66.8157 49.4729 66.8157Z" fill="#493169"/>
<path fill-rule="evenodd" clip-rule="evenodd" d="M0 82.7801C0 84.1335 0.934044 85.2488 2.50496 85.2488C3.30914 85.2488 8.05376 83.2159 9.10399 82.8049L15.6557 80.3114C15.475 79.6001 14.832 79.1978 14.364 78.7067L12.9538 77.0622C12.0413 75.9853 11.1389 74.7354 10.3621 73.5327C9.25867 71.8242 6.68155 67.3911 6.26233 65.499H5.94923C5.77246 66.2962 5.52655 66.8047 5.2644 67.577C4.9973 68.3637 4.77965 68.9645 4.4945 69.7301C3.88784 71.3595 0 81.947 0 82.7801Z" fill="#493169"/>
<path fill-rule="evenodd" clip-rule="evenodd" d="M40.2947 6.39186C40.5821 7.60576 41.1718 8.052 42.0359 11.7027C42.4855 13.6021 42.372 16.1563 42.173 17.6292C41.4983 22.6264 40.4312 23.5841 38.8007 27.1765C37.6172 29.7845 41.8736 32.4337 43.4904 28.6477C44.2048 26.9751 44.8378 26.0366 45.5569 23.9787C47.0938 19.5809 47.7695 14.7967 46.4808 9.35281C44.218 -0.206841 39.7984 4.29448 40.2947 6.39186Z" fill="#493169"/>
<path fill-rule="evenodd" clip-rule="evenodd" d="M53.3892 42.4343C52.9808 44.4261 54.8563 46.5575 57.1308 45.0952C62.2389 41.8116 68.0393 39.8856 74.2347 42.2801C75.3479 42.7104 74.9123 42.7647 76.4708 43.1177C78.2165 43.5133 79.6985 41.0652 78.6527 39.2826C78.385 38.8264 77.8168 38.4342 77.2619 38.1485L73.3037 36.6693C72.4985 36.4399 72.1341 36.542 71.2851 36.3882C67.4125 35.6869 62.1547 36.8452 58.8496 38.4521L56.6533 39.5958C56.2742 39.833 56.222 39.809 55.8546 40.012C55.05 40.4569 53.6312 41.2536 53.3892 42.4343Z" fill="#493169"/>
<path fill-rule="evenodd" clip-rule="evenodd" d="M53.8535 10.3644C53.8535 12.5256 56.2521 13.8094 57.8878 12.3014C59.4854 10.8282 58.4301 7.89551 56.3583 7.89551C55.0302 7.89551 53.8535 9.02913 53.8535 10.3644Z" fill="#FFBD00"/>
<path fill-rule="evenodd" clip-rule="evenodd" d="M67.1611 52.3323C67.1611 55.5888 71.9015 55.6528 71.9439 52.3344C71.9847 49.1425 67.1611 48.9095 67.1611 52.3323Z" fill="#FFBD00"/>
<path fill-rule="evenodd" clip-rule="evenodd" d="M70.4512 27.81C70.4512 29.9449 72.8175 31.285 74.4856 29.747C76.1285 28.2321 74.9482 25.3413 72.7995 25.3413C71.6622 25.3413 70.4512 26.6145 70.4512 27.81Z" fill="#FFBD00"/>
<path fill-rule="evenodd" clip-rule="evenodd" d="M30.6846 13.6552C30.6846 16.8214 33.5207 16.8269 34.6303 15.8283C36.0925 14.512 35.3569 11.3853 33.0329 11.3853C31.9344 11.3853 30.6846 12.4751 30.6846 13.6552Z" fill="#FFBD00"/>
<path d="M51.8828 82.6978L51.4824 84.9829H44.1289L44.5195 82.6978H51.8828ZM47.5371 70.7642L45.0664 84.9829H42.2051L44.666 70.7642H47.5371ZM51.9902 76.5552L51.5996 78.7817H45.2031L45.5938 76.5552H51.9902ZM53.9336 70.7642L53.5332 73.0591H46.1895L46.5996 70.7642H53.9336ZM56.6191 82.8149L60.1836 74.4165H63.1328L58.0156 84.9829H56.2285L56.6191 82.8149ZM56.3555 74.4165L57.3223 83.0786L57.0684 84.9829H55.3691L53.5527 74.4165H56.3555ZM67.3516 85.1782C66.6289 85.1652 65.9779 85.0285 65.3984 84.7681C64.819 84.5011 64.334 84.1366 63.9434 83.6743C63.5592 83.2121 63.276 82.675 63.0938 82.063C62.9115 81.451 62.8464 80.7935 62.8984 80.0903L62.9375 79.6899C63.0156 78.9543 63.1947 78.2544 63.4746 77.5903C63.7546 76.9263 64.1289 76.3403 64.5977 75.8325C65.0664 75.3182 65.6198 74.9178 66.2578 74.6313C66.9023 74.3384 67.6185 74.2017 68.4062 74.2212C69.1419 74.2342 69.7702 74.384 70.291 74.6704C70.8118 74.9569 71.2318 75.341 71.5508 75.8228C71.8698 76.3045 72.0879 76.8547 72.2051 77.4731C72.3223 78.0851 72.3451 78.7264 72.2734 79.397L72.1172 80.5688H63.9531L64.2559 78.6938L69.6465 78.7036L69.6953 78.4595C69.7474 78.1014 69.7311 77.7694 69.6465 77.4634C69.5618 77.1509 69.4023 76.9002 69.168 76.7114C68.9336 76.5226 68.6211 76.4217 68.2305 76.4087C67.7812 76.3957 67.4036 76.4901 67.0977 76.6919C66.7917 76.8937 66.541 77.1606 66.3457 77.4927C66.1504 77.8247 66.0007 78.186 65.8965 78.5767C65.7923 78.9608 65.7174 79.3319 65.6719 79.6899L65.6328 80.0806C65.6003 80.4256 65.61 80.7707 65.6621 81.1157C65.7142 81.4543 65.8151 81.7603 65.9648 82.0337C66.1211 82.3071 66.3327 82.5285 66.5996 82.6978C66.873 82.867 67.2148 82.9582 67.625 82.9712C68.1458 82.9842 68.6243 82.8833 69.0605 82.6685C69.5033 82.4471 69.9004 82.1541 70.252 81.7896L71.4824 83.2739C71.1895 83.7166 70.8151 84.0812 70.3594 84.3677C69.9102 84.6476 69.4251 84.8527 68.9043 84.9829C68.3835 85.1196 67.8659 85.1847 67.3516 85.1782ZM76.9805 76.8286L75.5645 84.9829H72.8105L74.6465 74.4165H77.2246L76.9805 76.8286ZM76.1699 79.3286L75.4863 79.3481C75.5579 78.7166 75.7012 78.0916 75.916 77.4731C76.1309 76.8547 76.4238 76.298 76.7949 75.8032C77.1725 75.3019 77.6315 74.908 78.1719 74.6216C78.7188 74.3351 79.3535 74.1984 80.0762 74.2114C80.6621 74.231 81.1439 74.3547 81.5215 74.5825C81.9056 74.8039 82.1986 75.1034 82.4004 75.481C82.6087 75.8586 82.7422 76.285 82.8008 76.7603C82.8659 77.2355 82.8724 77.7303 82.8203 78.2446L81.6875 84.9829H78.9238L80.0664 78.2153C80.1055 77.8703 80.0957 77.5643 80.0371 77.2974C79.9785 77.0304 79.8483 76.8188 79.6465 76.6626C79.4512 76.5063 79.1647 76.425 78.7871 76.4185C78.3704 76.4054 78.0091 76.4836 77.7031 76.6528C77.4036 76.8221 77.1497 77.05 76.9414 77.3364C76.7331 77.6229 76.5671 77.9386 76.4434 78.2837C76.3197 78.6287 76.2285 78.9771 76.1699 79.3286ZM90.6328 74.4165L90.2812 76.4087H84.2949L84.6465 74.4165H90.6328ZM86.5801 71.8091H89.3242L87.6055 81.8188C87.5794 82.0467 87.5794 82.242 87.6055 82.4048C87.638 82.561 87.7129 82.6815 87.8301 82.7661C87.9473 82.8507 88.1296 82.8996 88.377 82.9126C88.5137 82.9191 88.6504 82.9159 88.7871 82.9028C88.9238 82.8833 89.0638 82.8638 89.207 82.8442L89.0117 84.9438C88.7513 85.022 88.4876 85.0773 88.2207 85.1099C87.9603 85.1489 87.6934 85.1685 87.4199 85.1685C86.7949 85.1554 86.2806 85.0187 85.877 84.7583C85.4798 84.4979 85.1934 84.1398 85.0176 83.6841C84.8483 83.2218 84.793 82.688 84.8516 82.0825L86.5801 71.8091Z" fill="#493169"/>
</svg>
