<svg width="71" height="68" viewBox="0 0 71 68" fill="none" xmlns="http://www.w3.org/2000/svg">
<g filter="url(#filter0_d_2365_8788)">
<path d="M65 30C65 45.3731 51.8855 58 35.5 58C19.1145 58 6 45.3731 6 30C6 14.6269 19.1145 2 35.5 2C51.8855 2 65 14.6269 65 30Z" stroke="#FCB945" stroke-width="4" shape-rendering="crispEdges"/>
</g>
<path d="M15.0002 40.3502V41.1253C15.0018 42.1526 15.504 43.1376 16.3965 43.864C17.2894 44.5906 18.4995 44.9992 19.762 45.0002H27.3812C28.6437 44.9992 29.8538 44.5905 30.7467 43.864C31.6393 43.1376 32.1415 42.1526 32.143 41.1253V40.3502C32.1414 39.1342 31.7011 37.9453 30.8764 36.9312C30.0518 35.9171 28.8796 35.1223 27.5049 34.6454C29.0288 33.7395 30.0091 32.3502 30.203 30.8226C30.3968 29.295 29.7859 27.772 28.5218 26.6316C27.2578 25.4911 25.4587 24.8403 23.5715 24.8403C21.6843 24.8403 19.8853 25.4911 18.6212 26.6316C17.3572 27.772 16.7462 29.295 16.9401 30.8226C17.134 32.3502 18.1142 33.7395 19.6381 34.6454C18.2634 35.1223 17.0913 35.9171 16.2666 36.9312C15.442 37.9452 15.0016 39.1342 15 40.3502H15.0002ZM18.8098 30.2756C18.8098 29.2478 19.3114 28.2622 20.2046 27.5354C21.0975 26.8088 22.3085 26.4004 23.5716 26.4004C24.8347 26.4004 26.0458 26.8088 26.9386 27.5354C27.8318 28.2622 28.3334 29.2478 28.3334 30.2756C28.3334 31.3032 27.8318 32.289 26.9386 33.0155C26.0457 33.7423 24.8347 34.1505 23.5716 34.1505C22.3091 34.1492 21.0987 33.7405 20.2061 33.0143C19.3132 32.2877 18.811 31.3029 18.8098 30.2756ZM22.6194 35.7007H24.5241V35.7005C26.0391 35.7018 27.4916 36.1922 28.563 37.0638C29.6341 37.9357 30.2368 39.1176 30.2384 40.3505V41.1256C30.2384 41.7421 29.9374 42.3335 29.4013 42.7697C28.8656 43.2056 28.1389 43.4506 27.3812 43.4506H19.762C19.0043 43.4506 18.2776 43.2056 17.7419 42.7697C17.2058 42.3335 16.9048 41.7421 16.9048 41.1256V40.3505C16.9064 39.1176 17.5091 37.9357 18.5802 37.0638C19.6516 36.1922 21.1041 35.7017 22.6191 35.7005L22.6194 35.7007Z" fill="#7858A1"/>
<path d="M34.4366 25.4367L34.8489 26.7782C34.9672 27.162 35.3176 27.4706 35.7784 27.5966C36.2392 27.723 36.7472 27.6501 37.127 27.4028L40.7881 25.0197C40.9567 24.9104 41.1659 24.8507 41.3815 24.85H49.2862C50.0438 24.85 50.7706 24.605 51.3066 24.1691C51.8423 23.7329 52.1433 23.1415 52.1433 22.5249V16.325C52.1433 15.7082 51.8423 15.1168 51.3066 14.6809C50.7705 14.245 50.0438 14 49.2862 14H32.1433C31.3856 14 30.6589 14.245 30.1229 14.6809C29.5872 15.1168 29.2861 15.7082 29.2861 16.325V22.5249C29.2861 23.1415 29.5872 23.7329 30.1229 24.1691C30.6589 24.605 31.3856 24.85 32.1433 24.85H33.5128C33.9497 24.85 34.3304 25.0918 34.4366 25.4367ZM32.1432 23.3001C31.6173 23.3001 31.1907 22.9529 31.1907 22.525V16.3251C31.1907 15.8969 31.6173 15.55 32.1432 15.55H49.286C49.5386 15.55 49.7809 15.6317 49.9595 15.777C50.1381 15.9223 50.2385 16.1195 50.2385 16.3251V22.525C50.2385 22.7305 50.1381 22.9277 49.9595 23.073C49.7809 23.2183 49.5386 23.3001 49.286 23.3001H41.3814C40.7325 23.3001 40.103 23.4799 39.5966 23.81L36.5157 25.8155L36.2842 25.0607C36.1295 24.5578 35.773 24.1115 35.2708 23.7923C34.7685 23.4734 34.15 23.3001 33.5128 23.3001L32.1432 23.3001Z" fill="#7858A1"/>
<path d="M52.1434 31.0498H36.905C36.1473 31.0498 35.4206 31.2948 34.8849 31.731C34.3489 32.1669 34.0479 32.7583 34.0479 33.3748V39.575C34.0479 40.1916 34.3489 40.783 34.8849 41.2189C35.4206 41.6551 36.1474 41.9 36.905 41.9H42.905C43.1209 41.9006 43.3304 41.9602 43.4994 42.0697L47.1605 44.4529C47.5402 44.7004 48.0492 44.7736 48.5102 44.6467C48.9713 44.5201 49.3218 44.211 49.4395 43.8267L49.8499 42.4875C49.9557 42.1424 50.3365 41.9 50.7736 41.9H52.1432C52.9008 41.9 53.6276 41.6551 54.1636 41.2189C54.6993 40.7829 55.0003 40.1915 55.0003 39.575V33.3748C55.0003 32.7583 54.6993 32.1669 54.1636 31.731C53.6275 31.2948 52.9008 31.0498 52.1432 31.0498L52.1434 31.0498ZM53.0959 39.5746V39.5749C53.0959 39.7804 52.9954 39.9774 52.8168 40.1229C52.6383 40.2682 52.3959 40.3497 52.1434 40.3497H50.7738C50.1364 40.3495 49.5171 40.5228 49.0146 40.842C48.512 41.1611 48.1549 41.608 48.0005 42.1114L47.77 42.8655L44.689 40.8599C44.1829 40.5301 43.5538 40.3503 42.9051 40.3498H36.9051C36.3793 40.3498 35.953 40.0028 35.953 39.5749V33.3747C35.953 32.9468 36.3793 32.5999 36.9051 32.5999H52.1435C52.3961 32.5999 52.6384 32.6814 52.817 32.8267C52.9956 32.9723 53.096 33.1692 53.096 33.3747L53.0959 39.5746Z" fill="#7858A1"/>
<path d="M36.9043 20.2003H44.5236C45.0494 20.2003 45.4757 19.8534 45.4757 19.4252C45.4757 18.9973 45.0494 18.6504 44.5236 18.6504H36.9043C36.3785 18.6504 35.9521 18.9973 35.9521 19.4252C35.9521 19.8534 36.3785 20.2003 36.9043 20.2003Z" fill="#7858A1"/>
<path d="M48.3341 35.6997H40.7152C40.1894 35.6997 39.7627 36.0469 39.7627 36.4748C39.7627 36.9027 40.1894 37.2499 40.7152 37.2499H48.3341C48.8603 37.2499 49.2866 36.9027 49.2866 36.4748C49.2866 36.0469 48.8603 35.6997 48.3341 35.6997Z" fill="#7858A1"/>
<defs>
<filter id="filter0_d_2365_8788" x="0" y="0" width="71" height="68" filterUnits="userSpaceOnUse" color-interpolation-filters="sRGB">
<feFlood flood-opacity="0" result="BackgroundImageFix"/>
<feColorMatrix in="SourceAlpha" type="matrix" values="0 0 0 0 0 0 0 0 0 0 0 0 0 0 0 0 0 0 127 0" result="hardAlpha"/>
<feOffset dy="4"/>
<feGaussianBlur stdDeviation="2"/>
<feComposite in2="hardAlpha" operator="out"/>
<feColorMatrix type="matrix" values="0 0 0 0 0 0 0 0 0 0 0 0 0 0 0 0 0 0 0.25 0"/>
<feBlend mode="normal" in2="BackgroundImageFix" result="effect1_dropShadow_2365_8788"/>
<feBlend mode="normal" in="SourceGraphic" in2="effect1_dropShadow_2365_8788" result="shape"/>
</filter>
</defs>
</svg>
