<svg width="71" height="68" viewBox="0 0 71 68" fill="none" xmlns="http://www.w3.org/2000/svg">
<g filter="url(#filter0_d_2365_8777)">
<path d="M65 30C65 45.3731 51.8855 58 35.5 58C19.1145 58 6 45.3731 6 30C6 14.6269 19.1145 2 35.5 2C51.8855 2 65 14.6269 65 30Z" stroke="#FCB945" stroke-width="4" shape-rendering="crispEdges"/>
</g>
<path d="M22.7842 41.7577C23.5312 41.7577 24.1384 42.383 24.1384 43.1517C24.1384 43.9199 23.5303 44.5461 22.7842 44.5461C22.0382 44.5461 21.43 43.9199 21.43 43.1517C21.4295 42.3835 22.0372 41.7577 22.7842 41.7577ZM22.7842 39.062C20.5903 39.062 18.8115 40.8932 18.8115 43.1517C18.8115 45.4116 20.5909 47.2423 22.7842 47.2423C24.9777 47.2423 26.7569 45.4111 26.7569 43.1517C26.7565 40.8931 24.978 39.062 22.7842 39.062Z" fill="#7858A1"/>
<path d="M57.7886 42.2909H49.7189V40.943H57.7876C57.8826 40.943 57.9625 40.8608 57.9625 40.7625V38.4743C57.9625 38.3761 57.8826 38.2938 57.7876 38.2938H56.7736C55.9549 38.2938 55.2878 37.6078 55.2878 36.7644V28.0391C55.2878 27.7161 55.1098 27.1661 54.9198 26.9089L49.1067 18.9903C48.956 18.7854 48.5478 18.5766 48.2985 18.5766H40.7288C40.6338 18.5766 40.5539 18.6594 40.5539 18.7581V36.7657C40.5539 37.6087 39.8869 38.2951 39.0682 38.2951H14.2885C14.1936 38.2951 14.1137 38.3773 14.1137 38.4756V40.7638C14.1137 40.8621 14.1936 40.9443 14.2885 40.9443H20.0456V42.2922H14.2885C13.4703 42.2922 12.8047 41.6063 12.8047 40.7638V38.4756C12.8047 37.6331 13.4704 36.9472 14.2885 36.9472H39.067C39.1625 36.9472 39.2437 36.8645 39.2437 36.7657L39.2442 18.7569C39.2442 17.9139 39.9099 17.2275 40.728 17.2275H48.2987C48.958 17.2275 49.7543 17.6351 50.1519 18.1772L55.9651 26.0958C56.3258 26.5871 56.5974 27.4221 56.5974 28.0384V36.7647C56.5974 36.863 56.6778 36.9462 56.7741 36.9462H57.7882C58.6064 36.9462 59.2721 37.6321 59.2721 38.4746V40.7628C59.2707 41.6053 58.6059 42.2907 57.7878 42.2907L57.7886 42.2909Z" fill="#7858A1"/>
<path d="M25.7188 40.9429H44.9732V42.2907H25.7188V40.9429Z" fill="#7858A1"/>
<path d="M36.8175 36.1769H15.2744C14.4562 36.1769 13.79 35.4909 13.79 34.6485V14.2867C13.79 13.4437 14.4562 12.7573 15.2744 12.7573H36.8175C37.6361 12.7573 38.3032 13.4433 38.3032 14.2867V34.6497C38.3032 35.4917 37.6361 36.1776 36.8175 36.1776V36.1769ZM15.2744 14.1048C15.1789 14.1048 15.099 14.1876 15.099 14.2863V34.6493C15.099 34.7475 15.1789 34.8298 15.2744 34.8298L36.8175 34.8293C36.9129 34.8293 36.9942 34.7471 36.9942 34.6488V14.2858C36.9942 14.1876 36.9138 14.1044 36.8175 14.1044L15.2744 14.1048Z" fill="#7858A1"/>
<path d="M51.4048 27.8577H43.6616C42.8434 27.8577 42.1777 27.1718 42.1777 26.3284V22.4864C42.1777 21.6434 42.8434 20.957 43.6616 20.957H47.3499C48.0106 20.957 48.8069 21.366 49.2031 21.9095L52.2586 26.0951C52.5444 26.4854 52.607 26.9188 52.4307 27.2832C52.2531 27.649 51.8796 27.8577 51.4048 27.8577ZM43.6616 22.3063C43.5666 22.3063 43.4867 22.3891 43.4867 22.4878V26.3298C43.4867 26.4281 43.5666 26.5113 43.6616 26.5113H50.9207L48.1566 22.7215C48.0069 22.5161 47.5996 22.3078 47.3503 22.3078L43.6615 22.3069L43.6616 22.3063Z" fill="#7858A1"/>
<path d="M47.3536 41.7577C48.1005 41.7577 48.7078 42.383 48.7078 43.1517C48.7078 43.9199 48.0996 44.5461 47.3536 44.5461C46.6075 44.5461 45.9993 43.9199 45.9993 43.1517C45.9993 42.3835 46.6075 41.7577 47.3536 41.7577ZM47.3536 39.062C45.1596 39.062 43.3809 40.8932 43.3809 43.1517C43.3809 45.4116 45.1602 47.2423 47.3536 47.2423C49.5469 47.2423 51.3262 45.4111 51.3262 43.1517C51.3262 40.8931 49.5478 39.062 47.3536 39.062Z" fill="#7858A1"/>
<defs>
<filter id="filter0_d_2365_8777" x="0" y="0" width="71" height="68" filterUnits="userSpaceOnUse" color-interpolation-filters="sRGB">
<feFlood flood-opacity="0" result="BackgroundImageFix"/>
<feColorMatrix in="SourceAlpha" type="matrix" values="0 0 0 0 0 0 0 0 0 0 0 0 0 0 0 0 0 0 127 0" result="hardAlpha"/>
<feOffset dy="4"/>
<feGaussianBlur stdDeviation="2"/>
<feComposite in2="hardAlpha" operator="out"/>
<feColorMatrix type="matrix" values="0 0 0 0 0 0 0 0 0 0 0 0 0 0 0 0 0 0 0.25 0"/>
<feBlend mode="normal" in2="BackgroundImageFix" result="effect1_dropShadow_2365_8777"/>
<feBlend mode="normal" in="SourceGraphic" in2="effect1_dropShadow_2365_8777" result="shape"/>
</filter>
</defs>
</svg>
