<svg width="960" height="406" viewBox="0 0 960 406" fill="none" xmlns="http://www.w3.org/2000/svg">
<path d="M285.562 10C285.562 4.47716 290.04 0 295.563 0H949.699C955.222 0 959.699 4.47715 959.699 10V395.233C959.699 400.756 955.222 405.233 949.699 405.233H295.563C290.04 405.233 285.562 400.756 285.562 395.233V10Z" fill="#7858A1"/>
<path d="M325.972 24.6404L325.406 28.017L320.731 28.0298L318.27 42.2116L313.995 42.2234L316.456 28.0416L311.806 28.0543L312.397 24.6777L325.972 24.6404ZM331.309 30.7508C331.957 29.9157 332.697 29.2637 333.529 28.7947C334.378 28.309 335.26 28.065 336.177 28.0624L335.389 32.5896L334.214 32.5928C333.148 32.5958 332.307 32.8314 331.691 33.2998C331.076 33.7515 330.67 34.5526 330.473 35.7031L329.341 42.1813L325.066 42.193L327.477 28.2363L331.752 28.2246L331.309 30.7508ZM340.592 26.7503C339.925 26.7521 339.391 26.5786 338.99 26.2297C338.606 25.8641 338.413 25.4063 338.411 24.8563C338.409 24.1063 338.699 23.4638 339.281 22.9289C339.863 22.394 340.571 22.1254 341.404 22.1231C342.071 22.1212 342.596 22.3031 342.98 22.6687C343.365 23.0177 343.558 23.4755 343.559 24.0422C343.561 24.7755 343.271 25.4096 342.689 25.9446C342.108 26.4795 341.408 26.7481 340.592 26.7503ZM342.446 28.1952L340.034 42.1519L335.759 42.1636L338.171 28.207L342.446 28.1952ZM365.594 28.1317L359.382 42.0988L354.657 42.1118L354.032 33.0635L350.182 42.1241L345.482 42.137L344.119 28.1906L348.394 28.1789L348.621 38.1533L352.719 28.167L357.244 28.1546L357.896 38.1279L361.569 28.1428L365.594 28.1317ZM365.168 35.0829C365.414 33.6489 365.902 32.3892 366.633 31.3039C367.363 30.2185 368.244 29.3828 369.276 28.7966C370.307 28.2104 371.398 27.9158 372.548 27.9126C373.532 27.9099 374.357 28.1077 375.025 28.5058C375.693 28.904 376.177 29.4277 376.479 30.0769L376.824 28.1009L381.099 28.0892L378.662 42.0459L374.387 42.0576L374.757 40.0816C374.225 40.7331 373.552 41.2599 372.736 41.6622C371.92 42.0644 371.021 42.2669 370.038 42.2696C369.054 42.2723 368.179 42.0497 367.411 41.6018C366.66 41.1538 366.075 40.5221 365.656 39.7066C365.237 38.8744 365.026 37.9 365.023 36.7833C365.021 36.25 365.07 35.6832 365.168 35.0829ZM375.618 35.0792C375.667 34.7791 375.691 34.504 375.691 34.254C375.688 33.4374 375.445 32.7964 374.96 32.331C374.493 31.8656 373.892 31.634 373.159 31.636C372.309 31.6383 371.534 31.9488 370.836 32.5673C370.138 33.1693 369.698 34.0038 369.518 35.071C369.469 35.3711 369.445 35.6462 369.445 35.8962C369.447 36.7128 369.683 37.3622 370.151 37.8443C370.635 38.3096 371.236 38.5413 371.952 38.5393C372.802 38.537 373.577 38.2265 374.275 37.6079C374.973 36.9893 375.421 36.1464 375.618 35.0792ZM387.999 30.5952C388.646 29.7601 389.386 29.1081 390.218 28.6391C391.067 28.1535 391.949 27.9094 392.866 27.9069L392.079 32.4341L390.904 32.4373C389.837 32.4402 388.996 32.6759 388.381 33.1442C387.765 33.5959 387.359 34.397 387.162 35.5476L386.03 42.0257L381.755 42.0374L384.167 28.0808L388.442 28.069L387.999 30.5952ZM403.384 27.878C404.784 27.8742 405.886 28.2628 406.688 29.044C407.49 29.8251 407.893 30.9157 407.897 32.3157C407.898 32.7823 407.849 33.2825 407.751 33.8161L406.323 41.97L402.073 41.9817L403.402 34.403C403.452 34.1195 403.476 33.8695 403.475 33.6528C403.473 32.9528 403.272 32.4117 402.871 32.0294C402.486 31.6472 401.944 31.457 401.244 31.4589C400.411 31.4612 399.712 31.7214 399.146 32.2397C398.581 32.7579 398.217 33.4839 398.052 34.4177L398.052 34.2927L396.723 41.9963L392.448 42.0081L394.86 28.0514L399.135 28.0397L398.815 29.9156C399.363 29.2974 400.029 28.8039 400.811 28.4351C401.61 28.0662 402.468 27.8805 403.384 27.878ZM409.675 34.9608C409.921 33.5268 410.409 32.2671 411.139 31.1817C411.87 30.0964 412.751 29.2607 413.782 28.6745C414.814 28.0883 415.905 27.7937 417.055 27.7905C418.038 27.7878 418.864 27.9855 419.532 28.3837C420.199 28.7819 420.684 29.3056 420.986 29.9547L421.331 27.9788L425.606 27.967L423.169 41.9238L418.894 41.9355L419.263 39.9595C418.732 40.611 418.058 41.1378 417.243 41.54C416.427 41.9423 415.528 42.1447 414.544 42.1474C413.561 42.1501 412.685 41.9275 411.918 41.4797C411.166 41.0317 410.581 40.4 410.162 39.5845C409.743 38.7523 409.532 37.7779 409.529 36.6612C409.528 36.1279 409.576 35.5611 409.675 34.9608ZM420.125 34.9571C420.174 34.657 420.198 34.3819 420.197 34.1319C420.195 33.3152 419.952 32.6742 419.467 32.2089C418.999 31.7435 418.399 31.5118 417.665 31.5138C416.815 31.5162 416.041 31.8266 415.343 32.4452C414.644 33.0471 414.205 33.8817 414.025 34.9488C413.975 35.249 413.951 35.524 413.952 35.774C413.954 36.5907 414.189 37.2401 414.657 37.7221C415.142 38.1875 415.742 38.4191 416.459 38.4172C417.309 38.4148 418.083 38.1044 418.782 37.4858C419.48 36.8672 419.928 36.0243 420.125 34.9571ZM436.889 38.6361L442.489 38.6208L441.923 41.8723L432.048 41.8994L435.099 24.341L439.374 24.3292L436.889 38.6361ZM450.337 42.0492C449.137 42.0525 448.07 41.8138 447.135 41.333C446.201 40.8522 445.474 40.1709 444.955 39.289C444.452 38.407 444.199 37.3827 444.196 36.2161C444.192 34.6327 444.563 33.19 445.309 31.888C446.056 30.5859 447.086 29.5664 448.401 28.8295C449.716 28.0759 451.181 27.6969 452.798 27.6924C453.998 27.6891 455.065 27.9362 456 28.4336C456.951 28.9144 457.686 29.5957 458.205 30.4776C458.725 31.3595 458.986 32.3838 458.989 33.5505C458.993 35.1504 458.614 36.6015 457.851 37.9036C457.104 39.189 456.065 40.2002 454.734 40.9372C453.42 41.6741 451.954 42.0448 450.337 42.0492ZM450.927 38.3726C451.627 38.3707 452.252 38.1606 452.8 37.7425C453.366 37.3076 453.798 36.7564 454.096 36.0889C454.411 35.4047 454.567 34.6959 454.565 33.9626C454.563 33.1293 454.336 32.4882 453.885 32.0395C453.434 31.5907 452.866 31.3672 452.183 31.3691C451.466 31.3711 450.834 31.5895 450.285 32.0243C449.753 32.4425 449.337 32.9936 449.039 33.6778C448.741 34.3619 448.593 35.079 448.595 35.829C448.597 36.6456 448.816 37.2784 449.25 37.7272C449.685 38.1593 450.244 38.3745 450.927 38.3726ZM465.491 27.8576L467.215 36.5779L471.941 27.8399L476.566 27.8272L464.248 48.4361L459.648 48.4487L464.078 41.3365L460.741 27.8706L465.491 27.8576ZM476.056 34.7786C476.302 33.3446 476.79 32.0849 477.521 30.9996C478.251 29.9143 479.132 29.0785 480.164 28.4923C481.196 27.9062 482.287 27.6115 483.437 27.6083C484.42 27.6056 485.245 27.8034 485.913 28.2016C486.581 28.5997 487.066 29.1234 487.368 29.7726L487.712 27.7966L491.987 27.7849L489.55 41.7416L485.275 41.7534L485.645 39.7773C485.113 40.4288 484.44 40.9556 483.624 41.3579C482.809 41.7601 481.909 41.9626 480.926 41.9653C479.943 41.968 479.067 41.7454 478.299 41.2975C477.548 40.8496 476.963 40.2178 476.544 39.4023C476.125 38.5701 475.914 37.5957 475.911 36.479C475.909 35.9457 475.958 35.3789 476.056 34.7786ZM486.506 34.775C486.555 34.4748 486.58 34.1997 486.579 33.9497C486.577 33.1331 486.333 32.4921 485.849 32.0267C485.381 31.5614 484.78 31.3297 484.047 31.3317C483.197 31.334 482.423 31.6445 481.724 32.2631C481.026 32.865 480.587 33.6995 480.406 34.7667C480.357 35.0668 480.333 35.3419 480.333 35.5919C480.336 36.4086 480.571 37.0579 481.039 37.54C481.523 38.0053 482.124 38.237 482.841 38.235C483.691 38.2327 484.465 37.9222 485.163 37.3036C485.861 36.6851 486.309 35.8422 486.506 34.775ZM500.142 23.2125L496.918 41.7214L492.643 41.7331L495.867 23.2242L500.142 23.2125ZM505.803 36.897C505.787 36.9804 505.778 37.0887 505.779 37.2221C505.78 37.5221 505.864 37.7385 506.031 37.8714C506.214 38.0042 506.506 38.0701 506.906 38.069L508.431 38.0648L507.791 41.6916L505.616 41.6975C502.816 41.7052 501.413 40.5341 501.406 38.1841C501.406 37.8341 501.446 37.3923 501.528 36.8587L502.513 31.306L500.813 31.3107L501.428 27.759L503.128 27.7543L503.719 24.3527L507.994 24.3409L507.403 27.7426L510.203 27.7349L509.588 31.2866L506.788 31.2943L505.803 36.897ZM515.005 26.2717C514.338 26.2735 513.805 26.1 513.404 25.7511C513.019 25.3855 512.826 24.9277 512.825 24.3777C512.823 23.6277 513.113 22.9852 513.695 22.4503C514.276 21.9154 514.984 21.6468 515.817 21.6445C516.484 21.6426 517.01 21.8245 517.394 22.1901C517.778 22.5391 517.971 22.9969 517.973 23.5636C517.975 24.2969 517.685 24.931 517.103 25.466C516.521 26.0009 515.822 26.2695 515.005 26.2717ZM516.859 27.7166L514.447 41.6733L510.172 41.685L512.584 27.7284L516.859 27.7166ZM530.295 37.6298L535.068 27.6667L539.643 27.6541L532.256 41.6244L526.956 41.639L524.443 27.6958L528.993 27.6833L530.295 37.6298ZM545.356 41.7885C544.156 41.7918 543.089 41.553 542.154 41.0723C541.22 40.5915 540.493 39.9102 539.974 39.0282C539.471 38.1463 539.219 37.122 539.215 35.9553C539.211 34.372 539.582 32.9293 540.328 31.6272C541.075 30.3252 542.105 29.3057 543.42 28.5688C544.735 27.8151 546.2 27.4361 547.817 27.4317C549.017 27.4284 550.084 27.6755 551.019 28.1729C551.97 28.6536 552.706 29.3349 553.225 30.2169C553.744 31.0988 554.005 32.1231 554.008 33.2897C554.012 34.8897 553.633 36.3408 552.87 37.6429C552.124 38.9282 551.085 39.9394 549.753 40.6764C548.439 41.4134 546.973 41.7841 545.356 41.7885ZM545.946 38.1119C546.646 38.1099 547.271 37.8999 547.82 37.4817C548.385 37.0468 548.817 36.4956 549.115 35.8282C549.43 35.144 549.586 34.4352 549.584 33.7019C549.582 32.8685 549.355 32.2275 548.904 31.7787C548.453 31.33 547.885 31.1065 547.202 31.1084C546.485 31.1103 545.853 31.3288 545.304 31.7636C544.772 32.1817 544.357 32.7329 544.058 33.417C543.76 34.1012 543.612 34.8182 543.614 35.5682C543.617 36.3849 543.835 37.0176 544.27 37.4665C544.704 37.8986 545.263 38.1137 545.946 38.1119ZM571.085 27.5678L568.674 41.5245L564.399 41.5362L564.719 39.6353C564.17 40.2535 563.497 40.7554 562.698 41.1409C561.915 41.5097 561.074 41.6954 560.174 41.6978C558.774 41.7017 557.673 41.313 556.871 40.5319C556.069 39.7341 555.666 38.6269 555.662 37.2102C555.66 36.6769 555.701 36.1934 555.783 35.7599L557.21 27.6059L561.46 27.5942L560.156 35.1729C560.107 35.4397 560.083 35.6981 560.083 35.9481C560.085 36.6481 560.278 37.1892 560.663 37.5715C561.064 37.937 561.614 38.1189 562.314 38.1169C563.114 38.1147 563.789 37.8796 564.337 37.4114C564.903 36.9265 565.276 36.2421 565.457 35.3583L566.81 27.5796L571.085 27.5678ZM572.125 34.54C572.371 33.0893 572.884 31.8212 573.665 30.7358C574.445 29.6503 575.41 28.8143 576.558 28.2278C577.723 27.6413 578.989 27.3461 580.356 27.3424C582.106 27.3376 583.49 27.7921 584.509 28.706C585.528 29.6199 586.074 30.91 586.145 32.5765L581.595 32.589C581.409 31.5229 580.757 30.9913 579.641 30.9944C578.857 30.9965 578.183 31.3067 577.618 31.9249C577.053 32.5265 576.672 33.3942 576.475 34.5281C576.41 34.8782 576.377 35.245 576.378 35.6283C576.38 36.4117 576.565 37.0112 576.933 37.4268C577.301 37.8425 577.802 38.0494 578.435 38.0477C579.535 38.0447 580.358 37.5091 580.906 36.4409L585.48 36.4284C584.835 38.0635 583.839 39.3495 582.491 40.2866C581.144 41.2236 579.603 41.6945 577.87 41.6993C576.07 41.7042 574.635 41.2165 573.566 40.2361C572.513 39.239 571.984 37.8821 571.98 36.1654C571.978 35.6487 572.027 35.1069 572.125 34.54ZM597.892 27.3443C599.259 27.3405 600.335 27.7292 601.121 28.5104C601.923 29.2916 602.326 30.3821 602.33 31.7821C602.331 32.2488 602.282 32.7489 602.184 33.2825L600.756 41.4365L596.506 41.4481L597.835 33.8695C597.884 33.586 597.909 33.3359 597.908 33.1192C597.906 32.4193 597.705 31.8781 597.304 31.4959C596.919 31.1136 596.377 30.9234 595.677 30.9254C594.844 30.9276 594.145 31.1879 593.579 31.7061C593.014 32.2243 592.649 32.9503 592.485 33.8841L592.485 33.8341L591.156 41.4628L586.881 41.4745L590.105 22.9656L594.38 22.9539L593.273 29.357C593.821 28.7388 594.495 28.2536 595.294 27.9014C596.093 27.5325 596.959 27.3468 597.892 27.3443ZM612.388 27.2545C614.188 27.2496 615.614 27.7373 616.667 28.7178C617.736 29.6815 618.273 31.005 618.278 32.6884C618.279 33.2383 618.239 33.7301 618.157 34.1637C618.091 34.5472 617.992 34.9558 617.86 35.3895L608.185 35.4161C608.169 35.5161 608.161 35.6745 608.162 35.8911C608.164 36.6245 608.365 37.1822 608.766 37.5645C609.167 37.9467 609.701 38.1369 610.368 38.1351C611.434 38.1322 612.25 37.6799 612.814 36.7784L617.364 36.7659C616.768 38.1842 615.796 39.3452 614.449 40.2489C613.101 41.1526 611.586 41.6067 609.902 41.6114C608.102 41.6163 606.659 41.1203 605.573 40.1232C604.504 39.1262 603.967 37.7693 603.962 36.0526C603.961 35.536 604.009 35.0025 604.108 34.4522C604.354 33.0016 604.867 31.7335 605.647 30.648C606.427 29.5625 607.4 28.7265 608.565 28.14C609.73 27.5535 611.005 27.2583 612.388 27.2545ZM613.954 33.2252C613.987 32.9918 614.003 32.8334 614.003 32.7501C614.001 32.0834 613.791 31.5757 613.374 31.2268C612.956 30.8613 612.406 30.6795 611.722 30.6813C610.989 30.6833 610.34 30.9101 609.774 31.3617C609.225 31.7965 608.827 32.4226 608.579 33.24L613.954 33.2252ZM625.376 29.9439C626.023 29.1088 626.763 28.4567 627.595 27.9878C628.444 27.5021 629.327 27.258 630.243 27.2555L629.456 31.7827L628.281 31.7859C627.214 31.7888 626.373 32.0245 625.758 32.4928C625.142 32.9445 624.736 33.7456 624.539 34.8962L623.407 41.3743L619.132 41.386L621.544 27.4294L625.819 27.4176L625.376 29.9439Z" fill="#FCB945"/>
<path fill-rule="evenodd" clip-rule="evenodd" d="M370.357 110.117V117.979H377.908V141.565H385.46V149.427H393.012V157.289H385.46V165.151H377.908V157.289H370.357V173.013H377.908V180.875H370.357V196.599H377.908V212.323H370.357V220.185H377.908V235.909H370.357V251.633H377.908V243.771H385.46V220.185H400.563V228.047H393.012V251.633H385.46V259.495H370.357V275.219H377.908V267.357H385.46V275.219H400.563V267.357H393.012V251.633H408.115V235.909H415.667V243.771H423.218V251.633H415.667V259.495H408.115V267.357H423.218V275.219H438.322V267.357H468.528V251.633H453.425V243.771H445.873V251.633H453.425V259.495H438.322V251.633H430.77V235.909H415.667V228.047H423.218V220.185H408.115V212.323H423.218V204.461H408.115V212.323H385.46V204.461H400.563V196.599H393.012V188.737H377.908V180.875H393.012V173.013H400.563V188.737H408.115V196.599H423.218V173.013H415.667V188.737H408.115V141.565H400.563V133.703H393.012V125.841H400.563V117.979H408.115V110.117H370.357ZM385.46 117.979V125.841H393.012V117.979H385.46ZM393.012 141.565V149.427H400.563V141.565H393.012ZM393.012 157.289V165.151H400.563V157.289H393.012ZM309.943 173.013V196.599H362.805V188.737H340.15V180.875H347.702V173.013H332.598V188.737H325.047V173.013H309.943ZM355.253 173.013V180.875H362.805V173.013H355.253ZM460.977 173.013V180.875H445.873V188.737H438.322V196.599H445.873V204.461H438.322V212.323H430.77V228.047H438.322V235.909H453.425V220.185H438.322V212.323H445.873V204.461H453.425V196.599H468.528V188.737H460.977V180.875H468.528V173.013H460.977ZM445.873 188.737V196.599H453.425V188.737H445.873ZM309.943 204.461V212.323H317.495V204.461H309.943ZM340.15 204.461V212.323H362.805V204.461H340.15ZM460.977 204.461V220.185H468.528V204.461H460.977ZM377.908 212.323V220.185H385.46V212.323H377.908ZM460.977 228.047V235.909H468.528V228.047H460.977ZM423.218 251.633V259.495H430.77V267.357H438.322V259.495H430.77V251.633H423.218ZM309.943 110.117V165.151H362.805V110.117H309.943ZM317.495 117.979V157.289H355.253V117.979H317.495ZM325.047 125.841V149.427H347.702V125.841H325.047ZM415.667 110.117V165.151H468.528V110.117H415.667ZM423.218 117.979V157.289H460.977V117.979H423.218ZM430.77 125.841V149.427H453.425V125.841H430.77ZM309.943 220.185V275.219H362.805V220.185H309.943ZM317.495 228.047V267.357H355.253V228.047H317.495ZM325.047 235.909V259.495H347.702V235.909H325.047Z" fill="white"/>
<path d="M493.308 181.132L496.194 199.674L505.488 181.099L511.858 181.081L498.87 205.687L491.38 205.707L486.938 181.15L493.308 181.132ZM521.777 205.869C519.701 205.875 517.868 205.448 516.279 204.589C514.713 203.73 513.497 202.52 512.629 200.959C511.761 199.398 511.325 197.603 511.319 195.573C511.311 192.703 511.923 190.146 513.153 187.903C514.384 185.636 516.094 183.87 518.284 182.604C520.497 181.337 523.003 180.701 525.803 180.693C527.903 180.687 529.748 181.114 531.337 181.973C532.926 182.808 534.154 184.007 535.022 185.568C535.889 187.105 536.326 188.877 536.331 190.884C536.339 193.754 535.728 196.334 534.498 198.624C533.267 200.891 531.545 202.669 529.332 203.958C527.119 205.224 524.601 205.861 521.777 205.869ZM522.672 200.337C524.212 200.332 525.564 199.932 526.729 199.135C527.893 198.339 528.789 197.275 529.415 195.943C530.065 194.588 530.387 193.129 530.383 191.565C530.379 189.885 529.908 188.568 528.972 187.614C528.036 186.66 526.728 186.185 525.048 186.19C523.508 186.194 522.145 186.595 520.957 187.391C519.792 188.188 518.885 189.252 518.235 190.584C517.609 191.892 517.298 193.34 517.302 194.926C517.307 196.606 517.777 197.935 518.713 198.912C519.649 199.867 520.969 200.341 522.672 200.337ZM547.754 180.983L545.204 195.655C545.112 196.262 545.067 196.682 545.068 196.915C545.071 197.988 545.376 198.816 545.984 199.398C546.593 199.956 547.492 200.233 548.682 200.23C550.082 200.226 551.224 199.827 552.108 199.031C552.993 198.235 553.561 197.102 553.814 195.631L556.364 180.959L562.349 180.943L559.799 195.615C559.408 197.832 558.62 199.713 557.435 201.256C556.272 202.776 554.84 203.912 553.139 204.663C551.461 205.414 549.63 205.793 547.647 205.798C545.08 205.805 543.002 205.146 541.412 203.82C539.845 202.494 539.058 200.572 539.051 198.052C539.049 197.305 539.116 196.511 539.254 195.671L541.769 180.999L547.754 180.983ZM563.435 193.19C563.849 190.762 564.741 188.601 566.112 186.707C567.507 184.79 569.23 183.304 571.28 182.248C573.331 181.169 575.546 180.626 577.926 180.62C580.842 180.612 583.201 181.375 585.002 182.91C586.826 184.445 587.859 186.543 588.099 189.202L581.519 189.22C581.213 188.218 580.651 187.461 579.833 186.95C579.038 186.415 578.058 186.15 576.891 186.153C575.048 186.158 573.451 186.804 572.101 188.091C570.751 189.355 569.893 191.049 569.525 193.173C569.41 193.827 569.354 194.398 569.355 194.888C569.359 196.522 569.818 197.816 570.731 198.77C571.643 199.724 572.893 200.199 574.479 200.194C575.623 200.191 576.684 199.92 577.662 199.381C578.664 198.841 579.502 198.069 580.176 197.064L586.756 197.046C585.596 199.709 583.841 201.814 581.488 203.36C579.136 204.883 576.501 205.649 573.584 205.657C571.484 205.663 569.652 205.259 568.086 204.447C566.521 203.635 565.316 202.483 564.472 200.992C563.627 199.501 563.203 197.764 563.197 195.78C563.195 194.894 563.274 194.03 563.435 193.19ZM614.492 180.8L610.219 205.381L604.234 205.398L605.991 195.208L596.681 195.233L594.924 205.423L588.939 205.44L593.212 180.858L599.197 180.841L597.508 190.506L606.818 190.481L608.507 180.816L614.492 180.8ZM623.97 185.499L623.109 190.611L631.124 190.589L630.331 195.106L622.316 195.128L621.352 200.626L630.416 200.601L629.589 205.328L614.54 205.369L618.812 180.788L633.862 180.746L633.035 185.474L623.97 185.499ZM647.793 180.708C650.336 180.701 652.274 181.279 653.607 182.442C654.94 183.582 655.61 185.073 655.615 186.917C655.616 187.453 655.571 187.955 655.479 188.422C655.203 190.056 654.496 191.516 653.356 192.803C652.216 194.089 650.69 195.004 648.778 195.545L652.76 205.265L646.005 205.283L642.515 196.018L641.08 196.022L639.46 205.301L633.475 205.318L637.748 180.736L647.793 180.708ZM649.354 188.684C649.4 188.31 649.423 188.065 649.422 187.949C649.42 187.202 649.174 186.631 648.683 186.236C648.215 185.817 647.514 185.609 646.581 185.611L642.871 185.622L641.803 191.785L645.513 191.774C646.61 191.771 647.472 191.501 648.101 190.962C648.753 190.424 649.17 189.664 649.354 188.684ZM696.505 180.574L692.232 205.156L686.247 205.173L688.832 190.431L680.752 205.188L675.922 205.201L672.942 190.404L670.392 205.216L664.407 205.233L668.68 180.651L675.75 180.631L679.717 197.631L689.47 180.594L696.505 180.574ZM705.967 185.274L705.106 190.386L713.121 190.364L712.328 194.881L704.313 194.903L703.348 200.401L712.413 200.376L711.586 205.103L696.536 205.144L700.809 180.563L715.859 180.521L715.032 185.249L705.967 185.274ZM747.569 180.434L743.297 205.016L737.312 205.033L739.896 190.29L731.817 205.048L726.987 205.061L724.006 190.264L721.457 205.076L715.472 205.093L719.744 180.511L726.814 180.491L730.781 197.49L740.534 180.454L747.569 180.434ZM769.811 186.743C769.558 188.191 768.966 189.394 768.035 190.353C767.105 191.312 765.987 191.981 764.681 192.357C765.848 192.611 766.772 193.18 767.451 194.065C768.13 194.95 768.471 195.987 768.474 197.177C768.475 197.55 768.441 197.912 768.372 198.262C768.028 200.317 767.029 201.953 765.376 203.171C763.722 204.365 761.612 204.966 759.046 204.973L747.601 205.004L751.873 180.423L762.933 180.392C765.15 180.386 766.866 180.836 768.082 181.743C769.298 182.65 769.908 183.908 769.912 185.518C769.913 185.915 769.879 186.323 769.811 186.743ZM760.02 190.375C761.024 190.372 761.828 190.149 762.434 189.704C763.039 189.259 763.411 188.616 763.548 187.776C763.571 187.635 763.582 187.449 763.582 187.215C763.58 186.539 763.357 186.026 762.913 185.677C762.468 185.305 761.814 185.12 760.951 185.123L757.031 185.133L756.135 190.386L760.02 190.375ZM762.42 197.474C762.466 197.194 762.489 196.983 762.488 196.843C762.486 196.167 762.24 195.642 761.749 195.27C761.258 194.875 760.581 194.679 759.717 194.681L755.377 194.693L754.412 200.226L758.822 200.214C759.849 200.211 760.665 199.975 761.271 199.507C761.876 199.038 762.259 198.361 762.42 197.474ZM780.102 185.07L779.241 190.182L787.256 190.16L786.464 194.678L778.449 194.7L777.484 200.197L786.549 200.172L785.722 204.9L770.672 204.941L774.944 180.359L789.994 180.318L789.167 185.045L780.102 185.07ZM803.925 180.28C806.468 180.273 808.406 180.851 809.74 182.014C811.073 183.153 811.742 184.645 811.747 186.488C811.748 187.025 811.703 187.527 811.611 187.994C811.335 189.628 810.628 191.088 809.488 192.374C808.348 193.661 806.822 194.575 804.91 195.117L808.892 204.836L802.137 204.855L798.647 195.589L797.212 195.593L795.592 204.873L789.607 204.889L793.88 180.307L803.925 180.28ZM805.487 188.255C805.532 187.882 805.555 187.637 805.555 187.52C805.553 186.774 805.306 186.203 804.815 185.807C804.347 185.389 803.647 185.18 802.713 185.183L799.003 185.193L797.935 191.356L801.645 191.346C802.742 191.343 803.604 191.072 804.233 190.534C804.885 189.995 805.303 189.236 805.487 188.255ZM822.205 205.045C819.545 205.052 817.373 204.486 815.69 203.348C814.03 202.185 813.197 200.543 813.192 198.419C813.191 198.209 813.213 197.894 813.259 197.474L819.489 197.457C819.421 198.344 819.633 199.043 820.125 199.555C820.616 200.067 821.364 200.322 822.367 200.319C823.277 200.317 823.988 200.116 824.5 199.718C825.036 199.32 825.303 198.759 825.301 198.036C825.299 197.289 824.959 196.684 824.281 196.219C823.626 195.754 822.598 195.232 821.196 194.652C819.841 194.096 818.732 193.574 817.867 193.086C817.026 192.575 816.289 191.889 815.656 191.028C815.024 190.166 814.706 189.082 814.702 187.775C814.675 186.165 815.067 184.764 815.881 183.572C816.694 182.38 817.823 181.467 819.268 180.833C820.713 180.199 822.369 179.879 824.236 179.874C825.916 179.869 827.41 180.134 828.718 180.667C830.026 181.176 831.043 181.932 831.769 182.933C832.495 183.911 832.86 185.077 832.864 186.43C832.865 186.78 832.854 187.037 832.831 187.2L826.461 187.218C826.484 187.124 826.495 186.984 826.495 186.798C826.493 186.144 826.258 185.62 825.79 185.225C825.346 184.806 824.727 184.598 823.934 184.6C823.094 184.602 822.406 184.814 821.87 185.235C821.358 185.634 821.103 186.183 821.105 186.883C821.107 187.583 821.435 188.177 822.09 188.665C822.744 189.13 823.761 189.675 825.139 190.302C826.518 190.928 827.639 191.508 828.504 192.042C829.392 192.577 830.153 193.298 830.785 194.206C831.418 195.091 831.736 196.187 831.739 197.493C831.743 198.94 831.362 200.236 830.595 201.382C829.828 202.527 828.722 203.428 827.277 204.086C825.832 204.72 824.141 205.039 822.205 205.045ZM859.764 180.126L855.491 204.708L849.507 204.725L851.264 194.535L841.954 194.56L840.197 204.75L834.212 204.767L838.484 180.185L844.469 180.168L842.781 189.833L852.091 189.808L853.779 180.143L859.764 180.126ZM870.07 180.098L865.797 204.68L859.812 204.696L864.085 180.115L870.07 180.098ZM891.753 187.949C891.524 189.373 890.979 190.681 890.119 191.873C889.259 193.042 888.083 193.99 886.592 194.718C885.124 195.445 883.387 195.812 881.38 195.817L877.67 195.827L876.119 204.652L870.134 204.668L874.407 180.086L884.102 180.06C886.668 180.053 888.607 180.619 889.916 181.759C891.226 182.875 891.884 184.402 891.889 186.338C891.891 186.922 891.845 187.458 891.753 187.949ZM881.717 191.126C883.957 191.12 885.273 190.067 885.664 187.965C885.709 187.592 885.732 187.324 885.731 187.16C885.729 186.414 885.483 185.843 884.992 185.447C884.524 185.029 883.8 184.821 882.82 184.823L879.565 184.832L878.497 191.135L881.717 191.126Z" fill="#FCB945"/>
<path d="M0 10C0 4.47716 4.47715 0 10 0H297.922V405.233H9.99998C4.47714 405.233 0 400.756 0 395.233V10Z" fill="#FCB945"/>
<g filter="url(#filter0_d_2261_8552)">
<path fill-rule="evenodd" clip-rule="evenodd" d="M88.2726 98.0168C89.1172 98.9823 90.3925 105.987 91.4202 109.143C92.5021 112.465 93.9776 115.994 95.626 118.837C97.5287 122.116 101.836 128.564 104.448 130.898C107.999 134.077 107.026 133.698 111.784 137.503C115.169 140.209 120.871 143.499 125.073 145.186C144.244 152.887 164.425 151.279 181.767 140.529C194.815 132.446 204.329 119.116 207.961 104.076L209.064 99.0189C209.43 98.1533 209.152 98.5761 209.654 98.0035C210.434 64.5297 182.479 37.3778 148.962 37.3745C115.6 37.3712 87.2958 64.7228 88.2726 98.0168Z" fill="#FFBA57"/>
<path fill-rule="evenodd" clip-rule="evenodd" d="M79.1345 66.2079C82.0345 60.5618 82.4517 59.6662 86.1148 54.3664C88.5399 50.8542 91.8096 47.2255 94.8317 44.2327L105.326 35.8401C111.322 31.9418 111.092 32.1914 117.492 29.0921C135.794 20.2301 162.898 20.7428 180.423 29.0987C188.896 33.1369 196.269 37.4813 203.09 44.2327C216.593 57.5989 225.961 76.5912 225.961 96.0596C225.049 98.1669 225.106 101.642 224.631 104.196C214.29 159.801 144.874 188.188 95.917 145.356C93.1358 142.923 89.6965 138.898 87.2544 135.569C71.8253 114.536 73.7077 100.394 71.9609 96.3859C71.9609 85.5498 75.3798 73.5218 79.1345 66.2079ZM93.77 122.686C106.713 151.735 142.466 165.85 173.897 152.314C177.303 150.846 180.677 148.975 183.438 147.044C192.538 140.682 199.617 132.753 204.145 122.676C208.303 113.424 208.609 108.71 209.653 98.0038C210.433 64.53 182.478 37.3781 148.961 37.3748C115.599 37.3715 87.2951 64.7231 88.272 98.0171C89.2624 108.697 89.6931 113.537 93.77 122.686Z" fill="#FFE179"/>
<path fill-rule="evenodd" clip-rule="evenodd" d="M145.65 182.972C135.766 182.379 127.663 180.881 119.153 177.812C113.798 175.881 101.866 170.311 98.9792 167.249C97.9617 168.397 93.0741 182.892 92.4026 184.876C91.151 188.565 81.6099 212.86 82.5223 214.947C83.377 216.902 87.3149 215.85 89.004 215.673C91.7649 215.38 93.8305 215.34 96.5643 214.967C99.2675 214.598 101.353 214.528 104.009 214.145C110.413 213.223 110.613 215.55 118.845 223.63C122.664 227.378 124.743 230.637 128.26 230.637C131.605 225.737 134.766 213.106 137.249 206.951L143.639 188.844C144.164 187.463 145.453 184.61 145.65 182.972Z" fill="#482380"/>
<path fill-rule="evenodd" clip-rule="evenodd" d="M152.271 182.972L168.145 228.061C168.837 230.021 168.722 229.262 169.661 230.637C173.168 230.637 175.01 227.621 178.873 223.833C181.732 221.026 184.317 218.526 187.139 215.693C188.855 213.972 189.608 213.626 193.193 214.035C195.571 214.305 197.938 214.605 200.672 214.824C221.121 216.489 218.028 221.849 205.624 185.179L198.942 167.249C196.114 170.318 183.89 175.971 178.486 177.932C170.394 180.874 161.612 182.412 152.271 182.972Z" fill="#482380"/>
<path fill-rule="evenodd" clip-rule="evenodd" d="M71.9609 96.3858C71.9609 118.065 78.1136 131.917 89.9339 146.765C92.1284 149.521 99.0001 155.796 101.768 157.99C103.701 158.749 110.084 164.505 122.071 168.86C144.915 177.162 171.052 174.509 191.209 161.186C192.562 160.291 194.902 158.49 196.154 158C196.853 157.438 197.09 157.148 197.758 156.625L202.31 152.567C207.218 148.745 214.558 138.492 217.271 133.122C222.813 122.149 225.961 112.499 225.961 96.0596C225.049 98.1669 225.106 101.642 224.631 104.196C214.29 159.801 144.874 188.188 95.917 145.356C93.1358 142.923 89.6965 138.898 87.2544 135.569C71.8253 114.536 73.7077 100.394 71.9609 96.3858Z" fill="#F9CE58"/>
<path fill-rule="evenodd" clip-rule="evenodd" d="M98.9804 167.248C101.867 170.311 113.799 175.881 119.155 177.812C127.665 180.881 135.768 182.379 145.651 182.972C146.458 181.307 148.402 176.28 148.548 174.562H149.375C149.521 176.28 151.465 181.307 152.272 182.972C161.613 182.412 170.394 180.874 178.487 177.931C183.89 175.971 196.114 170.318 198.943 167.248C199.024 164.409 196.44 161.013 196.155 158C194.903 158.49 192.563 160.291 191.209 161.186C171.052 174.509 144.915 177.166 122.072 168.86C110.085 164.505 103.702 158.749 101.768 157.99C101.487 161.016 98.899 164.405 98.9804 167.248Z" fill="#351B5C"/>
<path fill-rule="evenodd" clip-rule="evenodd" d="M209.653 98.0039C209.151 98.5765 209.429 98.1537 209.063 99.0193L207.96 104.076C204.328 119.117 194.814 132.446 181.766 140.529C164.424 151.279 144.243 152.887 125.072 145.187C120.87 143.499 115.172 140.21 111.783 137.503C107.025 133.698 107.998 134.078 104.447 130.898C101.835 128.565 97.5276 122.116 95.6248 118.837C93.9764 115.994 92.501 112.465 91.4191 109.143C90.3913 105.987 89.116 98.9827 88.2715 98.0172C89.2619 108.697 89.6926 113.537 93.7695 122.686C106.713 151.735 142.465 165.85 173.897 152.314C177.302 150.846 180.677 148.975 183.438 147.044C192.538 140.683 199.617 132.753 204.145 122.676C208.303 113.424 208.608 108.71 209.653 98.0039Z" fill="#FFAC3E"/>
<path d="M164.502 93.2529C167.531 90.2767 171.18 88.8153 175.495 88.8153C179.812 88.8153 183.459 90.2767 186.491 93.2529C189.523 96.2291 191.012 99.7579 191.012 103.893C191.012 108.027 189.523 111.559 186.491 114.532C183.459 117.459 179.812 118.97 175.495 118.97C171.18 118.97 167.531 117.459 164.502 114.532L153.865 103.69L164.502 93.2529ZM138.402 86.2952C135.373 83.319 133.881 79.7902 133.881 75.6555C133.881 71.5208 135.373 67.9886 138.402 65.0158C141.434 62.0895 145.03 60.5781 149.242 60.5781C153.455 60.5781 157.054 62.0895 160.086 65.0158C163.064 67.9886 164.607 71.5208 164.607 75.6555C164.607 79.7902 163.064 83.319 160.086 86.2952L149.398 97.0847L138.402 86.2952ZM133.111 114.536C130.079 117.462 126.484 118.973 122.268 118.973C118.109 118.973 114.46 117.462 111.427 114.536C108.45 111.563 106.906 108.031 106.906 103.896C106.906 99.7613 108.45 96.2325 111.427 93.2563C114.46 90.2801 118.109 88.8186 122.268 88.8186C126.484 88.8186 130.079 90.2801 133.111 93.2563L144.104 104.046L133.111 114.536Z" fill="#FFF0B5"/>
<path d="M154.11 123.807L155.158 126.99L158.566 126.983L155.806 128.944L156.864 132.123L154.11 130.152L151.356 132.123L152.417 128.944L149.656 126.983L153.065 126.99L154.11 123.807Z" fill="#FFF0B5"/>
<path d="M142.486 123.807L143.534 126.99L146.939 126.983L144.179 128.944L145.24 132.123L142.486 130.152L139.732 132.123L140.79 128.944L138.029 126.983L141.438 126.99L142.486 123.807Z" fill="#FFF0B5"/>
</g>
<g filter="url(#filter1_d_2261_8552)">
<path d="M0 270.513C16.9951 277.814 21.5821 327.891 50.4241 338.043C114.373 360.551 92.553 301.236 190.386 331.58C278.364 372.189 255.56 284.48 297.922 270.513V405.233H9.99998C4.47714 405.233 0 400.756 0 395.233V270.513Z" fill="#7858A1"/>
</g>
<defs>
<filter id="filter0_d_2261_8552" x="67.9609" y="22.6372" width="162" height="216" filterUnits="userSpaceOnUse" color-interpolation-filters="sRGB">
<feFlood flood-opacity="0" result="BackgroundImageFix"/>
<feColorMatrix in="SourceAlpha" type="matrix" values="0 0 0 0 0 0 0 0 0 0 0 0 0 0 0 0 0 0 127 0" result="hardAlpha"/>
<feOffset dy="4"/>
<feGaussianBlur stdDeviation="2"/>
<feComposite in2="hardAlpha" operator="out"/>
<feColorMatrix type="matrix" values="0 0 0 0 0 0 0 0 0 0 0 0 0 0 0 0 0 0 0.25 0"/>
<feBlend mode="normal" in2="BackgroundImageFix" result="effect1_dropShadow_2261_8552"/>
<feBlend mode="normal" in="SourceGraphic" in2="effect1_dropShadow_2261_8552" result="shape"/>
</filter>
<filter id="filter1_d_2261_8552" x="0" y="255.513" width="297.922" height="149.721" filterUnits="userSpaceOnUse" color-interpolation-filters="sRGB">
<feFlood flood-opacity="0" result="BackgroundImageFix"/>
<feColorMatrix in="SourceAlpha" type="matrix" values="0 0 0 0 0 0 0 0 0 0 0 0 0 0 0 0 0 0 127 0" result="hardAlpha"/>
<feOffset dy="-15"/>
<feComposite in2="hardAlpha" operator="out"/>
<feColorMatrix type="matrix" values="0 0 0 0 0.529167 0 0 0 0 0.395971 0 0 0 0 0.165365 0 0 0 1 0"/>
<feBlend mode="normal" in2="BackgroundImageFix" result="effect1_dropShadow_2261_8552"/>
<feBlend mode="normal" in="SourceGraphic" in2="effect1_dropShadow_2261_8552" result="shape"/>
</filter>
</defs>
</svg>
