<svg width="121" height="116" viewBox="0 0 121 116" fill="none" xmlns="http://www.w3.org/2000/svg">
<path d="M117.515 57.7231C117.515 87.8342 92.0764 112.446 60.4413 112.446C28.8061 112.446 3.36719 87.8342 3.36719 57.7231C3.36719 27.6121 28.8061 3 60.4413 3C92.0764 3 117.515 27.6121 117.515 57.7231Z" stroke="#FCB945" stroke-width="6"/>
<g clip-path="url(#clip0_2319_8621)">
<path d="M86.0521 34.2837H52.5521C49.4813 34.2837 46.9688 36.6087 46.9688 39.4504V44.617C37.7563 44.617 30.2188 51.592 30.2188 60.117V75.617H35.8021C35.8021 79.8976 39.5513 83.367 44.1771 83.367C48.8029 83.367 52.5521 79.8976 52.5521 75.617H63.7188C63.7188 79.8976 67.468 83.367 72.0938 83.367C76.7195 83.367 80.4688 79.8976 80.4688 75.617H86.0521C89.1229 75.617 91.6354 73.292 91.6354 70.4504V39.4504C91.6354 36.6087 89.1229 34.2837 86.0521 34.2837ZM44.1771 78.2004C42.6375 78.2004 41.3854 77.0417 41.3854 75.617C41.3854 74.1923 42.6375 73.0337 44.1771 73.0337C45.7167 73.0337 46.9688 74.1923 46.9688 75.617C46.9688 77.0417 45.7167 78.2004 44.1771 78.2004ZM46.9688 68.3178C46.095 68.0311 45.157 67.867 44.1771 67.867C41.6995 67.867 39.4801 68.8681 37.9475 70.4504H35.8021V62.7004H46.9688V68.3178ZM46.9688 57.5337H36.1692C37.4143 53.0839 41.7762 49.7837 46.9688 49.7837V57.5337ZM72.0938 78.2004C70.5541 78.2004 69.3021 77.0417 69.3021 75.617C69.3021 74.1923 70.5541 73.0337 72.0938 73.0337C73.6334 73.0337 74.8854 74.1923 74.8854 75.617C74.8854 77.0417 73.6334 78.2004 72.0938 78.2004ZM86.0521 70.4504H78.3234C76.7893 68.8681 74.5714 67.867 72.0938 67.867C69.6161 67.867 67.3968 68.8681 65.8641 70.4504H52.5521V39.4504H86.0521V70.4504Z" fill="#FCB945"/>
</g>
<defs>
<clipPath id="clip0_2319_8621">
<rect width="67" height="62" fill="white" transform="translate(27.4277 26.5337)"/>
</clipPath>
</defs>
</svg>
