<svg width="112" height="67" viewBox="0 0 112 67" fill="none" xmlns="http://www.w3.org/2000/svg">
<path fill-rule="evenodd" clip-rule="evenodd" d="M17.1858 19.0827C17.1858 17.4005 18.493 17.3672 18.493 19.2411C18.493 20.3358 17.1858 20.7702 17.1858 19.0827ZM14.1357 19.2411C14.1357 17.2976 15.4429 17.4345 15.4429 19.0827C15.4429 20.7702 14.1357 20.3358 14.1357 19.2411ZM11.0854 19.0827C11.0854 17.4786 12.3928 17.2869 12.3928 19.0827C12.3928 20.6869 11.0854 20.4779 11.0854 19.0827ZM7.51239 17.3428C7.51239 19.8682 7.24174 23.7576 8.90659 24.4617C8.90659 26.2131 8.63941 29.208 9.604 29.208C9.93151 29.208 10.1263 28.9139 10.3234 28.6157C10.5301 28.3034 10.697 28.0563 10.8998 27.7633L12.6987 25.1754C13.0493 24.6781 12.9419 24.761 13.5213 24.7702L19.9781 24.7843C22.4219 24.6829 22.0662 20.0051 22.0662 17.1844C22.0662 14.9232 21.1332 13.2295 19.8874 13.2295H9.69122C8.41808 13.2295 7.51239 15.0216 7.51239 17.3428Z" fill="#493169"/>
<path fill-rule="evenodd" clip-rule="evenodd" d="M20.8578 31.0902C20.8578 30.3455 21.3139 30.0732 21.5623 30.4983C21.6669 30.6773 21.8896 31.7776 21.1822 31.7776C21.0294 31.7776 20.8578 31.3681 20.8578 31.0902ZM18.9647 31.0902C18.9647 30.1598 19.776 29.8767 19.776 31.0902C19.776 32.1517 18.9647 31.8716 18.9647 31.0902ZM17.5042 31.7776C17.3718 31.7776 17.3021 31.7258 17.2208 31.6048C16.921 31.1613 17.1013 30.3048 17.5042 30.3048C18.0427 30.3048 18.0614 31.7776 17.5042 31.7776ZM14.8538 30.4032C14.8538 32.0973 14.8053 34.2653 15.9472 34.6042C16.3363 34.7192 19.2054 34.6338 19.9927 34.6245C20.8348 34.6142 20.7488 35.0511 21.7305 36.3789C22.1517 36.9483 22.4886 37.7592 22.8938 37.1429C23.1114 36.8125 23.0211 35.3293 23.0211 34.5268C24.1062 33.4846 23.8865 32.2242 23.8865 29.7158C23.8865 28.5726 23.2722 27.4575 22.6425 27.4575H16.2062C15.2565 27.4575 14.8538 28.8138 14.8538 30.4032Z" fill="#493169"/>
<path fill-rule="evenodd" clip-rule="evenodd" d="M18.1308 65.785H32.9457C33.3607 65.785 33.7116 65.4632 33.9603 65.0958C35.0873 63.4306 33.9081 58.5193 33.5272 57.1363C33.0004 55.2232 32.4837 54.1215 31.7042 52.6934C31.2683 51.895 29.7693 49.74 29.1016 49.6996C28.4896 49.6623 26.5099 52.2132 23.3269 50.4988C22.0185 49.794 22.0033 48.8054 19.9092 51.7696C19.4313 52.4463 19.0302 53.2291 18.6324 54.0397C17.9564 55.4164 17.1817 57.9787 16.8913 60.055C16.7582 61.0069 16.4841 62.8416 16.6614 63.8571C16.8438 64.9016 17.3601 65.785 18.1308 65.785Z" fill="#493169"/>
<path fill-rule="evenodd" clip-rule="evenodd" d="M21.0684 43.2193C21.0684 46.0733 21.8151 48.5298 23.2034 49.7851C24.0646 50.5639 24.4396 50.497 25.3386 50.497C27.1357 50.497 28.9116 47.0563 28.9116 43.536C28.9116 39.4771 27.1681 36.4859 25.0645 36.2795C23.1443 36.0912 21.0684 39.247 21.0684 43.2193Z" fill="#493169"/>
<path fill-rule="evenodd" clip-rule="evenodd" d="M0.828125 63.005C0.828125 64.8722 1.61724 66.1072 2.537 66.1072H19.6265C20.446 66.1072 21.0666 65.1971 21.2959 64.0232C21.8204 61.3357 20.2277 55.0729 19.0946 52.6563C18.6609 51.7314 18.1424 50.771 17.6319 50.0196C17.2058 49.3925 16.3957 48.3443 15.877 47.9119C14.5358 46.7934 14.2733 49.1357 10.9813 49.1357C8.78859 49.1357 7.71089 47.6003 7.04915 47.5523C5.63131 47.4498 2.79807 52.7314 1.89991 56.0086C1.39755 57.8414 0.828125 60.3653 0.828125 63.005Z" fill="#FBB636"/>
<path fill-rule="evenodd" clip-rule="evenodd" d="M5.92969 40.4361C5.92969 44.6408 8.04657 48.4655 10.1518 48.4655C11.8124 48.4655 12.7884 47.9094 13.9044 45.6057C15.8856 41.5157 15.0151 34.8333 12.2514 32.7919C8.96408 30.363 5.92969 34.8248 5.92969 40.4361Z" fill="#FBB636"/>
<path d="M39.3904 14.9315C41.6135 14.9315 43.3419 15.9179 44.5759 17.8902C45.8101 19.8625 46.4289 22.5325 46.4323 25.9007H41.8943C41.7123 24.7475 41.3475 23.8296 40.7993 23.147C40.2513 22.4641 39.5426 22.123 38.6736 22.123C37.3198 22.123 36.1479 22.9498 35.1583 24.6036C34.1686 26.257 33.5285 28.4949 33.2372 31.3166C32.9212 34.3814 33.1091 36.7329 33.8008 38.3715C34.4925 40.0101 35.6323 40.8292 37.2203 40.8292C38.2397 40.8292 39.1864 40.3212 40.0603 39.3046C40.934 38.2883 41.6267 36.8391 42.1385 34.9582H36.7229L37.3002 29.3595H46.3011L45.5077 37.0515C44.9795 38.9328 44.2645 40.6775 43.3631 42.2858C42.4617 43.894 41.387 45.1985 40.1388 46.2C38.8905 47.2012 37.5309 47.7021 36.0599 47.7021C34.2715 47.7021 32.7799 47.0117 31.585 45.631C30.3904 44.2503 29.5576 42.3161 29.0872 39.8281C28.6169 37.3401 28.546 34.5028 28.8747 31.3166C29.2034 28.1308 29.8595 25.2939 30.8434 22.8055C31.8272 20.3175 33.0544 18.3833 34.5259 17.0026C35.9971 15.6219 37.6186 14.9315 39.3904 14.9315ZM54.7692 47.4291L52.1869 35.2768H51.209L49.9553 47.4291H45.6681L48.9876 15.2501H56.3085C57.7127 15.2501 58.854 15.69 59.7326 16.5701C60.6114 17.4499 61.214 18.6564 61.5407 20.1884C61.8674 21.7208 61.929 23.4733 61.7254 25.4456C61.4845 27.782 60.9242 29.7694 60.0448 31.408C59.1654 33.0462 58.0176 34.1691 56.601 34.7758L59.5078 47.4291H54.7692ZM51.7583 29.9514H54.4158C55.2683 29.9514 55.9305 29.61 56.4021 28.9274C56.8735 28.2448 57.1784 27.2355 57.3159 25.9007C57.4476 24.6261 57.3459 23.6246 57.0117 22.8966C56.6772 22.1685 56.0921 21.804 55.2563 21.804H52.5988L51.7583 29.9514ZM72.0253 41.5577H65.3812L63.6721 47.4291H59.1593L68.9489 15.4776H73.8882L77.0859 47.4291H72.5228L72.0253 41.5577ZM71.5325 35.6404L70.5467 23.8067L67.0945 35.6404H71.5325ZM93.6206 15.2501L92.9821 21.4404H88.1684L85.4873 47.4291H81.1749L83.8557 21.4404H79.0921L79.7306 15.2501H93.6206ZM98.5371 15.2501L95.2176 47.4291H90.9303L94.2498 15.2501H98.5371ZM110.671 38.3715C110.496 40.0708 110.097 41.6335 109.473 43.0594C108.849 44.4856 108.03 45.6236 107.015 46.4731C105.999 47.3229 104.832 47.7476 103.511 47.7476C101.522 47.7476 99.9745 46.8674 98.8693 45.1079C97.7637 43.3479 97.3151 40.8903 97.5236 37.7344H102.087C102.028 38.9479 102.168 39.9039 102.506 40.6017C102.843 41.2994 103.33 41.6483 103.965 41.6483C104.516 41.6483 104.979 41.3757 105.353 40.8292C105.727 40.2831 105.961 39.555 106.055 38.6446C106.139 37.8255 106.063 37.1425 105.827 36.5964C105.591 36.0504 105.274 35.6027 104.875 35.2538C104.477 34.9049 103.918 34.4876 103.199 34.0022C102.151 33.3045 101.306 32.6293 100.662 31.9766C100.019 31.3244 99.5095 30.3536 99.1326 29.0639C98.7558 27.7742 98.6739 26.0979 98.8869 24.0346C99.0839 22.123 99.5219 20.4692 100.201 19.0733C100.88 17.6778 101.73 16.6079 102.751 15.8646C103.772 15.1213 104.892 14.7495 106.113 14.7495C108.085 14.7495 109.564 15.5993 110.551 17.2982C111.537 18.9975 111.952 21.3342 111.796 24.3076H107.158C107.183 23.2454 107.057 22.4034 106.779 21.7815C106.5 21.1596 106.069 20.8484 105.483 20.8484C104.982 20.8484 104.552 21.0911 104.192 21.5769C103.833 22.0623 103.605 22.7752 103.508 23.716C103.43 24.4745 103.501 25.1193 103.722 25.6502C103.943 26.1811 104.245 26.6136 104.629 26.9473C105.012 27.281 105.57 27.7057 106.303 28.2219C107.367 28.9196 108.224 29.61 108.872 30.2926C109.52 30.9755 110.036 31.9692 110.42 33.2741C110.803 34.5786 110.887 36.2779 110.671 38.3715Z" fill="#493169"/>
<path d="M39.7605 56.8478L42.4774 65.0382H39.8905L37.6328 57.8464L36.891 65.0382H34.7539L36.4086 48.9979H38.5456L37.8179 56.0539L41.5702 48.9979H44.132L39.7605 56.8478ZM49.085 48.7485C49.9181 48.7485 50.638 49.1 51.2445 49.8037C51.851 50.507 52.2857 51.4826 52.5484 52.7301C52.8115 53.978 52.8616 55.3887 52.6994 56.9614C52.5372 58.5345 52.1934 59.9485 51.6682 61.2042C51.1428 62.4595 50.5043 63.4392 49.7528 64.1421C49.0012 64.8454 48.2131 65.1973 47.3883 65.1973C46.5634 65.1973 45.8476 64.8454 45.2411 64.1421C44.6346 63.4392 44.1982 62.4595 43.9321 61.2042C43.6657 59.9485 43.6137 58.5345 43.776 56.9614C43.9382 55.3887 44.2816 53.978 44.8062 52.7301C45.3306 51.4826 45.9685 50.507 46.7203 49.8037C47.4719 49.1 48.26 48.7485 49.085 48.7485ZM48.7128 52.3561C48.013 52.3561 47.4144 52.7679 46.9168 53.5925C46.4195 54.4168 46.0973 55.5396 45.9507 56.9614C45.8056 58.368 45.8963 59.4876 46.2228 60.3192C46.5497 61.1513 47.0629 61.5671 47.7627 61.5671C48.454 61.5671 49.0512 61.1513 49.5535 60.3192C50.0559 59.4876 50.3797 58.368 50.5248 56.9614C50.67 55.5548 50.5793 54.4357 50.2524 53.6036C49.9261 52.7716 49.4127 52.3561 48.7128 52.3561ZM60.7426 65.0382H58.6054L56.047 55.1915L55.0311 65.0382H52.894L54.5487 48.9979H56.6858L59.2349 58.9356L60.26 48.9979H62.3973L60.7426 65.0382ZM68.86 60.5235C68.7726 61.3703 68.5735 62.1495 68.2627 62.8602C67.9519 63.5713 67.5435 64.1384 67.0372 64.5617C66.531 64.9853 65.9491 65.1973 65.2908 65.1973C64.2993 65.1973 63.528 64.7585 62.9769 63.8809C62.4258 63.0041 62.2024 61.7788 62.3064 60.206H64.581C64.5517 60.8109 64.6216 61.2871 64.7897 61.6352C64.9578 61.983 65.2004 62.1569 65.5169 62.1569C65.7918 62.1569 66.0225 62.0207 66.209 61.7484C66.3954 61.4765 66.512 61.1132 66.5587 60.6596C66.6009 60.2512 66.5632 59.9108 66.4454 59.6389C66.3276 59.3662 66.1694 59.1431 65.9707 58.9692C65.772 58.7957 65.4936 58.5874 65.1353 58.3455C64.613 57.9973 64.1915 57.661 63.871 57.3358C63.5502 57.0106 63.2962 56.5267 63.1083 55.8837C62.9206 55.2407 62.8797 54.4053 62.9856 53.3768C63.0839 52.4238 63.3024 51.5999 63.6409 50.904C63.9792 50.2081 64.4029 49.6749 64.912 49.3042C65.4209 48.9339 65.9795 48.7485 66.5876 48.7485C67.571 48.7485 68.3083 49.1721 68.7999 50.019C69.2917 50.8662 69.4983 52.0305 69.4205 53.513H67.1083C67.1214 52.9835 67.0584 52.5636 66.9196 52.2536C66.7808 51.9436 66.5656 51.7889 66.274 51.7889C66.0241 51.7889 65.8095 51.9099 65.6304 52.1515C65.4514 52.3938 65.3377 52.7494 65.2892 53.2181C65.2503 53.5962 65.2859 53.9173 65.396 54.1822C65.5061 54.4471 65.6569 54.6625 65.8478 54.8289C66.039 54.9954 66.317 55.207 66.6822 55.4642C67.2131 55.8119 67.6399 56.156 67.9631 56.4964C68.2861 56.8368 68.5433 57.3318 68.7347 57.9825C68.9258 58.6329 68.9676 59.4798 68.86 60.5235ZM73.1386 48.9979L72.1838 58.2548C72.0746 59.3137 72.1222 60.1228 72.3271 60.6826C72.5317 61.2419 72.8841 61.5216 73.384 61.5216C73.8839 61.5216 74.294 61.2419 74.6141 60.6826C74.9341 60.1228 75.1489 59.3137 75.2581 58.2548L76.2129 48.9979H78.3502L77.3952 58.2548C77.2395 59.7673 76.9454 61.0414 76.5138 62.0777C76.0819 63.1136 75.5577 63.8928 74.9416 64.4144C74.3253 64.9361 73.663 65.1973 72.9548 65.1973C72.2466 65.1973 71.6482 64.9401 71.1597 64.4255C70.6712 63.9116 70.3266 63.1325 70.126 62.0888C69.9253 61.0451 69.9033 59.7673 70.0592 58.2548L71.014 48.9979H73.1386ZM80.3919 62.0662H83.2414L82.9349 65.0382H77.9483L79.603 48.9979H81.74L80.3919 62.0662ZM91.7536 48.9979L91.4355 52.0838H89.0359L87.6994 65.0382H85.5499L86.886 52.0838H84.5115L84.8299 48.9979H91.7536ZM96.6026 62.1114H93.2909L92.439 65.0382H90.1894L95.0692 49.1118H97.5311L99.1253 65.0382H96.8507L96.6026 62.1114ZM96.3568 59.1624L95.8657 53.2632L94.1448 59.1624H96.3568ZM106.593 60.5235C106.505 61.3703 106.306 62.1495 105.995 62.8602C105.685 63.5713 105.276 64.1384 104.77 64.5617C104.264 64.9853 103.682 65.1973 103.024 65.1973C102.032 65.1973 101.261 64.7585 100.71 63.8809C100.159 63.0041 99.9352 61.7788 100.039 60.206H102.314C102.285 60.8109 102.354 61.2871 102.522 61.6352C102.691 61.983 102.933 62.1569 103.25 62.1569C103.525 62.1569 103.755 62.0207 103.942 61.7484C104.128 61.4765 104.245 61.1132 104.292 60.6596C104.334 60.2512 104.296 59.9108 104.178 59.6389C104.061 59.3662 103.902 59.1431 103.704 58.9692C103.505 58.7957 103.226 58.5874 102.868 58.3455C102.346 57.9973 101.924 57.661 101.604 57.3358C101.283 57.0106 101.029 56.5267 100.841 55.8837C100.653 55.2407 100.612 54.4053 100.718 53.3768C100.817 52.4238 101.035 51.5999 101.374 50.904C101.712 50.2081 102.136 49.6749 102.645 49.3042C103.153 48.9339 103.712 48.7485 104.32 48.7485C105.304 48.7485 106.041 49.1721 106.533 50.019C107.024 50.8662 107.231 52.0305 107.153 53.513H104.841C104.854 52.9835 104.791 52.5636 104.653 52.2536C104.514 51.9436 104.298 51.7889 104.007 51.7889C103.757 51.7889 103.542 51.9099 103.363 52.1515C103.184 52.3938 103.07 52.7494 103.022 53.2181C102.983 53.5962 103.019 53.9173 103.129 54.1822C103.239 54.4471 103.39 54.6625 103.581 54.8289C103.772 54.9954 104.05 55.207 104.415 55.4642C104.946 55.8119 105.373 56.156 105.696 56.4964C106.019 56.8368 106.276 57.3318 106.467 57.9825C106.659 58.6329 106.7 59.4798 106.593 60.5235ZM110.934 48.9979L109.279 65.0382H107.142L108.797 48.9979H110.934Z" fill="#FBB636"/>
<path d="M91.8507 7.05478C92.199 6.4225 92.6185 6.11136 93.1143 6.11136C93.6106 6.11136 94.0298 6.4225 94.3783 7.05478C94.7266 7.68742 94.898 8.43771 94.898 9.31676C94.898 10.1962 94.7266 10.9461 94.3783 11.5787C94.0298 12.2006 93.6106 12.5221 93.1143 12.5221C92.6185 12.5221 92.199 12.2006 91.8507 11.5787L90.6283 9.27384L91.8507 7.05478ZM88.8508 5.57565C88.5023 4.94264 88.3311 4.19234 88.3311 3.3133C88.3311 2.43426 88.5023 1.68397 88.8508 1.05133C89.1991 0.429411 89.6126 0.10791 90.0968 0.10791C90.5809 0.10791 90.9944 0.429411 91.3427 1.05133C91.6855 1.68397 91.8626 2.43426 91.8626 3.3133C91.8626 4.19234 91.6855 4.94264 91.3427 5.57565L90.1146 7.86944L88.8508 5.57565ZM88.2424 11.5787C87.8939 12.2006 87.4806 12.5221 86.9964 12.5221C86.5181 12.5221 86.0989 12.2006 85.7502 11.5787C85.4078 10.9461 85.2305 10.1962 85.2305 9.31676C85.2305 8.43771 85.4078 7.68742 85.7502 7.05478C86.0989 6.4225 86.5181 6.11136 86.9964 6.11136C87.4806 6.11136 87.8939 6.4225 88.2424 7.05478L89.5062 9.34894L88.2424 11.5787Z" fill="#FBB636"/>
</svg>
