<svg width="112" height="67" viewBox="0 0 112 67" fill="none" xmlns="http://www.w3.org/2000/svg">
<path fill-rule="evenodd" clip-rule="evenodd" d="M17.1858 19.0998C17.1858 17.4176 18.493 17.3843 18.493 19.2582C18.493 20.3529 17.1858 20.7872 17.1858 19.0998ZM14.1357 19.2582C14.1357 17.3147 15.4429 17.4516 15.4429 19.0998C15.4429 20.7872 14.1357 20.3529 14.1357 19.2582ZM11.0854 19.0998C11.0854 17.4957 12.3928 17.304 12.3928 19.0998C12.3928 20.704 11.0854 20.495 11.0854 19.0998ZM7.51239 17.3599C7.51239 19.8853 7.24174 23.7747 8.90659 24.4788C8.90659 26.2302 8.63941 29.2251 9.604 29.2251C9.93151 29.2251 10.1263 28.931 10.3234 28.6328C10.5301 28.3205 10.697 28.0734 10.8998 27.7804L12.6987 25.1924C13.0493 24.6952 12.9419 24.7781 13.5213 24.7873L19.9781 24.8014C22.4219 24.7 22.0662 20.0222 22.0662 17.2015C22.0662 14.9403 21.1332 13.2466 19.8874 13.2466H9.69122C8.41808 13.2466 7.51239 15.0387 7.51239 17.3599Z" fill="#FBB636"/>
<path fill-rule="evenodd" clip-rule="evenodd" d="M20.8578 31.1073C20.8578 30.3626 21.3139 30.0903 21.5623 30.5154C21.6669 30.6944 21.8896 31.7947 21.1822 31.7947C21.0294 31.7947 20.8578 31.3852 20.8578 31.1073ZM18.9647 31.1073C18.9647 30.1768 19.776 29.8938 19.776 31.1073C19.776 32.1687 18.9647 31.8887 18.9647 31.1073ZM17.5042 31.7947C17.3718 31.7947 17.3021 31.7429 17.2208 31.6219C16.921 31.1783 17.1013 30.3219 17.5042 30.3219C18.0427 30.3219 18.0614 31.7947 17.5042 31.7947ZM14.8538 30.4203C14.8538 32.1144 14.8053 34.2824 15.9472 34.6213C16.3363 34.7363 19.2054 34.6509 19.9927 34.6416C20.8348 34.6312 20.7488 35.0682 21.7305 36.396C22.1517 36.9654 22.4886 37.7763 22.8938 37.16C23.1114 36.8296 23.0211 35.3464 23.0211 34.5439C24.1062 33.5017 23.8865 32.2413 23.8865 29.7329C23.8865 28.5897 23.2722 27.4746 22.6425 27.4746H16.2062C15.2565 27.4746 14.8538 28.8309 14.8538 30.4203Z" fill="#FBB636"/>
<path fill-rule="evenodd" clip-rule="evenodd" d="M18.1308 65.8021H32.9457C33.3607 65.8021 33.7116 65.4803 33.9603 65.1129C35.0873 63.4477 33.9081 58.5364 33.5272 57.1534C33.0004 55.2403 32.4837 54.1386 31.7042 52.7105C31.2683 51.9121 29.7693 49.757 29.1016 49.7167C28.4896 49.6793 26.5099 52.2303 23.3269 50.5158C22.0185 49.8111 22.0033 48.8225 19.9092 51.7867C19.4313 52.4633 19.0302 53.2462 18.6324 54.0568C17.9564 55.4334 17.1817 57.9958 16.8913 60.0721C16.7582 61.024 16.4841 62.8587 16.6614 63.8742C16.8438 64.9187 17.3601 65.8021 18.1308 65.8021Z" fill="white"/>
<path fill-rule="evenodd" clip-rule="evenodd" d="M21.0684 43.2364C21.0684 46.0903 21.8151 48.5469 23.2034 49.8022C24.0646 50.581 24.4396 50.514 25.3386 50.514C27.1357 50.514 28.9116 47.0733 28.9116 43.5531C28.9116 39.4942 27.1681 36.503 25.0645 36.2966C23.1443 36.1083 21.0684 39.2641 21.0684 43.2364Z" fill="white"/>
<path fill-rule="evenodd" clip-rule="evenodd" d="M0.828125 63.0221C0.828125 64.8893 1.61724 66.1243 2.537 66.1243H19.6265C20.446 66.1243 21.0666 65.2142 21.2959 64.0403C21.8204 61.3528 20.2277 55.09 19.0946 52.6734C18.6609 51.7485 18.1424 50.7881 17.6319 50.0366C17.2058 49.4096 16.3957 48.3614 15.877 47.9289C14.5358 46.8105 14.2733 49.1528 10.9813 49.1528C8.78859 49.1528 7.71089 47.6174 7.04915 47.5693C5.63131 47.4669 2.79807 52.7485 1.89991 56.0257C1.39755 57.8585 0.828125 60.3824 0.828125 63.0221Z" fill="#FBB636"/>
<path fill-rule="evenodd" clip-rule="evenodd" d="M5.92969 40.4532C5.92969 44.6579 8.04657 48.4826 10.1518 48.4826C11.8124 48.4826 12.7884 47.9265 13.9044 45.6227C15.8856 41.5328 15.0151 34.8504 12.2514 32.8089C8.96408 30.3801 5.92969 34.8419 5.92969 40.4532Z" fill="#FBB636"/>
<path d="M39.3904 14.9486C41.6135 14.9486 43.3419 15.935 44.5759 17.9072C45.8101 19.8795 46.4289 22.5496 46.4323 25.9178H41.8943C41.7123 24.7646 41.3475 23.8467 40.7993 23.1641C40.2513 22.4811 39.5426 22.14 38.6736 22.14C37.3198 22.14 36.1479 22.9669 35.1583 24.6207C34.1686 26.274 33.5285 28.512 33.2372 31.3337C32.9212 34.3985 33.1091 36.75 33.8008 38.3886C34.4925 40.0272 35.6323 40.8463 37.2203 40.8463C38.2397 40.8463 39.1864 40.3383 40.0603 39.3217C40.934 38.3054 41.6267 36.8562 42.1385 34.9753H36.7229L37.3002 29.3766H46.3011L45.5077 37.0686C44.9795 38.9499 44.2645 40.6946 43.3631 42.3029C42.4617 43.9111 41.387 45.2156 40.1388 46.2171C38.8905 47.2182 37.5309 47.7192 36.0599 47.7192C34.2715 47.7192 32.7799 47.0288 31.585 45.6481C30.3904 44.2674 29.5576 42.3332 29.0872 39.8452C28.6169 37.3571 28.546 34.5199 28.8747 31.3337C29.2034 28.1479 29.8595 25.311 30.8434 22.8226C31.8272 20.3346 33.0544 18.4004 34.5259 17.0197C35.9971 15.639 37.6186 14.9486 39.3904 14.9486ZM54.7692 47.4461L52.1869 35.2938H51.209L49.9553 47.4461H45.6681L48.9876 15.2672H56.3085C57.7127 15.2672 58.854 15.7071 59.7326 16.5872C60.6114 17.467 61.214 18.6735 61.5407 20.2055C61.8674 21.7379 61.929 23.4904 61.7254 25.4627C61.4845 27.7991 60.9242 29.7865 60.0448 31.4251C59.1654 33.0633 58.0176 34.1862 56.601 34.7929L59.5078 47.4461H54.7692ZM51.7583 29.9685H54.4158C55.2683 29.9685 55.9305 29.6271 56.4021 28.9445C56.8735 28.2619 57.1784 27.2526 57.3159 25.9178C57.4476 24.6432 57.3459 23.6417 57.0117 22.9136C56.6772 22.1855 56.0921 21.8211 55.2563 21.8211H52.5988L51.7583 29.9685ZM72.0253 41.5748H65.3812L63.6721 47.4461H59.1593L68.9489 15.4947H73.8882L77.0859 47.4461H72.5228L72.0253 41.5748ZM71.5325 35.6575L70.5467 23.8238L67.0945 35.6575H71.5325ZM93.6206 15.2672L92.9821 21.4575H88.1683L85.4873 47.4461H81.1749L83.8557 21.4575H79.0921L79.7306 15.2672H93.6206ZM98.5371 15.2672L95.2176 47.4461H90.9303L94.2498 15.2672H98.5371ZM110.671 38.3886C110.496 40.0879 110.097 41.6506 109.473 43.0765C108.849 44.5027 108.03 45.6407 107.015 46.4901C105.999 47.34 104.832 47.7647 103.511 47.7647C101.522 47.7647 99.9745 46.8845 98.8693 45.125C97.7637 43.365 97.3151 40.9073 97.5236 37.7515H102.087C102.028 38.965 102.168 39.921 102.506 40.6188C102.843 41.3165 103.33 41.6654 103.965 41.6654C104.516 41.6654 104.979 41.3927 105.353 40.8463C105.727 40.3002 105.961 39.5721 106.055 38.6616C106.139 37.8425 106.063 37.1596 105.827 36.6135C105.591 36.0674 105.274 35.6198 104.875 35.2709C104.477 34.922 103.918 34.5047 103.199 34.0193C102.151 33.3215 101.306 32.6464 100.662 31.9937C100.019 31.3415 99.5095 30.3707 99.1326 29.081C98.7558 27.7913 98.6739 26.115 98.8869 24.0517C99.0839 22.14 99.5219 20.4863 100.201 19.0904C100.88 17.6949 101.73 16.6249 102.751 15.8817C103.772 15.1384 104.892 14.7666 106.113 14.7666C108.085 14.7666 109.564 15.6164 110.551 17.3153C111.537 19.0146 111.952 21.3513 111.796 24.3247H107.158C107.183 23.2625 107.057 22.4205 106.779 21.7986C106.5 21.1766 106.069 20.8655 105.483 20.8655C104.982 20.8655 104.552 21.1082 104.192 21.594C103.833 22.0794 103.605 22.7923 103.508 23.7331C103.43 24.4915 103.501 25.1364 103.722 25.6673C103.943 26.1982 104.245 26.6307 104.629 26.9644C105.012 27.2981 105.57 27.7228 106.303 28.2389C107.367 28.9367 108.224 29.6271 108.872 30.3096C109.52 30.9926 110.036 31.9863 110.42 33.2912C110.803 34.5957 110.887 36.295 110.671 38.3886Z" fill="white"/>
<path d="M39.7605 56.8649L42.4774 65.0553H39.8905L37.6328 57.8635L36.891 65.0553H34.7539L36.4086 49.015H38.5456L37.8179 56.071L41.5702 49.015H44.132L39.7605 56.8649ZM49.085 48.7656C49.9181 48.7656 50.638 49.1171 51.2445 49.8208C51.851 50.5241 52.2857 51.4997 52.5484 52.7472C52.8115 53.9951 52.8616 55.4058 52.6994 56.9785C52.5372 58.5516 52.1934 59.9656 51.6682 61.2213C51.1428 62.4766 50.5043 63.4563 49.7528 64.1592C49.0012 64.8625 48.2131 65.2143 47.3883 65.2143C46.5634 65.2143 45.8476 64.8625 45.2411 64.1592C44.6346 63.4563 44.1982 62.4766 43.9321 61.2213C43.6657 59.9656 43.6137 58.5516 43.776 56.9785C43.9382 55.4058 44.2816 53.9951 44.8062 52.7472C45.3306 51.4997 45.9685 50.5241 46.7203 49.8208C47.4719 49.1171 48.26 48.7656 49.085 48.7656ZM48.7128 52.3732C48.013 52.3732 47.4144 52.7849 46.9168 53.6096C46.4195 54.4339 46.0973 55.5567 45.9507 56.9785C45.8056 58.3851 45.8963 59.5047 46.2228 60.3363C46.5497 61.1684 47.0629 61.5842 47.7627 61.5842C48.454 61.5842 49.0512 61.1684 49.5535 60.3363C50.0559 59.5047 50.3797 58.3851 50.5248 56.9785C50.67 55.5719 50.5793 54.4528 50.2524 53.6207C49.9261 52.7886 49.4127 52.3732 48.7128 52.3732ZM60.7426 65.0553H58.6054L56.047 55.2086L55.0311 65.0553H52.894L54.5487 49.015H56.6858L59.2349 58.9527L60.26 49.015H62.3973L60.7426 65.0553ZM68.86 60.5406C68.7726 61.3874 68.5735 62.1666 68.2627 62.8773C67.9519 63.5883 67.5435 64.1555 67.0372 64.5787C66.531 65.0024 65.9491 65.2143 65.2908 65.2143C64.2993 65.2143 63.528 64.7756 62.9769 63.898C62.4258 63.0212 62.2024 61.7959 62.3064 60.2231H64.581C64.5517 60.828 64.6216 61.3042 64.7897 61.6523C64.9578 62.0001 65.2004 62.174 65.5169 62.174C65.7918 62.174 66.0225 62.0378 66.209 61.7655C66.3954 61.4936 66.512 61.1303 66.5587 60.6767C66.6009 60.2683 66.5632 59.9279 66.4454 59.656C66.3276 59.3833 66.1694 59.1602 65.9707 58.9863C65.772 58.8128 65.4936 58.6045 65.1353 58.3626C64.613 58.0144 64.1915 57.6781 63.871 57.3529C63.5502 57.0277 63.2962 56.5438 63.1083 55.9008C62.9206 55.2578 62.8797 54.4224 62.9856 53.3939C63.0839 52.4409 63.3024 51.617 63.6409 50.9211C63.9792 50.2251 64.4029 49.692 64.912 49.3213C65.4209 48.951 65.9795 48.7656 66.5876 48.7656C67.571 48.7656 68.3083 49.1892 68.7999 50.0361C69.2917 50.8833 69.4983 52.0476 69.4205 53.5301H67.1083C67.1214 53.0006 67.0584 52.5807 66.9196 52.2707C66.7808 51.9607 66.5656 51.806 66.274 51.806C66.0241 51.806 65.8095 51.927 65.6304 52.1686C65.4514 52.4109 65.3377 52.7664 65.2892 53.2352C65.2503 53.6133 65.2859 53.9344 65.396 54.1993C65.5061 54.4642 65.6569 54.6795 65.8478 54.846C66.039 55.0125 66.317 55.2241 66.6822 55.4813C67.2131 55.829 67.6399 56.1731 67.9631 56.5135C68.2861 56.8538 68.5433 57.3489 68.7347 57.9996C68.9258 58.65 68.9676 59.4969 68.86 60.5406ZM73.1386 49.015L72.1838 58.2719C72.0746 59.3308 72.1222 60.1399 72.3271 60.6996C72.5317 61.259 72.8841 61.5387 73.384 61.5387C73.8839 61.5387 74.294 61.259 74.6141 60.6996C74.9341 60.1399 75.1489 59.3308 75.2581 58.2719L76.2129 49.015H78.3502L77.3952 58.2719C77.2395 59.7843 76.9454 61.0585 76.5138 62.0948C76.0819 63.1307 75.5577 63.9098 74.9416 64.4315C74.3253 64.9532 73.663 65.2143 72.9548 65.2143C72.2466 65.2143 71.6482 64.9572 71.1597 64.4426C70.6712 63.9287 70.3266 63.1496 70.126 62.1059C69.9253 61.0622 69.9033 59.7843 70.0592 58.2719L71.014 49.015H73.1386ZM80.3919 62.0833H83.2414L82.9349 65.0553H77.9483L79.603 49.015H81.74L80.3919 62.0833ZM91.7536 49.015L91.4355 52.1009H89.0359L87.6994 65.0553H85.5499L86.886 52.1009H84.5115L84.8299 49.015H91.7536ZM96.6026 62.1285H93.2909L92.439 65.0553H90.1894L95.0692 49.1289H97.5311L99.1253 65.0553H96.8507L96.6026 62.1285ZM96.3568 59.1795L95.8657 53.2803L94.1448 59.1795H96.3568ZM106.593 60.5406C106.505 61.3874 106.306 62.1666 105.995 62.8773C105.685 63.5883 105.276 64.1555 104.77 64.5787C104.264 65.0024 103.682 65.2143 103.024 65.2143C102.032 65.2143 101.261 64.7756 100.71 63.898C100.159 63.0212 99.9352 61.7959 100.039 60.2231H102.314C102.285 60.828 102.354 61.3042 102.522 61.6523C102.691 62.0001 102.933 62.174 103.25 62.174C103.525 62.174 103.755 62.0378 103.942 61.7655C104.128 61.4936 104.245 61.1303 104.292 60.6767C104.334 60.2683 104.296 59.9279 104.178 59.656C104.061 59.3833 103.902 59.1602 103.704 58.9863C103.505 58.8128 103.226 58.6045 102.868 58.3626C102.346 58.0144 101.924 57.6781 101.604 57.3529C101.283 57.0277 101.029 56.5438 100.841 55.9008C100.653 55.2578 100.612 54.4224 100.718 53.3939C100.817 52.4409 101.035 51.617 101.374 50.9211C101.712 50.2251 102.136 49.692 102.645 49.3213C103.153 48.951 103.712 48.7656 104.32 48.7656C105.304 48.7656 106.041 49.1892 106.533 50.0361C107.024 50.8833 107.231 52.0476 107.153 53.5301H104.841C104.854 53.0006 104.791 52.5807 104.653 52.2707C104.514 51.9607 104.298 51.806 104.007 51.806C103.757 51.806 103.542 51.927 103.363 52.1686C103.184 52.4109 103.07 52.7664 103.022 53.2352C102.983 53.6133 103.019 53.9344 103.129 54.1993C103.239 54.4642 103.39 54.6795 103.581 54.846C103.772 55.0125 104.05 55.2241 104.415 55.4813C104.946 55.829 105.373 56.1731 105.696 56.5135C106.019 56.8538 106.276 57.3489 106.467 57.9996C106.659 58.65 106.7 59.4969 106.593 60.5406ZM110.934 49.015L109.279 65.0553H107.142L108.797 49.015H110.934Z" fill="#FBB636"/>
<path d="M91.8507 7.07187C92.199 6.43959 92.6185 6.12845 93.1143 6.12845C93.6106 6.12845 94.0298 6.43959 94.3783 7.07187C94.7266 7.70451 94.898 8.4548 94.898 9.33385C94.898 10.2133 94.7266 10.9632 94.3783 11.5958C94.0298 12.2177 93.6106 12.5392 93.1143 12.5392C92.6185 12.5392 92.199 12.2177 91.8507 11.5958L90.6283 9.29093L91.8507 7.07187ZM88.8508 5.59274C88.5023 4.95973 88.3311 4.20943 88.3311 3.33039C88.3311 2.45135 88.5023 1.70106 88.8508 1.06842C89.1991 0.446501 89.6126 0.125 90.0968 0.125C90.5809 0.125 90.9944 0.446501 91.3427 1.06842C91.6855 1.70106 91.8626 2.45135 91.8626 3.33039C91.8626 4.20943 91.6855 4.95973 91.3427 5.59274L90.1146 7.88653L88.8508 5.59274ZM88.2424 11.5958C87.8939 12.2177 87.4806 12.5392 86.9964 12.5392C86.5181 12.5392 86.0989 12.2177 85.7502 11.5958C85.4078 10.9632 85.2305 10.2133 85.2305 9.33385C85.2305 8.4548 85.4078 7.70451 85.7502 7.07187C86.0989 6.43959 86.5181 6.12845 86.9964 6.12845C87.4806 6.12845 87.8939 6.43959 88.2424 7.07187L89.5062 9.36603L88.2424 11.5958Z" fill="#FBB636"/>
</svg>
