<svg width="103" height="143" viewBox="0 0 103 143" fill="none" xmlns="http://www.w3.org/2000/svg">
<path d="M0 10C0 4.47715 4.47715 0 10 0H102.739V142.238H9.99999C4.47714 142.238 0 137.761 0 132.238V10Z" fill="#FCB945"/>
<g filter="url(#filter0_d_2261_8695)">
<path fill-rule="evenodd" clip-rule="evenodd" d="M30.4421 34.4043C30.7333 34.7432 31.1731 37.2017 31.5275 38.3095C31.9006 39.4757 32.4094 40.7143 32.9779 41.7122C33.6341 42.8632 35.1195 45.1266 36.0202 45.9457C37.2448 47.0617 36.9091 46.9285 38.5502 48.2641C39.7175 49.2141 41.6837 50.3686 43.1329 50.961C49.7438 53.6638 56.7033 53.0994 62.6838 49.3263C67.1835 46.4891 70.4644 41.8104 71.7171 36.531L72.0972 34.756C72.2236 34.4522 72.1277 34.6006 72.3008 34.3996C72.5698 22.6502 62.9294 13.1198 51.3708 13.1187C39.866 13.1175 30.1052 22.718 30.4421 34.4043Z" fill="#FFBA57"/>
<path fill-rule="evenodd" clip-rule="evenodd" d="M27.2902 23.2393C28.2903 21.2575 28.4342 20.9431 29.6974 19.0828C30.5337 17.8501 31.6613 16.5764 32.7034 15.5259L36.3224 12.5801C38.3903 11.2117 38.3108 11.2994 40.518 10.2115C46.8294 7.1009 56.1762 7.28085 62.2199 10.2138C65.1417 11.6312 67.6845 13.1561 70.0367 15.5259C74.6931 20.2175 77.9238 26.8839 77.9238 33.7173C77.6091 34.457 77.629 35.6769 77.4652 36.5732C73.8989 56.0909 49.9606 66.0548 33.0777 51.0207C32.1186 50.1665 30.9326 48.7538 30.0904 47.5853C24.7696 40.2026 25.4188 35.2387 24.8164 33.8318C24.8164 30.0283 25.9954 25.8065 27.2902 23.2393ZM32.3373 43.0631C36.8008 53.2596 49.1302 58.2141 59.9694 53.4629C61.1438 52.9476 62.3076 52.2909 63.2597 51.6131C66.3979 49.3801 68.839 46.5967 70.4005 43.0596C71.8345 39.8123 71.9398 38.1577 72.3 34.3997C72.569 22.6503 62.9287 13.1199 51.3701 13.1187C39.8653 13.1176 30.1044 22.7181 30.4413 34.4044C30.7829 38.153 30.9314 39.852 32.3373 43.0631Z" fill="#FFE179"/>
<path fill-rule="evenodd" clip-rule="evenodd" d="M50.2284 64.224C46.82 64.016 44.0257 63.4901 41.091 62.4128C39.2441 61.735 35.1293 59.7801 34.1339 58.7051C33.783 59.1082 32.0975 64.1959 31.8659 64.8924C31.4343 66.1871 28.144 74.7149 28.4587 75.4476C28.7534 76.1335 30.1114 75.7642 30.6939 75.7023C31.646 75.5995 32.3583 75.5854 33.3011 75.4546C34.2333 75.3249 34.9526 75.3003 35.8685 75.1659C38.0768 74.8423 38.1458 75.6591 40.9846 78.495C42.3016 79.8108 43.0186 80.9548 44.2316 80.9548C45.3849 79.2347 46.475 74.8014 47.3312 72.6408L49.5348 66.2852C49.7161 65.8003 50.1606 64.7989 50.2284 64.224Z" fill="#482380"/>
<path fill-rule="evenodd" clip-rule="evenodd" d="M52.5117 64.224L57.9857 80.0503C58.2243 80.7386 58.1846 80.4722 58.5086 80.9548C59.718 80.9548 60.3531 79.8961 61.6854 78.5663C62.6714 77.5813 63.5627 76.7037 64.5358 75.7093C65.1277 75.1052 65.3874 74.9837 66.6237 75.1274C67.4436 75.222 68.2601 75.3272 69.2028 75.4043C76.2547 75.9886 75.188 77.8699 70.9105 64.9987L68.6063 58.7051C67.6308 59.7824 63.4153 61.7666 61.552 62.4548C58.7612 63.4878 55.733 64.0277 52.5117 64.224Z" fill="#482380"/>
<path fill-rule="evenodd" clip-rule="evenodd" d="M24.8164 33.8318C24.8164 41.4412 26.9382 46.3034 31.0144 51.5149C31.7712 52.4825 34.141 54.6851 35.0954 55.4552C35.7621 55.7216 37.9634 57.742 42.097 59.2704C49.9747 62.1846 58.9881 61.2533 65.9394 56.5769C66.4061 56.2626 67.2132 55.6304 67.6448 55.4587C67.8857 55.2612 67.9676 55.1595 68.198 54.9761L69.7677 53.5517C71.4602 52.2102 73.9913 48.6112 74.9271 46.7264C76.8383 42.8749 77.9238 39.4874 77.9238 33.7173C77.6091 34.457 77.629 35.6769 77.4652 36.5731C73.8989 56.0908 49.9606 66.0548 33.0777 51.0207C32.1186 50.1665 30.9326 48.7537 30.0904 47.5852C24.7696 40.2025 25.4188 35.2387 24.8164 33.8318Z" fill="#F9CE58"/>
<path fill-rule="evenodd" clip-rule="evenodd" d="M34.1335 58.7047C35.1288 59.7797 39.2437 61.7347 41.0906 62.4124C44.0253 63.4898 46.8196 64.0156 50.228 64.2236C50.5064 63.6394 51.1766 61.8749 51.2269 61.2719H51.5123C51.5626 61.8749 52.2328 63.6394 52.5112 64.2236C55.7324 64.0273 58.7607 63.4874 61.5515 62.4545C63.4148 61.7662 67.6303 59.7821 68.6058 58.7047C68.6338 57.708 67.7425 56.5161 67.6443 55.4586C67.2127 55.6304 66.4056 56.2625 65.9389 56.5768C58.9876 61.2532 49.9742 62.1857 42.0965 59.2703C37.9629 57.7419 35.7616 55.7215 35.0949 55.4551C34.9978 56.5173 34.1054 57.7068 34.1335 58.7047Z" fill="#351B5C"/>
<path fill-rule="evenodd" clip-rule="evenodd" d="M72.3001 34.3999C72.127 34.6009 72.2229 34.4525 72.0966 34.7563L71.7164 36.5313C70.4637 41.8106 67.1828 46.4894 62.6831 49.3265C56.7027 53.0997 49.7432 53.664 43.1322 50.9613C41.683 50.3688 39.718 49.2143 38.5495 48.2643C36.9085 46.9287 37.2442 47.0619 36.0195 45.946C35.1189 45.1269 33.6334 42.8635 32.9772 41.7125C32.4088 40.7146 31.9 39.4759 31.5269 38.3098C31.1724 37.202 30.7327 34.7434 30.4414 34.4046C30.7829 38.1532 30.9315 39.8522 32.3374 43.0633C36.8009 53.2597 49.1303 58.2142 59.9695 53.4631C61.1439 52.9477 62.3077 52.291 63.2598 51.6133C66.398 49.3803 68.8391 46.5969 70.4006 43.0598C71.8346 39.8125 71.9399 38.1578 72.3001 34.3999Z" fill="#FFAC3E"/>
<path d="M56.7292 32.7322C57.7737 31.6875 59.0323 31.1745 60.5201 31.1745C62.0091 31.1745 63.2665 31.6875 64.3121 32.7322C65.3578 33.7768 65.8713 35.0154 65.8713 36.4667C65.8713 37.918 65.3578 39.1578 64.3121 40.2013C63.2665 41.2284 62.0091 41.7589 60.5201 41.7589C59.0323 41.7589 57.7737 41.2284 56.7292 40.2013L53.0612 36.3955L56.7292 32.7322ZM47.7287 30.29C46.6842 29.2453 46.1695 28.0067 46.1695 26.5554C46.1695 25.1041 46.6842 23.8643 47.7287 22.8208C48.7744 21.7937 50.0142 21.2632 51.4669 21.2632C52.9196 21.2632 54.1606 21.7937 55.2063 22.8208C56.2333 23.8643 56.7655 25.1041 56.7655 26.5554C56.7655 28.0067 56.2333 29.2453 55.2063 30.29L51.5207 34.0771L47.7287 30.29ZM45.904 40.2025C44.8583 41.2296 43.6185 41.7601 42.1646 41.7601C40.7306 41.7601 39.472 41.2296 38.4263 40.2025C37.3994 39.159 36.8672 37.9192 36.8672 36.4679C36.8672 35.0166 37.3994 33.778 38.4263 32.7333C39.472 31.6887 40.7306 31.1757 42.1646 31.1757C43.6185 31.1757 44.8583 31.6887 45.904 32.7333L49.6949 36.5205L45.904 40.2025Z" fill="#FFF0B5"/>
<path d="M53.1451 43.457L53.5066 44.5741L54.6821 44.5718L53.73 45.26L54.0949 46.376L53.1451 45.6842L52.1954 46.376L52.5615 45.26L51.6094 44.5718L52.7849 44.5741L53.1451 43.457Z" fill="#FFF0B5"/>
<path d="M49.1365 43.457L49.498 44.5741L50.6723 44.5718L49.7202 45.26L50.0863 46.376L49.1365 45.6842L48.1868 46.376L48.5517 45.26L47.5996 44.5718L48.7751 44.5741L49.1365 43.457Z" fill="#FFF0B5"/>
</g>
<g filter="url(#filter1_d_2261_8695)">
<path d="M0 94.9507C5.8608 97.5133 7.44264 115.091 17.3889 118.654C39.442 126.554 31.9172 105.735 65.6552 116.385C95.9945 130.64 88.1308 99.8531 102.739 94.9507V142.238H9.99999C4.47714 142.238 0 137.761 0 132.238V94.9507Z" fill="#493169"/>
</g>
<defs>
<filter id="filter0_d_2261_8695" x="20.8164" y="7.9458" width="61.1074" height="81.0088" filterUnits="userSpaceOnUse" color-interpolation-filters="sRGB">
<feFlood flood-opacity="0" result="BackgroundImageFix"/>
<feColorMatrix in="SourceAlpha" type="matrix" values="0 0 0 0 0 0 0 0 0 0 0 0 0 0 0 0 0 0 127 0" result="hardAlpha"/>
<feOffset dy="4"/>
<feGaussianBlur stdDeviation="2"/>
<feComposite in2="hardAlpha" operator="out"/>
<feColorMatrix type="matrix" values="0 0 0 0 0 0 0 0 0 0 0 0 0 0 0 0 0 0 0.25 0"/>
<feBlend mode="normal" in2="BackgroundImageFix" result="effect1_dropShadow_2261_8695"/>
<feBlend mode="normal" in="SourceGraphic" in2="effect1_dropShadow_2261_8695" result="shape"/>
</filter>
<filter id="filter1_d_2261_8695" x="0" y="79.9507" width="102.738" height="62.2876" filterUnits="userSpaceOnUse" color-interpolation-filters="sRGB">
<feFlood flood-opacity="0" result="BackgroundImageFix"/>
<feColorMatrix in="SourceAlpha" type="matrix" values="0 0 0 0 0 0 0 0 0 0 0 0 0 0 0 0 0 0 127 0" result="hardAlpha"/>
<feOffset dy="-15"/>
<feComposite in2="hardAlpha" operator="out"/>
<feColorMatrix type="matrix" values="0 0 0 0 0.529167 0 0 0 0 0.395971 0 0 0 0 0.165365 0 0 0 1 0"/>
<feBlend mode="normal" in2="BackgroundImageFix" result="effect1_dropShadow_2261_8695"/>
<feBlend mode="normal" in="SourceGraphic" in2="effect1_dropShadow_2261_8695" result="shape"/>
</filter>
</defs>
</svg>
