<svg width="319" height="255" viewBox="0 0 319 255" fill="none" xmlns="http://www.w3.org/2000/svg">
<path d="M184.5 47.5417V74.9999V175L159.5 166.667L134.5 175L109.5 166.667L84.5 175V54.0509C84.5 42.4573 84.5 36.6605 87.2586 32.4828C88.4983 30.6053 90.1053 28.9982 91.9828 27.7585C96.1605 25 101.957 25 113.551 25H185.329C192.57 25 195.413 34.3912 189.388 38.4077C186.334 40.4437 184.5 43.8712 184.5 47.5417Z" fill="#493169" fill-opacity="0.7"/>
<path d="M209.5 25C223.307 25 234.5 36.1928 234.5 50V67.8571C234.5 70.6414 234.5 72.0337 233.862 73.0501C233.528 73.5801 233.08 74.0282 232.55 74.3612C231.533 74.9999 230.142 74.9999 227.357 74.9999H184.5M209.5 25C195.692 25 184.5 36.1928 184.5 50V74.9999M209.5 25H117.833C102.12 25 94.2631 25 89.3816 29.8815C84.5 34.7631 84.5 42.6198 84.5 58.3333V175L109.5 166.667L134.5 175L159.5 166.667L184.5 175V74.9999" stroke="#323232" stroke-width="10"/>
<path d="M117.834 58.3333H151.167" stroke="#323232" stroke-width="10" stroke-linecap="round"/>
<path d="M126.167 91.6665H117.834" stroke="#323232" stroke-width="10" stroke-linecap="round"/>
<path d="M117.834 125H142.834" stroke="#323232" stroke-width="10" stroke-linecap="round"/>
<rect x="227.58" y="1.44458" width="15.3929" height="256.411" rx="7.69644" transform="rotate(39.2527 227.58 1.44458)" fill="#323232"/>
<rect x="227.722" y="2.85168" width="13.3929" height="254.411" rx="6.69644" transform="rotate(39.2527 227.722 2.85168)" stroke="#493169" stroke-opacity="0.7" stroke-width="2"/>
<path d="M5.08241 245.076H10.6024V247.74H1.72241V230.988H5.08241V245.076ZM18.642 247.956C17.362 247.956 16.21 247.676 15.186 247.116C14.162 246.54 13.354 245.732 12.762 244.692C12.186 243.652 11.898 242.452 11.898 241.092C11.898 239.732 12.194 238.532 12.786 237.492C13.394 236.452 14.218 235.652 15.258 235.092C16.298 234.516 17.458 234.228 18.738 234.228C20.018 234.228 21.178 234.516 22.218 235.092C23.258 235.652 24.074 236.452 24.666 237.492C25.274 238.532 25.578 239.732 25.578 241.092C25.578 242.452 25.266 243.652 24.642 244.692C24.034 245.732 23.202 246.54 22.146 247.116C21.106 247.676 19.938 247.956 18.642 247.956ZM18.642 245.028C19.25 245.028 19.818 244.884 20.346 244.596C20.89 244.292 21.322 243.844 21.642 243.252C21.962 242.66 22.122 241.94 22.122 241.092C22.122 239.828 21.786 238.86 21.114 238.188C20.458 237.5 19.65 237.156 18.69 237.156C17.73 237.156 16.922 237.5 16.266 238.188C15.626 238.86 15.306 239.828 15.306 241.092C15.306 242.356 15.618 243.332 16.242 244.02C16.882 244.692 17.682 245.028 18.642 245.028ZM31.9547 237.204V243.636C31.9547 244.084 32.0587 244.412 32.2667 244.62C32.4907 244.812 32.8587 244.908 33.3707 244.908H34.9307V247.74H32.8187C29.9867 247.74 28.5707 246.364 28.5707 243.612V237.204H26.9867V234.444H28.5707V231.156H31.9547V234.444H34.9307V237.204H31.9547ZM41.2594 237.204V243.636C41.2594 244.084 41.3634 244.412 41.5714 244.62C41.7954 244.812 42.1634 244.908 42.6754 244.908H44.2354V247.74H42.1234C39.2914 247.74 37.8754 246.364 37.8754 243.612V237.204H36.2914V234.444H37.8754V231.156H41.2594V234.444H44.2354V237.204H41.2594ZM59.0121 240.804C59.0121 241.284 58.9801 241.716 58.9161 242.1H49.1961C49.2761 243.06 49.6121 243.812 50.2041 244.356C50.7961 244.9 51.5241 245.172 52.3881 245.172C53.6361 245.172 54.5241 244.636 55.0521 243.564H58.6761C58.2921 244.844 57.5561 245.9 56.4681 246.732C55.3801 247.548 54.0441 247.956 52.4601 247.956C51.1801 247.956 50.0281 247.676 49.0041 247.116C47.9961 246.54 47.2041 245.732 46.6281 244.692C46.0681 243.652 45.7881 242.452 45.7881 241.092C45.7881 239.716 46.0681 238.508 46.6281 237.468C47.1881 236.428 47.9721 235.628 48.9801 235.068C49.9881 234.508 51.1481 234.228 52.4601 234.228C53.7241 234.228 54.8521 234.5 55.8441 235.044C56.8521 235.588 57.6281 236.364 58.1721 237.372C58.7321 238.364 59.0121 239.508 59.0121 240.804ZM55.5321 239.844C55.5161 238.98 55.2041 238.292 54.5961 237.78C53.9881 237.252 53.2441 236.988 52.3641 236.988C51.5321 236.988 50.8281 237.244 50.2521 237.756C49.6921 238.252 49.3481 238.948 49.2201 239.844H55.5321ZM64.8246 236.508C65.2566 235.804 65.8166 235.252 66.5046 234.852C67.2086 234.452 68.0086 234.252 68.9046 234.252V237.78H68.0166C66.9606 237.78 66.1606 238.028 65.6166 238.524C65.0886 239.02 64.8246 239.884 64.8246 241.116V247.74H61.4646V234.444H64.8246V236.508ZM83.8877 234.444L75.6557 254.028H72.0797L74.9597 247.404L69.6317 234.444H73.3997L76.8317 243.732L80.3117 234.444H83.8877ZM105.746 247.74H102.386L94.7777 236.244V247.74H91.4177V230.964H94.7777L102.386 242.484V230.964H105.746V247.74ZM121.618 234.444V247.74H118.234V246.06C117.802 246.636 117.234 247.092 116.53 247.428C115.842 247.748 115.09 247.908 114.274 247.908C113.234 247.908 112.314 247.692 111.514 247.26C110.714 246.812 110.082 246.164 109.618 245.316C109.17 244.452 108.946 243.428 108.946 242.244V234.444H112.306V241.764C112.306 242.82 112.57 243.636 113.098 244.212C113.626 244.772 114.346 245.052 115.258 245.052C116.186 245.052 116.914 244.772 117.442 244.212C117.97 243.636 118.234 242.82 118.234 241.764V234.444H121.618ZM141.445 234.252C143.077 234.252 144.389 234.756 145.381 235.764C146.389 236.756 146.893 238.148 146.893 239.94V247.74H143.533V240.396C143.533 239.356 143.269 238.564 142.741 238.02C142.213 237.46 141.493 237.18 140.581 237.18C139.669 237.18 138.941 237.46 138.397 238.02C137.869 238.564 137.605 239.356 137.605 240.396V247.74H134.245V240.396C134.245 239.356 133.981 238.564 133.453 238.02C132.925 237.46 132.205 237.18 131.293 237.18C130.365 237.18 129.629 237.46 129.085 238.02C128.557 238.564 128.293 239.356 128.293 240.396V247.74H124.933V234.444H128.293V236.052C128.725 235.492 129.277 235.052 129.949 234.732C130.637 234.412 131.389 234.252 132.205 234.252C133.245 234.252 134.173 234.476 134.989 234.924C135.805 235.356 136.437 235.98 136.885 236.796C137.317 236.028 137.941 235.412 138.757 234.948C139.589 234.484 140.485 234.252 141.445 234.252ZM153.442 236.388C153.874 235.748 154.466 235.228 155.218 234.828C155.986 234.428 156.858 234.228 157.834 234.228C158.97 234.228 159.994 234.508 160.906 235.068C161.834 235.628 162.562 236.428 163.09 237.468C163.634 238.492 163.906 239.684 163.906 241.044C163.906 242.404 163.634 243.612 163.09 244.668C162.562 245.708 161.834 246.516 160.906 247.092C159.994 247.668 158.97 247.956 157.834 247.956C156.842 247.956 155.97 247.764 155.218 247.38C154.482 246.98 153.89 246.468 153.442 245.844V247.74H150.082V229.98H153.442V236.388ZM160.474 241.044C160.474 240.244 160.306 239.556 159.97 238.98C159.65 238.388 159.218 237.94 158.674 237.636C158.146 237.332 157.57 237.18 156.946 237.18C156.338 237.18 155.762 237.34 155.218 237.66C154.69 237.964 154.258 238.412 153.922 239.004C153.602 239.596 153.442 240.292 153.442 241.092C153.442 241.892 153.602 242.588 153.922 243.18C154.258 243.772 154.69 244.228 155.218 244.548C155.762 244.852 156.338 245.004 156.946 245.004C157.57 245.004 158.146 244.844 158.674 244.524C159.218 244.204 159.65 243.748 159.97 243.156C160.306 242.564 160.474 241.86 160.474 241.044ZM178.707 240.804C178.707 241.284 178.675 241.716 178.611 242.1H168.891C168.971 243.06 169.307 243.812 169.899 244.356C170.491 244.9 171.219 245.172 172.083 245.172C173.331 245.172 174.219 244.636 174.747 243.564H178.371C177.987 244.844 177.251 245.9 176.163 246.732C175.075 247.548 173.739 247.956 172.155 247.956C170.875 247.956 169.723 247.676 168.699 247.116C167.691 246.54 166.899 245.732 166.323 244.692C165.763 243.652 165.483 242.452 165.483 241.092C165.483 239.716 165.763 238.508 166.323 237.468C166.883 236.428 167.667 235.628 168.675 235.068C169.683 234.508 170.843 234.228 172.155 234.228C173.419 234.228 174.547 234.5 175.539 235.044C176.547 235.588 177.323 236.364 177.867 237.372C178.427 238.364 178.707 239.508 178.707 240.804ZM175.227 239.844C175.211 238.98 174.899 238.292 174.291 237.78C173.683 237.252 172.939 236.988 172.059 236.988C171.227 236.988 170.523 237.244 169.947 237.756C169.387 238.252 169.043 238.948 168.915 239.844H175.227ZM184.52 236.508C184.952 235.804 185.512 235.252 186.2 234.852C186.904 234.452 187.704 234.252 188.6 234.252V237.78H187.712C186.656 237.78 185.856 238.028 185.312 238.524C184.784 239.02 184.52 239.884 184.52 241.116V247.74H181.16V234.444H184.52V236.508ZM210.91 247.74H207.55L199.942 236.244V247.74H196.582V230.964H199.942L207.55 242.484V230.964H210.91V247.74ZM220.134 247.956C218.854 247.956 217.702 247.676 216.678 247.116C215.654 246.54 214.846 245.732 214.254 244.692C213.678 243.652 213.39 242.452 213.39 241.092C213.39 239.732 213.686 238.532 214.278 237.492C214.886 236.452 215.71 235.652 216.75 235.092C217.79 234.516 218.95 234.228 220.23 234.228C221.51 234.228 222.67 234.516 223.71 235.092C224.75 235.652 225.566 236.452 226.158 237.492C226.766 238.532 227.07 239.732 227.07 241.092C227.07 242.452 226.758 243.652 226.134 244.692C225.526 245.732 224.694 246.54 223.638 247.116C222.598 247.676 221.43 247.956 220.134 247.956ZM220.134 245.028C220.742 245.028 221.31 244.884 221.838 244.596C222.382 244.292 222.814 243.844 223.134 243.252C223.454 242.66 223.614 241.94 223.614 241.092C223.614 239.828 223.278 238.86 222.606 238.188C221.95 237.5 221.142 237.156 220.182 237.156C219.222 237.156 218.414 237.5 217.758 238.188C217.118 238.86 216.798 239.828 216.798 241.092C216.798 242.356 217.11 243.332 217.734 244.02C218.374 244.692 219.174 245.028 220.134 245.028ZM233.447 237.204V243.636C233.447 244.084 233.551 244.412 233.759 244.62C233.983 244.812 234.351 244.908 234.863 244.908H236.423V247.74H234.311C231.479 247.74 230.063 246.364 230.063 243.612V237.204H228.479V234.444H230.063V231.156H233.447V234.444H236.423V237.204H233.447ZM254.902 230.988V233.7H247.918V237.996H253.27V240.66H247.918V247.74H244.558V230.988H254.902ZM263.189 247.956C261.909 247.956 260.757 247.676 259.733 247.116C258.709 246.54 257.901 245.732 257.309 244.692C256.733 243.652 256.445 242.452 256.445 241.092C256.445 239.732 256.741 238.532 257.333 237.492C257.941 236.452 258.765 235.652 259.805 235.092C260.845 234.516 262.005 234.228 263.285 234.228C264.565 234.228 265.725 234.516 266.765 235.092C267.805 235.652 268.621 236.452 269.213 237.492C269.821 238.532 270.125 239.732 270.125 241.092C270.125 242.452 269.813 243.652 269.189 244.692C268.581 245.732 267.749 246.54 266.693 247.116C265.653 247.676 264.485 247.956 263.189 247.956ZM263.189 245.028C263.797 245.028 264.365 244.884 264.893 244.596C265.437 244.292 265.869 243.844 266.189 243.252C266.509 242.66 266.669 241.94 266.669 241.092C266.669 239.828 266.333 238.86 265.661 238.188C265.005 237.5 264.197 237.156 263.237 237.156C262.277 237.156 261.469 237.5 260.813 238.188C260.173 238.86 259.853 239.828 259.853 241.092C259.853 242.356 260.165 243.332 260.789 244.02C261.429 244.692 262.229 245.028 263.189 245.028ZM285.142 234.444V247.74H281.758V246.06C281.326 246.636 280.758 247.092 280.054 247.428C279.366 247.748 278.614 247.908 277.798 247.908C276.758 247.908 275.838 247.692 275.038 247.26C274.238 246.812 273.606 246.164 273.142 245.316C272.694 244.452 272.47 243.428 272.47 242.244V234.444H275.83V241.764C275.83 242.82 276.094 243.636 276.622 244.212C277.15 244.772 277.87 245.052 278.782 245.052C279.71 245.052 280.438 244.772 280.966 244.212C281.494 243.636 281.758 242.82 281.758 241.764V234.444H285.142ZM295.825 234.252C297.409 234.252 298.689 234.756 299.665 235.764C300.641 236.756 301.129 238.148 301.129 239.94V247.74H297.769V240.396C297.769 239.34 297.505 238.532 296.977 237.972C296.449 237.396 295.729 237.108 294.817 237.108C293.889 237.108 293.153 237.396 292.609 237.972C292.081 238.532 291.817 239.34 291.817 240.396V247.74H288.457V234.444H291.817V236.1C292.265 235.524 292.833 235.076 293.521 234.756C294.225 234.42 294.993 234.252 295.825 234.252ZM303.46 241.044C303.46 239.7 303.724 238.508 304.252 237.468C304.796 236.428 305.532 235.628 306.46 235.068C307.388 234.508 308.42 234.228 309.556 234.228C310.42 234.228 311.244 234.42 312.028 234.804C312.812 235.172 313.436 235.668 313.9 236.292V229.98H317.308V247.74H313.9V245.772C313.484 246.428 312.9 246.956 312.148 247.356C311.396 247.756 310.524 247.956 309.532 247.956C308.412 247.956 307.388 247.668 306.46 247.092C305.532 246.516 304.796 245.708 304.252 244.668C303.724 243.612 303.46 242.404 303.46 241.044ZM313.924 241.092C313.924 240.276 313.764 239.58 313.444 239.004C313.124 238.412 312.692 237.964 312.148 237.66C311.604 237.34 311.02 237.18 310.396 237.18C309.772 237.18 309.196 237.332 308.668 237.636C308.14 237.94 307.708 238.388 307.372 238.98C307.052 239.556 306.892 240.244 306.892 241.044C306.892 241.844 307.052 242.548 307.372 243.156C307.708 243.748 308.14 244.204 308.668 244.524C309.212 244.844 309.788 245.004 310.396 245.004C311.02 245.004 311.604 244.852 312.148 244.548C312.692 244.228 313.124 243.78 313.444 243.204C313.764 242.612 313.924 241.908 313.924 241.092Z" fill="#493169"/>
</svg>
