<svg width="74" height="97" viewBox="0 0 74 97" fill="none" xmlns="http://www.w3.org/2000/svg">
<path d="M57.9306 22.3484C63.7506 28.283 66.6133 35.3224 66.6133 43.5675C66.6133 49.2275 65.2646 54.3187 62.5375 58.8736C61.4677 56.723 60.2805 54.8126 59.233 53.558C58.0123 52.0958 56.5528 50.5785 55.1153 49.3905C53.916 48.3991 51.6357 46.7427 50.1756 46.0594C46.4001 44.2917 45.6615 47.9935 36.3945 47.9935C30.2217 47.9935 27.1889 45.5667 25.3256 45.491C21.5366 45.3369 14.1565 52.8537 11.256 58.0476C8.84534 53.7055 7.61328 48.8879 7.61328 43.5675C7.61328 35.3224 10.5728 28.283 16.296 22.3484L36.8165 0.829102L57.9306 22.3484ZM23.9435 31.2446C23.9435 37.8905 29.9025 43.9357 35.8285 43.9357C40.5032 43.9357 43.2506 43.057 46.3922 39.4157C51.9686 32.951 49.5185 22.3892 41.7392 19.1625C32.4849 15.3237 23.9435 22.376 23.9435 31.2446Z" fill="#493169"/>
<path d="M40.212 60.7398C40.903 60.0355 41.7349 59.689 42.7188 59.689C43.703 59.689 44.5347 60.0355 45.2257 60.7398C45.9172 61.4443 46.2566 62.28 46.2566 63.2593C46.2566 64.2385 45.9172 65.0744 45.2257 65.7787C44.5347 66.4714 43.703 66.8295 42.7188 66.8295C41.7349 66.8295 40.903 66.4714 40.212 65.7787L37.7872 63.2113L40.212 60.7398ZM34.2611 59.0921C33.57 58.3874 33.2302 57.5516 33.2302 56.5727C33.2302 55.5934 33.57 54.7576 34.2611 54.0533C34.9521 53.3606 35.7725 53.0024 36.7328 53.0024C37.6932 53.0024 38.5136 53.3606 39.2046 54.0533C39.8841 54.7576 40.2355 55.5934 40.2355 56.5727C40.2355 57.5516 39.8841 58.3874 39.2046 59.0921L36.768 61.6472L34.2611 59.0921ZM33.0546 65.7787C32.3635 66.4714 31.5435 66.8295 30.5827 66.8295C29.6341 66.8295 28.8023 66.4714 28.111 65.7787C27.4318 65.0744 27.0801 64.2385 27.0801 63.2593C27.0801 62.28 27.4318 61.4443 28.111 60.7398C28.8023 60.0355 29.6341 59.689 30.5827 59.689C31.5435 59.689 32.3635 60.0355 33.0546 60.7398L35.5615 63.2953L33.0546 65.7787Z" fill="#FFBD00"/>
<path d="M4.63672 77.6104H6.96094L8.68945 88.0205L14.0312 77.6104H16.5508L9.10938 91.8291H7.15625L4.63672 77.6104ZM3.2793 77.6104H5.70117L4.36328 87.9131L3.66992 91.8291H0.818359L3.2793 77.6104ZM15.3789 77.6104H17.8105L15.3496 91.8291H12.4785L13.2109 87.6689L15.3789 77.6104ZM22.6055 92.0244C21.8828 92.0114 21.2318 91.8747 20.6523 91.6143C20.0729 91.3473 19.5879 90.9827 19.1973 90.5205C18.8132 90.0583 18.5299 89.5212 18.3477 88.9092C18.1654 88.2972 18.1003 87.6396 18.1523 86.9365L18.1914 86.5361C18.2695 85.8005 18.4486 85.1006 18.7285 84.4365C19.0085 83.7725 19.3828 83.1865 19.8516 82.6787C20.3203 82.1644 20.8737 81.764 21.5117 81.4775C22.1562 81.1846 22.8724 81.0479 23.6602 81.0674C24.3958 81.0804 25.0241 81.2301 25.5449 81.5166C26.0658 81.8031 26.4857 82.1872 26.8047 82.6689C27.1237 83.1507 27.3418 83.7008 27.459 84.3193C27.5762 84.9313 27.599 85.5726 27.5273 86.2432L27.3711 87.415H19.207L19.5098 85.54L24.9004 85.5498L24.9492 85.3057C25.0013 84.9476 24.985 84.6156 24.9004 84.3096C24.8158 83.9971 24.6562 83.7464 24.4219 83.5576C24.1875 83.3688 23.875 83.2679 23.4844 83.2549C23.0352 83.2419 22.6576 83.3363 22.3516 83.5381C22.0456 83.7399 21.7949 84.0068 21.5996 84.3389C21.4043 84.6709 21.2546 85.0322 21.1504 85.4229C21.0462 85.807 20.9714 86.1781 20.9258 86.5361L20.8867 86.9268C20.8542 87.2718 20.8639 87.6169 20.916 87.9619C20.9681 88.3005 21.069 88.6064 21.2188 88.8799C21.375 89.1533 21.5866 89.3747 21.8535 89.5439C22.127 89.7132 22.4688 89.8044 22.8789 89.8174C23.3997 89.8304 23.8783 89.7295 24.3145 89.5146C24.7572 89.2933 25.1543 89.0003 25.5059 88.6357L26.7363 90.1201C26.4434 90.5628 26.069 90.9274 25.6133 91.2139C25.1641 91.4938 24.679 91.6989 24.1582 91.8291C23.6374 91.9658 23.1198 92.0309 22.6055 92.0244ZM32.293 83.6064L30.877 91.8291H28.123L29.959 81.2627H32.5273L32.293 83.6064ZM31.502 86.1748L30.7695 86.1846C30.8477 85.5465 30.9909 84.9183 31.1992 84.2998C31.4141 83.6813 31.707 83.1247 32.0781 82.6299C32.4557 82.1351 32.918 81.7445 33.4648 81.458C34.0117 81.1715 34.6497 81.0381 35.3789 81.0576C35.9193 81.0706 36.3685 81.1813 36.7266 81.3896C37.0846 81.598 37.3678 81.8747 37.5762 82.2197C37.7845 82.5648 37.9212 82.9587 37.9863 83.4014C38.0579 83.8441 38.071 84.3031 38.0254 84.7783L36.8535 91.8291H34.1094L35.2324 85.0811C35.2715 84.7555 35.2682 84.4561 35.2227 84.1826C35.1771 83.9092 35.0632 83.6911 34.8809 83.5283C34.6986 83.359 34.4219 83.2679 34.0508 83.2549C33.6471 83.2419 33.2956 83.3232 32.9961 83.499C32.6966 83.6683 32.446 83.8962 32.2441 84.1826C32.0488 84.4691 31.8893 84.7881 31.7656 85.1396C31.6419 85.4847 31.554 85.8298 31.502 86.1748ZM37.6641 85.8525L36.6777 85.9893C36.7493 85.3643 36.8926 84.7588 37.1074 84.1729C37.3223 83.5804 37.6152 83.0465 37.9863 82.5713C38.3574 82.096 38.8099 81.7217 39.3438 81.4482C39.8776 81.1748 40.4961 81.0446 41.1992 81.0576C41.7786 81.0771 42.2604 81.1976 42.6445 81.4189C43.0286 81.6403 43.3249 81.9398 43.5332 82.3174C43.748 82.695 43.888 83.1214 43.9531 83.5967C44.0182 84.0654 44.0247 84.5602 43.9727 85.0811L42.8398 91.8291H40.0859L41.2188 85.0713C41.2578 84.7458 41.2546 84.4495 41.209 84.1826C41.1634 83.9092 41.0495 83.6911 40.8672 83.5283C40.6914 83.359 40.418 83.2712 40.0469 83.2646C39.6758 83.2516 39.3503 83.32 39.0703 83.4697C38.7969 83.613 38.5658 83.8115 38.377 84.0654C38.1882 84.3128 38.0352 84.5928 37.918 84.9053C37.8008 85.2178 37.7161 85.5335 37.6641 85.8525ZM47.5469 76.8291H50.3008L48.084 89.5635L47.4297 91.8291H44.9395L47.5469 76.8291ZM55.1055 86.3799L55.0859 86.5947C55.0013 87.2458 54.8516 87.8968 54.6367 88.5479C54.4284 89.1989 54.1354 89.7913 53.7578 90.3252C53.3867 90.8525 52.9212 91.2757 52.3613 91.5947C51.8079 91.9072 51.1504 92.0537 50.3887 92.0342C49.7181 92.0146 49.1647 91.8389 48.7285 91.5068C48.2923 91.1683 47.9538 90.7386 47.7129 90.2178C47.472 89.6904 47.3092 89.1273 47.2246 88.5283C47.14 87.9229 47.1074 87.3434 47.127 86.79L47.1758 86.3311C47.2799 85.7451 47.4525 85.1396 47.6934 84.5146C47.9342 83.8896 48.2435 83.3135 48.6211 82.7861C49.0052 82.2588 49.4609 81.8356 49.9883 81.5166C50.5221 81.1911 51.1341 81.0381 51.8242 81.0576C52.5534 81.0706 53.1458 81.2399 53.6016 81.5654C54.0638 81.891 54.4154 82.3174 54.6562 82.8447C54.8971 83.3656 55.0469 83.9352 55.1055 84.5537C55.1706 85.1722 55.1706 85.7809 55.1055 86.3799ZM52.3418 86.585L52.3516 86.3701C52.3841 86.0771 52.4036 85.7549 52.4102 85.4033C52.4232 85.0518 52.3939 84.7165 52.3223 84.3975C52.2507 84.0785 52.1107 83.8148 51.9023 83.6064C51.694 83.3916 51.388 83.2777 50.9844 83.2646C50.5872 83.2451 50.2389 83.307 49.9395 83.4502C49.6465 83.5934 49.3958 83.792 49.1875 84.0459C48.9792 84.2998 48.8099 84.5895 48.6797 84.915C48.5495 85.234 48.4551 85.5661 48.3965 85.9111L48.2109 87.2002C48.1849 87.6104 48.2077 88.014 48.2793 88.4111C48.3509 88.8083 48.5104 89.1403 48.7578 89.4072C49.0117 89.6676 49.3828 89.8044 49.8711 89.8174C50.3203 89.8369 50.6947 89.749 50.9941 89.5537C51.2936 89.3519 51.5345 89.0882 51.7168 88.7627C51.8991 88.4372 52.0358 88.0824 52.127 87.6982C52.2246 87.3076 52.2962 86.9365 52.3418 86.585ZM60.8281 92.0244C60.1055 92.0114 59.4544 91.8747 58.875 91.6143C58.2956 91.3473 57.8105 90.9827 57.4199 90.5205C57.0358 90.0583 56.7526 89.5212 56.5703 88.9092C56.388 88.2972 56.3229 87.6396 56.375 86.9365L56.4141 86.5361C56.4922 85.8005 56.6712 85.1006 56.9512 84.4365C57.2311 83.7725 57.6055 83.1865 58.0742 82.6787C58.543 82.1644 59.0964 81.764 59.7344 81.4775C60.3789 81.1846 61.0951 81.0479 61.8828 81.0674C62.6185 81.0804 63.2467 81.2301 63.7676 81.5166C64.2884 81.8031 64.7083 82.1872 65.0273 82.6689C65.3464 83.1507 65.5645 83.7008 65.6816 84.3193C65.7988 84.9313 65.8216 85.5726 65.75 86.2432L65.5938 87.415H57.4297L57.7324 85.54L63.123 85.5498L63.1719 85.3057C63.224 84.9476 63.2077 84.6156 63.123 84.3096C63.0384 83.9971 62.8789 83.7464 62.6445 83.5576C62.4102 83.3688 62.0977 83.2679 61.707 83.2549C61.2578 83.2419 60.8802 83.3363 60.5742 83.5381C60.2682 83.7399 60.0176 84.0068 59.8223 84.3389C59.627 84.6709 59.4772 85.0322 59.373 85.4229C59.2689 85.807 59.194 86.1781 59.1484 86.5361L59.1094 86.9268C59.0768 87.2718 59.0866 87.6169 59.1387 87.9619C59.1908 88.3005 59.2917 88.6064 59.4414 88.8799C59.5977 89.1533 59.8092 89.3747 60.0762 89.5439C60.3496 89.7132 60.6914 89.8044 61.1016 89.8174C61.6224 89.8304 62.1009 89.7295 62.5371 89.5146C62.9798 89.2933 63.377 89.0003 63.7285 88.6357L64.959 90.1201C64.666 90.5628 64.2917 90.9274 63.8359 91.2139C63.3867 91.4938 62.9017 91.6989 62.3809 91.8291C61.86 91.9658 61.3424 92.0309 60.8281 92.0244ZM70.5059 83.7139L69.0996 91.8291H66.3555L68.1914 81.2627H70.7695L70.5059 83.7139ZM73.9531 81.1748L73.6113 83.8018C73.4551 83.7757 73.2956 83.7529 73.1328 83.7334C72.9766 83.7139 72.8171 83.7008 72.6543 83.6943C72.2767 83.6878 71.9349 83.7367 71.6289 83.8408C71.3229 83.945 71.056 84.098 70.8281 84.2998C70.6068 84.4951 70.418 84.736 70.2617 85.0225C70.112 85.3089 69.998 85.6312 69.9199 85.9893L69.3828 85.8135C69.4479 85.3122 69.5553 84.7848 69.7051 84.2314C69.8613 83.6715 70.0762 83.1507 70.3496 82.6689C70.6296 82.1807 70.9844 81.7868 71.4141 81.4873C71.8503 81.1813 72.3809 81.0316 73.0059 81.0381C73.1686 81.0381 73.3249 81.0511 73.4746 81.0771C73.6309 81.1032 73.7904 81.1357 73.9531 81.1748Z" fill="#493169"/>
</svg>
