<svg width="50" height="50" viewBox="0 0 50 50" fill="none" xmlns="http://www.w3.org/2000/svg">
<path d="M42.6418 16.3024C47.574 20.7983 50 26.1312 50 32.3774C50 36.6653 48.8571 40.5223 46.5459 43.9729C45.6393 42.3436 44.6332 40.8964 43.7455 39.9459C42.7111 38.8382 41.4741 37.6887 40.2559 36.7888C39.2396 36.0377 37.3072 34.7829 36.0698 34.2652C32.8702 32.9261 32.2443 35.7304 24.3908 35.7304C19.1597 35.7304 16.5895 33.892 15.0104 33.8346C11.7994 33.7179 5.5451 39.4124 3.08704 43.3471C1.04412 40.0577 0 36.408 0 32.3774C0 26.1312 2.50805 20.7983 7.35823 16.3024L24.7485 0L42.6418 16.3024ZM13.8391 23.0419C13.8391 28.0767 18.8891 32.6563 23.9112 32.6563C27.8728 32.6563 30.2011 31.9907 32.8635 29.2321C37.5893 24.3347 35.5129 16.3333 28.9203 13.8888C21.0777 10.9807 13.8391 16.3233 13.8391 23.0419Z" fill="white"/>
<path d="M27.6288 45.3865C28.2144 44.853 28.9193 44.5905 29.7531 44.5905C30.5872 44.5905 31.292 44.853 31.8776 45.3865C32.4636 45.9202 32.7513 46.5533 32.7513 47.2952C32.7513 48.0371 32.4636 48.6702 31.8776 49.2038C31.292 49.7286 30.5872 49.9999 29.7531 49.9999C28.9193 49.9999 28.2144 49.7286 27.6288 49.2038L25.5739 47.2588L27.6288 45.3865ZM22.5856 44.1383C21.9999 43.6044 21.712 42.9712 21.712 42.2296C21.712 41.4877 21.9999 40.8546 22.5856 40.321C23.1712 39.7962 23.8664 39.5249 24.6803 39.5249C25.4942 39.5249 26.1894 39.7962 26.775 40.321C27.3509 40.8546 27.6487 41.4877 27.6487 42.2296C27.6487 42.9712 27.3509 43.6044 26.775 44.1383L24.7101 46.0739L22.5856 44.1383ZM21.5632 49.2038C20.9774 49.7286 20.2825 49.9999 19.4683 49.9999C18.6644 49.9999 17.9595 49.7286 17.3737 49.2038C16.798 48.6702 16.5 48.0371 16.5 47.2952C16.5 46.5533 16.798 45.9202 17.3737 45.3865C17.9595 44.853 18.6644 44.5905 19.4683 44.5905C20.2825 44.5905 20.9774 44.853 21.5632 45.3865L23.6876 47.3225L21.5632 49.2038Z" fill="white"/>
</svg>
