<svg width="245" height="126" viewBox="0 0 245 126" fill="none" xmlns="http://www.w3.org/2000/svg">
<path d="M14.3469 117.508H10.9269L5.20688 108.848V117.508H1.78688V103.468H5.20688L10.9269 112.168V103.468H14.3469V117.508ZM21.9059 117.668C20.8126 117.668 19.8259 117.434 18.9459 116.968C18.0793 116.501 17.3926 115.834 16.8859 114.968C16.3926 114.101 16.1459 113.088 16.1459 111.928C16.1459 110.781 16.3993 109.774 16.9059 108.908C17.4126 108.028 18.1059 107.354 18.9859 106.888C19.8659 106.421 20.8526 106.188 21.9459 106.188C23.0393 106.188 24.0259 106.421 24.9059 106.888C25.7859 107.354 26.4793 108.028 26.9859 108.908C27.4926 109.774 27.7459 110.781 27.7459 111.928C27.7459 113.074 27.4859 114.088 26.9659 114.968C26.4593 115.834 25.7593 116.501 24.8659 116.968C23.9859 117.434 22.9993 117.668 21.9059 117.668ZM21.9059 114.708C22.5593 114.708 23.1126 114.468 23.5659 113.988C24.0326 113.508 24.2659 112.821 24.2659 111.928C24.2659 111.034 24.0393 110.348 23.5859 109.868C23.1459 109.388 22.5993 109.148 21.9459 109.148C21.2793 109.148 20.7259 109.388 20.2859 109.868C19.8459 110.334 19.6259 111.021 19.6259 111.928C19.6259 112.821 19.8393 113.508 20.2659 113.988C20.7059 114.468 21.2526 114.708 21.9059 114.708ZM44.4986 107.988C44.4986 108.801 44.3119 109.548 43.9386 110.228C43.5653 110.894 42.9919 111.434 42.2186 111.848C41.4453 112.261 40.4853 112.468 39.3386 112.468H37.2186V117.508H33.7986V103.468H39.3386C40.4586 103.468 41.4053 103.661 42.1786 104.048C42.9519 104.434 43.5319 104.968 43.9186 105.648C44.3053 106.328 44.4986 107.108 44.4986 107.988ZM39.0786 109.748C39.7319 109.748 40.2186 109.594 40.5386 109.288C40.8586 108.981 41.0186 108.548 41.0186 107.988C41.0186 107.428 40.8586 106.994 40.5386 106.688C40.2186 106.381 39.7319 106.228 39.0786 106.228H37.2186V109.748H39.0786ZM51.3591 117.668C50.2657 117.668 49.2791 117.434 48.3991 116.968C47.5324 116.501 46.8457 115.834 46.3391 114.968C45.8457 114.101 45.5991 113.088 45.5991 111.928C45.5991 110.781 45.8524 109.774 46.3591 108.908C46.8657 108.028 47.5591 107.354 48.4391 106.888C49.3191 106.421 50.3057 106.188 51.3991 106.188C52.4924 106.188 53.4791 106.421 54.3591 106.888C55.2391 107.354 55.9324 108.028 56.4391 108.908C56.9457 109.774 57.1991 110.781 57.1991 111.928C57.1991 113.074 56.9391 114.088 56.4191 114.968C55.9124 115.834 55.2124 116.501 54.3191 116.968C53.4391 117.434 52.4524 117.668 51.3591 117.668ZM51.3591 114.708C52.0124 114.708 52.5657 114.468 53.0191 113.988C53.4857 113.508 53.7191 112.821 53.7191 111.928C53.7191 111.034 53.4924 110.348 53.0391 109.868C52.5991 109.388 52.0524 109.148 51.3991 109.148C50.7324 109.148 50.1791 109.388 49.7391 109.868C49.2991 110.334 49.0791 111.021 49.0791 111.928C49.0791 112.821 49.2924 113.508 49.7191 113.988C50.1591 114.468 50.7057 114.708 51.3591 114.708ZM60.7334 105.188C60.1334 105.188 59.6401 105.014 59.2534 104.668C58.8801 104.308 58.6934 103.868 58.6934 103.348C58.6934 102.814 58.8801 102.374 59.2534 102.028C59.6401 101.668 60.1334 101.488 60.7334 101.488C61.3201 101.488 61.8001 101.668 62.1734 102.028C62.5601 102.374 62.7534 102.814 62.7534 103.348C62.7534 103.868 62.5601 104.308 62.1734 104.668C61.8001 105.014 61.3201 105.188 60.7334 105.188ZM62.4334 106.348V117.508H59.0134V106.348H62.4334ZM71.7119 106.228C73.0185 106.228 74.0585 106.654 74.8319 107.508C75.6185 108.348 76.0119 109.508 76.0119 110.988V117.508H72.6119V111.448C72.6119 110.701 72.4185 110.121 72.0319 109.708C71.6452 109.294 71.1252 109.088 70.4719 109.088C69.8185 109.088 69.2985 109.294 68.9119 109.708C68.5252 110.121 68.3319 110.701 68.3319 111.448V117.508H64.9119V106.348H68.3319V107.828C68.6785 107.334 69.1452 106.948 69.7319 106.668C70.3185 106.374 70.9785 106.228 71.7119 106.228ZM84.6084 114.608V117.508H82.8684C81.6284 117.508 80.6618 117.208 79.9684 116.608C79.2751 115.994 78.9284 115.001 78.9284 113.628V109.188H77.5684V106.348H78.9284V103.628H82.3484V106.348H84.5884V109.188H82.3484V113.668C82.3484 114.001 82.4284 114.241 82.5884 114.388C82.7484 114.534 83.0151 114.608 83.3884 114.608H84.6084ZM91.0534 117.668C90.0801 117.668 89.2134 117.501 88.4534 117.168C87.6934 116.834 87.0934 116.381 86.6534 115.808C86.2134 115.221 85.9668 114.568 85.9134 113.848H89.2934C89.3334 114.234 89.5134 114.548 89.8334 114.788C90.1534 115.028 90.5468 115.148 91.0134 115.148C91.4401 115.148 91.7668 115.068 91.9934 114.908C92.2334 114.734 92.3534 114.514 92.3534 114.248C92.3534 113.928 92.1868 113.694 91.8534 113.548C91.5201 113.388 90.9801 113.214 90.2334 113.028C89.4334 112.841 88.7668 112.648 88.2334 112.448C87.7001 112.234 87.2401 111.908 86.8534 111.468C86.4668 111.014 86.2734 110.408 86.2734 109.648C86.2734 109.008 86.4468 108.428 86.7934 107.908C87.1534 107.374 87.6734 106.954 88.3534 106.648C89.0468 106.341 89.8668 106.188 90.8134 106.188C92.2134 106.188 93.3134 106.534 94.1134 107.228C94.9268 107.921 95.3934 108.841 95.5134 109.988H92.3534C92.3001 109.601 92.1268 109.294 91.8334 109.068C91.5534 108.841 91.1801 108.728 90.7134 108.728C90.3134 108.728 90.0068 108.808 89.7934 108.968C89.5801 109.114 89.4734 109.321 89.4734 109.588C89.4734 109.908 89.6401 110.148 89.9734 110.308C90.3201 110.468 90.8534 110.628 91.5734 110.788C92.4001 111.001 93.0734 111.214 93.5934 111.428C94.1134 111.628 94.5668 111.961 94.9534 112.428C95.3534 112.881 95.5601 113.494 95.5734 114.268C95.5734 114.921 95.3868 115.508 95.0134 116.028C94.6534 116.534 94.1268 116.934 93.4334 117.228C92.7534 117.521 91.9601 117.668 91.0534 117.668ZM112.004 103.468V106.208H108.284V117.508H104.864V106.208H101.144V103.468H112.004ZM117.14 108.208C117.54 107.594 118.04 107.114 118.64 106.768C119.24 106.408 119.907 106.228 120.64 106.228V109.848H119.7C118.847 109.848 118.207 110.034 117.78 110.408C117.354 110.768 117.14 111.408 117.14 112.328V117.508H113.72V106.348H117.14V108.208ZM121.595 111.908C121.595 110.761 121.808 109.754 122.235 108.888C122.675 108.021 123.268 107.354 124.015 106.888C124.762 106.421 125.595 106.188 126.515 106.188C127.302 106.188 127.988 106.348 128.575 106.668C129.175 106.988 129.635 107.408 129.955 107.928V106.348H133.375V117.508H129.955V115.928C129.622 116.448 129.155 116.868 128.555 117.188C127.968 117.508 127.282 117.668 126.495 117.668C125.588 117.668 124.762 117.434 124.015 116.968C123.268 116.488 122.675 115.814 122.235 114.948C121.808 114.068 121.595 113.054 121.595 111.908ZM129.955 111.928C129.955 111.074 129.715 110.401 129.235 109.908C128.768 109.414 128.195 109.168 127.515 109.168C126.835 109.168 126.255 109.414 125.775 109.908C125.308 110.388 125.075 111.054 125.075 111.908C125.075 112.761 125.308 113.441 125.775 113.948C126.255 114.441 126.835 114.688 127.515 114.688C128.195 114.688 128.768 114.441 129.235 113.948C129.715 113.454 129.955 112.781 129.955 111.928ZM142.649 106.228C143.956 106.228 144.996 106.654 145.769 107.508C146.556 108.348 146.949 109.508 146.949 110.988V117.508H143.549V111.448C143.549 110.701 143.356 110.121 142.969 109.708C142.583 109.294 142.063 109.088 141.409 109.088C140.756 109.088 140.236 109.294 139.849 109.708C139.463 110.121 139.269 110.701 139.269 111.448V117.508H135.849V106.348H139.269V107.828C139.616 107.334 140.083 106.948 140.669 106.668C141.256 106.374 141.916 106.228 142.649 106.228ZM153.866 117.668C152.893 117.668 152.026 117.501 151.266 117.168C150.506 116.834 149.906 116.381 149.466 115.808C149.026 115.221 148.779 114.568 148.726 113.848H152.106C152.146 114.234 152.326 114.548 152.646 114.788C152.966 115.028 153.359 115.148 153.826 115.148C154.253 115.148 154.579 115.068 154.806 114.908C155.046 114.734 155.166 114.514 155.166 114.248C155.166 113.928 154.999 113.694 154.666 113.548C154.333 113.388 153.793 113.214 153.046 113.028C152.246 112.841 151.579 112.648 151.046 112.448C150.513 112.234 150.053 111.908 149.666 111.468C149.279 111.014 149.086 110.408 149.086 109.648C149.086 109.008 149.259 108.428 149.606 107.908C149.966 107.374 150.486 106.954 151.166 106.648C151.859 106.341 152.679 106.188 153.626 106.188C155.026 106.188 156.126 106.534 156.926 107.228C157.739 107.921 158.206 108.841 158.326 109.988H155.166C155.113 109.601 154.939 109.294 154.646 109.068C154.366 108.841 153.993 108.728 153.526 108.728C153.126 108.728 152.819 108.808 152.606 108.968C152.393 109.114 152.286 109.321 152.286 109.588C152.286 109.908 152.453 110.148 152.786 110.308C153.133 110.468 153.666 110.628 154.386 110.788C155.213 111.001 155.886 111.214 156.406 111.428C156.926 111.628 157.379 111.961 157.766 112.428C158.166 112.881 158.373 113.494 158.386 114.268C158.386 114.921 158.199 115.508 157.826 116.028C157.466 116.534 156.939 116.934 156.246 117.228C155.566 117.521 154.773 117.668 153.866 117.668ZM159.798 111.908C159.798 110.761 160.012 109.754 160.438 108.888C160.878 108.021 161.472 107.354 162.218 106.888C162.965 106.421 163.798 106.188 164.718 106.188C165.505 106.188 166.192 106.348 166.778 106.668C167.378 106.988 167.838 107.408 168.158 107.928V106.348H171.578V117.508H168.158V115.928C167.825 116.448 167.358 116.868 166.758 117.188C166.172 117.508 165.485 117.668 164.698 117.668C163.792 117.668 162.965 117.434 162.218 116.968C161.472 116.488 160.878 115.814 160.438 114.948C160.012 114.068 159.798 113.054 159.798 111.908ZM168.158 111.928C168.158 111.074 167.918 110.401 167.438 109.908C166.972 109.414 166.398 109.168 165.718 109.168C165.038 109.168 164.458 109.414 163.978 109.908C163.512 110.388 163.278 111.054 163.278 111.908C163.278 112.761 163.512 113.441 163.978 113.948C164.458 114.441 165.038 114.688 165.718 114.688C166.398 114.688 166.972 114.441 167.438 113.948C167.918 113.454 168.158 112.781 168.158 111.928ZM173.373 111.928C173.373 110.768 173.606 109.754 174.073 108.888C174.553 108.021 175.213 107.354 176.053 106.888C176.906 106.421 177.879 106.188 178.973 106.188C180.373 106.188 181.539 106.554 182.473 107.288C183.419 108.021 184.039 109.054 184.333 110.388H180.693C180.386 109.534 179.793 109.108 178.913 109.108C178.286 109.108 177.786 109.354 177.413 109.848C177.039 110.328 176.853 111.021 176.853 111.928C176.853 112.834 177.039 113.534 177.413 114.028C177.786 114.508 178.286 114.748 178.913 114.748C179.793 114.748 180.386 114.321 180.693 113.468H184.333C184.039 114.774 183.419 115.801 182.473 116.548C181.526 117.294 180.359 117.668 178.973 117.668C177.879 117.668 176.906 117.434 176.053 116.968C175.213 116.501 174.553 115.834 174.073 114.968C173.606 114.101 173.373 113.088 173.373 111.928ZM192.382 114.608V117.508H190.642C189.402 117.508 188.435 117.208 187.742 116.608C187.049 115.994 186.702 115.001 186.702 113.628V109.188H185.342V106.348H186.702V103.628H190.122V106.348H192.362V109.188H190.122V113.668C190.122 114.001 190.202 114.241 190.362 114.388C190.522 114.534 190.789 114.608 191.162 114.608H192.382ZM196.007 105.188C195.407 105.188 194.914 105.014 194.527 104.668C194.154 104.308 193.967 103.868 193.967 103.348C193.967 102.814 194.154 102.374 194.527 102.028C194.914 101.668 195.407 101.488 196.007 101.488C196.594 101.488 197.074 101.668 197.447 102.028C197.834 102.374 198.027 102.814 198.027 103.348C198.027 103.868 197.834 104.308 197.447 104.668C197.074 105.014 196.594 105.188 196.007 105.188ZM197.707 106.348V117.508H194.287V106.348H197.707ZM205.265 117.668C204.172 117.668 203.185 117.434 202.305 116.968C201.439 116.501 200.752 115.834 200.245 114.968C199.752 114.101 199.505 113.088 199.505 111.928C199.505 110.781 199.759 109.774 200.265 108.908C200.772 108.028 201.465 107.354 202.345 106.888C203.225 106.421 204.212 106.188 205.305 106.188C206.399 106.188 207.385 106.421 208.265 106.888C209.145 107.354 209.839 108.028 210.345 108.908C210.852 109.774 211.105 110.781 211.105 111.928C211.105 113.074 210.845 114.088 210.325 114.968C209.819 115.834 209.119 116.501 208.225 116.968C207.345 117.434 206.359 117.668 205.265 117.668ZM205.265 114.708C205.919 114.708 206.472 114.468 206.925 113.988C207.392 113.508 207.625 112.821 207.625 111.928C207.625 111.034 207.399 110.348 206.945 109.868C206.505 109.388 205.959 109.148 205.305 109.148C204.639 109.148 204.085 109.388 203.645 109.868C203.205 110.334 202.985 111.021 202.985 111.928C202.985 112.821 203.199 113.508 203.625 113.988C204.065 114.468 204.612 114.708 205.265 114.708ZM219.72 106.228C221.026 106.228 222.066 106.654 222.84 107.508C223.626 108.348 224.02 109.508 224.02 110.988V117.508H220.62V111.448C220.62 110.701 220.426 110.121 220.04 109.708C219.653 109.294 219.133 109.088 218.48 109.088C217.826 109.088 217.306 109.294 216.92 109.708C216.533 110.121 216.34 110.701 216.34 111.448V117.508H212.92V106.348H216.34V107.828C216.686 107.334 217.153 106.948 217.74 106.668C218.326 106.374 218.986 106.228 219.72 106.228ZM230.936 117.668C229.963 117.668 229.096 117.501 228.336 117.168C227.576 116.834 226.976 116.381 226.536 115.808C226.096 115.221 225.85 114.568 225.796 113.848H229.176C229.216 114.234 229.396 114.548 229.716 114.788C230.036 115.028 230.43 115.148 230.896 115.148C231.323 115.148 231.65 115.068 231.876 114.908C232.116 114.734 232.236 114.514 232.236 114.248C232.236 113.928 232.07 113.694 231.736 113.548C231.403 113.388 230.863 113.214 230.116 113.028C229.316 112.841 228.65 112.648 228.116 112.448C227.583 112.234 227.123 111.908 226.736 111.468C226.35 111.014 226.156 110.408 226.156 109.648C226.156 109.008 226.33 108.428 226.676 107.908C227.036 107.374 227.556 106.954 228.236 106.648C228.93 106.341 229.75 106.188 230.696 106.188C232.096 106.188 233.196 106.534 233.996 107.228C234.81 107.921 235.276 108.841 235.396 109.988H232.236C232.183 109.601 232.01 109.294 231.716 109.068C231.436 108.841 231.063 108.728 230.596 108.728C230.196 108.728 229.89 108.808 229.676 108.968C229.463 109.114 229.356 109.321 229.356 109.588C229.356 109.908 229.523 110.148 229.856 110.308C230.203 110.468 230.736 110.628 231.456 110.788C232.283 111.001 232.956 111.214 233.476 111.428C233.996 111.628 234.45 111.961 234.836 112.428C235.236 112.881 235.443 113.494 235.456 114.268C235.456 114.921 235.27 115.508 234.896 116.028C234.536 116.534 234.01 116.934 233.316 117.228C232.636 117.521 231.843 117.668 230.936 117.668Z" fill="#FFBD00"/>
<g filter="url(#filter0_dd_2265_8636)">
<ellipse cx="123" cy="40.0078" rx="37.5" ry="39.5" fill="#FFBD00"/>
<path d="M158 40.0078C158 60.5663 142.209 77.0078 123 77.0078C103.791 77.0078 88 60.5663 88 40.0078C88 19.4493 103.791 3.00781 123 3.00781C142.209 3.00781 158 19.4493 158 40.0078Z" stroke="#FFD764" stroke-width="5"/>
</g>
<g filter="url(#filter1_d_2265_8636)">
<path d="M131.803 38.7854C133.556 36.7575 135.666 35.7598 138.161 35.7598C140.657 35.7598 142.766 36.7575 144.518 38.7854C146.272 40.8138 147.133 43.2198 147.133 46.0393C147.133 48.8589 146.272 51.2654 144.518 53.2933C142.766 55.2877 140.657 56.3188 138.161 56.3188C135.666 56.3188 133.556 55.2877 131.803 53.2933L125.654 45.9011L131.803 38.7854ZM116.712 34.0412C114.959 32.0124 114.097 29.6059 114.097 26.7873C114.097 23.9678 114.959 21.5613 116.712 19.5334C118.464 17.539 120.544 16.5078 122.98 16.5078C125.416 16.5078 127.496 17.539 129.248 19.5334C130.972 21.5613 131.863 23.9678 131.863 26.7873C131.863 29.6059 130.972 32.0124 129.248 34.0412L123.069 41.3979L116.712 34.0412ZM113.652 53.2933C111.899 55.2877 109.819 56.3188 107.383 56.3188C104.977 56.3188 102.868 55.2877 101.115 53.2933C99.3919 51.2654 98.5 48.8589 98.5 46.0393C98.5 43.2198 99.3919 40.8138 101.115 38.7854C102.868 36.7575 104.977 35.7598 107.383 35.7598C109.819 35.7598 111.899 36.7575 113.652 38.7854L120.009 46.1431L113.652 53.2933Z" fill="white"/>
</g>
<g filter="url(#filter2_d_2265_8636)">
<rect x="160.494" y="0.502441" width="7.30273" height="108.721" rx="3.65137" transform="rotate(47.0631 160.494 0.502441)" fill="#FFBD00"/>
</g>
<defs>
<filter id="filter0_dd_2265_8636" x="82.5" y="0.507812" width="83" height="87" filterUnits="userSpaceOnUse" color-interpolation-filters="sRGB">
<feFlood flood-opacity="0" result="BackgroundImageFix"/>
<feColorMatrix in="SourceAlpha" type="matrix" values="0 0 0 0 0 0 0 0 0 0 0 0 0 0 0 0 0 0 127 0" result="hardAlpha"/>
<feOffset dx="2" dy="2"/>
<feComposite in2="hardAlpha" operator="out"/>
<feColorMatrix type="matrix" values="0 0 0 0 1 0 0 0 0 0.741176 0 0 0 0 0 0 0 0 1 0"/>
<feBlend mode="normal" in2="BackgroundImageFix" result="effect1_dropShadow_2265_8636"/>
<feColorMatrix in="SourceAlpha" type="matrix" values="0 0 0 0 0 0 0 0 0 0 0 0 0 0 0 0 0 0 127 0" result="hardAlpha"/>
<feOffset dx="1" dy="4"/>
<feGaussianBlur stdDeviation="2"/>
<feComposite in2="hardAlpha" operator="out"/>
<feColorMatrix type="matrix" values="0 0 0 0 0 0 0 0 0 0 0 0 0 0 0 0 0 0 0.25 0"/>
<feBlend mode="normal" in2="effect1_dropShadow_2265_8636" result="effect2_dropShadow_2265_8636"/>
<feBlend mode="normal" in="SourceGraphic" in2="effect2_dropShadow_2265_8636" result="shape"/>
</filter>
<filter id="filter1_d_2265_8636" x="98.5" y="16.5078" width="49.6328" height="41.811" filterUnits="userSpaceOnUse" color-interpolation-filters="sRGB">
<feFlood flood-opacity="0" result="BackgroundImageFix"/>
<feColorMatrix in="SourceAlpha" type="matrix" values="0 0 0 0 0 0 0 0 0 0 0 0 0 0 0 0 0 0 127 0" result="hardAlpha"/>
<feOffset dx="1" dy="2"/>
<feComposite in2="hardAlpha" operator="out"/>
<feColorMatrix type="matrix" values="0 0 0 0 1 0 0 0 0 0.842549 0 0 0 0 0.391667 0 0 0 1 0"/>
<feBlend mode="normal" in2="BackgroundImageFix" result="effect1_dropShadow_2265_8636"/>
<feBlend mode="normal" in="SourceGraphic" in2="effect1_dropShadow_2265_8636" result="shape"/>
</filter>
<filter id="filter2_d_2265_8636" x="78.4082" y="2.01172" width="89.5508" height="84.3882" filterUnits="userSpaceOnUse" color-interpolation-filters="sRGB">
<feFlood flood-opacity="0" result="BackgroundImageFix"/>
<feColorMatrix in="SourceAlpha" type="matrix" values="0 0 0 0 0 0 0 0 0 0 0 0 0 0 0 0 0 0 127 0" result="hardAlpha"/>
<feOffset dy="4"/>
<feGaussianBlur stdDeviation="2"/>
<feComposite in2="hardAlpha" operator="out"/>
<feColorMatrix type="matrix" values="0 0 0 0 0 0 0 0 0 0 0 0 0 0 0 0 0 0 0.25 0"/>
<feBlend mode="normal" in2="BackgroundImageFix" result="effect1_dropShadow_2265_8636"/>
<feBlend mode="normal" in="SourceGraphic" in2="effect1_dropShadow_2265_8636" result="shape"/>
</filter>
</defs>
</svg>
