<svg width="223" height="245" viewBox="0 0 223 245" fill="none" xmlns="http://www.w3.org/2000/svg">
<path d="M13.5456 225.154L8.68563 234.554V239.194H5.26562V234.554L0.405625 225.154H4.28563L7.00563 231.034L9.70563 225.154H13.5456ZM20.0036 239.354C18.9103 239.354 17.9236 239.121 17.0436 238.654C16.1769 238.187 15.4903 237.521 14.9836 236.654C14.4903 235.787 14.2436 234.774 14.2436 233.614C14.2436 232.467 14.4969 231.461 15.0036 230.594C15.5103 229.714 16.2036 229.041 17.0836 228.574C17.9636 228.107 18.9503 227.874 20.0436 227.874C21.1369 227.874 22.1236 228.107 23.0036 228.574C23.8836 229.041 24.5769 229.714 25.0836 230.594C25.5903 231.461 25.8436 232.467 25.8436 233.614C25.8436 234.761 25.5836 235.774 25.0636 236.654C24.5569 237.521 23.8569 238.187 22.9636 238.654C22.0836 239.121 21.0969 239.354 20.0036 239.354ZM20.0036 236.394C20.6569 236.394 21.2103 236.154 21.6636 235.674C22.1303 235.194 22.3636 234.507 22.3636 233.614C22.3636 232.721 22.1369 232.034 21.6836 231.554C21.2436 231.074 20.6969 230.834 20.0436 230.834C19.3769 230.834 18.8236 231.074 18.3836 231.554C17.9436 232.021 17.7236 232.707 17.7236 233.614C17.7236 234.507 17.9369 235.194 18.3636 235.674C18.8036 236.154 19.3503 236.394 20.0036 236.394ZM38.678 228.034V239.194H35.258V237.674C34.9113 238.167 34.438 238.567 33.838 238.874C33.2513 239.167 32.598 239.314 31.878 239.314C31.0246 239.314 30.2713 239.127 29.618 238.754C28.9646 238.367 28.458 237.814 28.098 237.094C27.738 236.374 27.558 235.527 27.558 234.554V228.034H30.958V234.094C30.958 234.841 31.1513 235.421 31.538 235.834C31.9246 236.247 32.4446 236.454 33.098 236.454C33.7646 236.454 34.2913 236.247 34.678 235.834C35.0646 235.421 35.258 234.841 35.258 234.094V228.034H38.678ZM57.5328 225.154V239.194H54.1128V233.414H48.7928V239.194H45.3728V225.154H48.7928V230.654H54.1128V225.154H57.5328ZM59.3217 233.594C59.3217 232.447 59.5351 231.441 59.9617 230.574C60.4017 229.707 60.9951 229.041 61.7417 228.574C62.4884 228.107 63.3217 227.874 64.2417 227.874C65.0284 227.874 65.7151 228.034 66.3017 228.354C66.9017 228.674 67.3617 229.094 67.6817 229.614V228.034H71.1017V239.194H67.6817V237.614C67.3484 238.134 66.8817 238.554 66.2817 238.874C65.6951 239.194 65.0084 239.354 64.2217 239.354C63.3151 239.354 62.4884 239.121 61.7417 238.654C60.9951 238.174 60.4017 237.501 59.9617 236.634C59.5351 235.754 59.3217 234.741 59.3217 233.594ZM67.6817 233.614C67.6817 232.761 67.4417 232.087 66.9617 231.594C66.4951 231.101 65.9217 230.854 65.2417 230.854C64.5617 230.854 63.9817 231.101 63.5017 231.594C63.0351 232.074 62.8017 232.741 62.8017 233.594C62.8017 234.447 63.0351 235.127 63.5017 235.634C63.9817 236.127 64.5617 236.374 65.2417 236.374C65.9217 236.374 66.4951 236.127 66.9617 235.634C67.4417 235.141 67.6817 234.467 67.6817 233.614ZM78.5959 235.994L81.0159 228.034H84.6559L80.6959 239.194H76.4759L72.5159 228.034H76.1759L78.5959 235.994ZM96.6155 233.434C96.6155 233.754 96.5955 234.087 96.5555 234.434H88.8155C88.8688 235.127 89.0888 235.661 89.4755 236.034C89.8755 236.394 90.3621 236.574 90.9355 236.574C91.7888 236.574 92.3821 236.214 92.7155 235.494H96.3555C96.1688 236.227 95.8288 236.887 95.3355 237.474C94.8555 238.061 94.2488 238.521 93.5155 238.854C92.7821 239.187 91.9621 239.354 91.0555 239.354C89.9621 239.354 88.9888 239.121 88.1355 238.654C87.2821 238.187 86.6155 237.521 86.1355 236.654C85.6555 235.787 85.4155 234.774 85.4155 233.614C85.4155 232.454 85.6488 231.441 86.1155 230.574C86.5955 229.707 87.2621 229.041 88.1155 228.574C88.9688 228.107 89.9488 227.874 91.0555 227.874C92.1355 227.874 93.0955 228.101 93.9355 228.554C94.7755 229.007 95.4288 229.654 95.8955 230.494C96.3755 231.334 96.6155 232.314 96.6155 233.434ZM93.1155 232.534C93.1155 231.947 92.9155 231.481 92.5155 231.134C92.1155 230.787 91.6155 230.614 91.0155 230.614C90.4421 230.614 89.9555 230.781 89.5555 231.114C89.1688 231.447 88.9288 231.921 88.8355 232.534H93.1155ZM105.22 227.914C106.526 227.914 107.566 228.341 108.34 229.194C109.126 230.034 109.52 231.194 109.52 232.674V239.194H106.12V233.134C106.12 232.387 105.926 231.807 105.54 231.394C105.153 230.981 104.633 230.774 103.98 230.774C103.326 230.774 102.806 230.981 102.42 231.394C102.033 231.807 101.84 232.387 101.84 233.134V239.194H98.4197V228.034H101.84V229.514C102.186 229.021 102.653 228.634 103.24 228.354C103.826 228.061 104.486 227.914 105.22 227.914ZM112.676 225.154H116.176L113.936 230.514H111.636L112.676 225.154ZM124.405 236.294V239.194H122.665C121.425 239.194 120.459 238.894 119.765 238.294C119.072 237.681 118.725 236.687 118.725 235.314V230.874H117.365V228.034H118.725V225.314H122.145V228.034H124.385V230.874H122.145V235.354C122.145 235.687 122.225 235.927 122.385 236.074C122.545 236.221 122.812 236.294 123.185 236.294H124.405ZM135.629 239.334C134.602 239.334 133.682 239.167 132.869 238.834C132.055 238.501 131.402 238.007 130.909 237.354C130.429 236.701 130.175 235.914 130.149 234.994H133.789C133.842 235.514 134.022 235.914 134.329 236.194C134.635 236.461 135.035 236.594 135.529 236.594C136.035 236.594 136.435 236.481 136.729 236.254C137.022 236.014 137.169 235.687 137.169 235.274C137.169 234.927 137.049 234.641 136.809 234.414C136.582 234.187 136.295 234.001 135.949 233.854C135.615 233.707 135.135 233.541 134.509 233.354C133.602 233.074 132.862 232.794 132.289 232.514C131.715 232.234 131.222 231.821 130.809 231.274C130.395 230.727 130.189 230.014 130.189 229.134C130.189 227.827 130.662 226.807 131.609 226.074C132.555 225.327 133.789 224.954 135.309 224.954C136.855 224.954 138.102 225.327 139.049 226.074C139.995 226.807 140.502 227.834 140.569 229.154H136.869C136.842 228.701 136.675 228.347 136.369 228.094C136.062 227.827 135.669 227.694 135.189 227.694C134.775 227.694 134.442 227.807 134.189 228.034C133.935 228.247 133.809 228.561 133.809 228.974C133.809 229.427 134.022 229.781 134.449 230.034C134.875 230.287 135.542 230.561 136.449 230.854C137.355 231.161 138.089 231.454 138.649 231.734C139.222 232.014 139.715 232.421 140.129 232.954C140.542 233.487 140.749 234.174 140.749 235.014C140.749 235.814 140.542 236.541 140.129 237.194C139.729 237.847 139.142 238.367 138.369 238.754C137.595 239.141 136.682 239.334 135.629 239.334ZM149.713 227.914C150.993 227.914 152.02 228.341 152.793 229.194C153.567 230.034 153.953 231.194 153.953 232.674V239.194H150.553V233.134C150.553 232.387 150.36 231.807 149.973 231.394C149.587 230.981 149.067 230.774 148.413 230.774C147.76 230.774 147.24 230.981 146.853 231.394C146.467 231.807 146.273 232.387 146.273 233.134V239.194H142.853V224.394H146.273V229.534C146.62 229.041 147.093 228.647 147.693 228.354C148.293 228.061 148.967 227.914 149.713 227.914ZM161.41 239.354C160.317 239.354 159.33 239.121 158.45 238.654C157.583 238.187 156.897 237.521 156.39 236.654C155.897 235.787 155.65 234.774 155.65 233.614C155.65 232.467 155.903 231.461 156.41 230.594C156.917 229.714 157.61 229.041 158.49 228.574C159.37 228.107 160.357 227.874 161.45 227.874C162.543 227.874 163.53 228.107 164.41 228.574C165.29 229.041 165.983 229.714 166.49 230.594C166.997 231.461 167.25 232.467 167.25 233.614C167.25 234.761 166.99 235.774 166.47 236.654C165.963 237.521 165.263 238.187 164.37 238.654C163.49 239.121 162.503 239.354 161.41 239.354ZM161.41 236.394C162.063 236.394 162.617 236.154 163.07 235.674C163.537 235.194 163.77 234.507 163.77 233.614C163.77 232.721 163.543 232.034 163.09 231.554C162.65 231.074 162.103 230.834 161.45 230.834C160.783 230.834 160.23 231.074 159.79 231.554C159.35 232.021 159.13 232.707 159.13 233.614C159.13 234.507 159.343 235.194 159.77 235.674C160.21 236.154 160.757 236.394 161.41 236.394ZM172.484 229.614C172.818 229.094 173.278 228.674 173.864 228.354C174.451 228.034 175.138 227.874 175.924 227.874C176.844 227.874 177.678 228.107 178.424 228.574C179.171 229.041 179.758 229.707 180.184 230.574C180.624 231.441 180.844 232.447 180.844 233.594C180.844 234.741 180.624 235.754 180.184 236.634C179.758 237.501 179.171 238.174 178.424 238.654C177.678 239.121 176.844 239.354 175.924 239.354C175.151 239.354 174.464 239.194 173.864 238.874C173.278 238.554 172.818 238.141 172.484 237.634V244.514H169.064V228.034H172.484V229.614ZM177.364 233.594C177.364 232.741 177.124 232.074 176.644 231.594C176.178 231.101 175.598 230.854 174.904 230.854C174.224 230.854 173.644 231.101 173.164 231.594C172.698 232.087 172.464 232.761 172.464 233.614C172.464 234.467 172.698 235.141 173.164 235.634C173.644 236.127 174.224 236.374 174.904 236.374C175.584 236.374 176.164 236.127 176.644 235.634C177.124 235.127 177.364 234.447 177.364 233.594ZM186.058 229.614C186.392 229.094 186.852 228.674 187.438 228.354C188.025 228.034 188.712 227.874 189.498 227.874C190.418 227.874 191.252 228.107 191.998 228.574C192.745 229.041 193.332 229.707 193.758 230.574C194.198 231.441 194.418 232.447 194.418 233.594C194.418 234.741 194.198 235.754 193.758 236.634C193.332 237.501 192.745 238.174 191.998 238.654C191.252 239.121 190.418 239.354 189.498 239.354C188.725 239.354 188.038 239.194 187.438 238.874C186.852 238.554 186.392 238.141 186.058 237.634V244.514H182.638V228.034H186.058V229.614ZM190.938 233.594C190.938 232.741 190.698 232.074 190.218 231.594C189.752 231.101 189.172 230.854 188.478 230.854C187.798 230.854 187.218 231.101 186.738 231.594C186.272 232.087 186.038 232.761 186.038 233.614C186.038 234.467 186.272 235.141 186.738 235.634C187.218 236.127 187.798 236.374 188.478 236.374C189.158 236.374 189.738 236.127 190.218 235.634C190.698 235.127 190.938 234.447 190.938 233.594ZM206.733 233.434C206.733 233.754 206.713 234.087 206.673 234.434H198.933C198.986 235.127 199.206 235.661 199.593 236.034C199.993 236.394 200.479 236.574 201.053 236.574C201.906 236.574 202.499 236.214 202.833 235.494H206.473C206.286 236.227 205.946 236.887 205.453 237.474C204.973 238.061 204.366 238.521 203.633 238.854C202.899 239.187 202.079 239.354 201.173 239.354C200.079 239.354 199.106 239.121 198.253 238.654C197.399 238.187 196.733 237.521 196.253 236.654C195.773 235.787 195.533 234.774 195.533 233.614C195.533 232.454 195.766 231.441 196.233 230.574C196.713 229.707 197.379 229.041 198.233 228.574C199.086 228.107 200.066 227.874 201.173 227.874C202.253 227.874 203.213 228.101 204.053 228.554C204.893 229.007 205.546 229.654 206.013 230.494C206.493 231.334 206.733 232.314 206.733 233.434ZM203.233 232.534C203.233 231.947 203.033 231.481 202.633 231.134C202.233 230.787 201.733 230.614 201.133 230.614C200.559 230.614 200.073 230.781 199.673 231.114C199.286 231.447 199.046 231.921 198.953 232.534H203.233ZM207.857 233.594C207.857 232.447 208.07 231.441 208.497 230.574C208.937 229.707 209.53 229.041 210.277 228.574C211.024 228.107 211.857 227.874 212.777 227.874C213.51 227.874 214.177 228.027 214.777 228.334C215.39 228.641 215.87 229.054 216.217 229.574V224.394H219.637V239.194H216.217V237.594C215.897 238.127 215.437 238.554 214.837 238.874C214.25 239.194 213.564 239.354 212.777 239.354C211.857 239.354 211.024 239.121 210.277 238.654C209.53 238.174 208.937 237.501 208.497 236.634C208.07 235.754 207.857 234.741 207.857 233.594ZM216.217 233.614C216.217 232.761 215.977 232.087 215.497 231.594C215.03 231.101 214.457 230.854 213.777 230.854C213.097 230.854 212.517 231.101 212.037 231.594C211.57 232.074 211.337 232.741 211.337 233.594C211.337 234.447 211.57 235.127 212.037 235.634C212.517 236.127 213.097 236.374 213.777 236.374C214.457 236.374 215.03 236.127 215.497 235.634C215.977 235.141 216.217 234.467 216.217 233.614Z" fill="#7858A1"/>
<path d="M59.9056 21.4166C58.8436 22.6773 57.5651 23.2977 56.053 23.2977C54.5404 23.2977 53.2622 22.6773 52.2002 21.4166C51.1375 20.1555 50.6158 18.6596 50.6158 16.9066C50.6158 15.1536 51.1375 13.6574 52.2002 12.3966C53.2622 11.1566 54.5404 10.5156 56.053 10.5156C57.5651 10.5156 58.8436 11.1566 59.9056 12.3966L63.6322 16.9925L59.9056 21.4166ZM69.0514 24.3661C70.1137 25.6275 70.6359 27.1237 70.6359 28.8761C70.6359 30.6291 70.1137 32.1253 69.0514 33.3861C67.9895 34.6261 66.7287 35.2671 65.2527 35.2671C63.7767 35.2671 62.5159 34.6261 61.454 33.3861C60.4095 32.1253 59.8695 30.6291 59.8695 28.8761C59.8695 27.1237 60.4095 25.6275 61.454 24.3661L65.1986 19.7923L69.0514 24.3661ZM70.9057 12.3966C71.968 11.1566 73.2282 10.5156 74.7047 10.5156C76.1627 10.5156 77.441 11.1566 78.5035 12.3966C79.5474 13.6574 80.0879 15.1536 80.0879 16.9066C80.0879 18.6596 79.5474 20.1555 78.5035 21.4166C77.441 22.6773 76.1627 23.2977 74.7047 23.2977C73.2282 23.2977 71.968 22.6773 70.9057 21.4166L67.0529 16.8421L70.9057 12.3966Z" fill="#FCB945"/>
<path d="M41.4514 110.528L41.3836 147.217L181.3 147.522L181.368 110.833L183.781 110.839L183.961 13.1943C183.974 6.355 178.845 0.761883 172.55 0.748157L50.6774 0.482447C44.3807 0.468719 39.233 6.0397 39.2204 12.8787L39.0391 110.523L41.4514 110.528ZM47.4823 110.541L59.9451 128.678L47.6411 141.989L46.2182 141.986L46.2763 110.539L47.4823 110.541ZM157.245 110.781L157.211 129.125C157.211 129.177 157.235 129.256 157.235 129.308C157.235 129.466 157.282 129.623 157.33 129.806C157.354 129.91 157.354 130.042 157.402 130.147C157.426 130.199 157.474 130.252 157.498 130.305C157.57 130.463 157.642 130.567 157.738 130.699C157.811 130.803 157.834 130.909 157.931 130.988L168.259 142.252L54.4678 142.004L64.8371 130.785C64.9098 130.706 64.9581 130.575 65.0308 130.496C65.1272 130.366 65.2245 130.235 65.2728 130.104C65.2974 130.052 65.3455 130 65.3692 129.946C65.4174 129.842 65.4176 129.737 65.4424 129.606C65.4907 129.448 65.5155 129.292 65.5394 129.108C65.5159 129.056 65.5406 128.977 65.5407 128.925L65.5746 110.581L157.245 110.781ZM169.306 110.807L162.05 121.274L162.069 110.791L169.306 110.807ZM60.7309 121.053L53.5132 110.555L60.7503 110.57L60.7309 121.053ZM176.485 142.27L175.062 142.267L162.809 128.902L175.337 110.82L176.544 110.823L176.485 142.27ZM44.0441 12.8892C44.0515 8.93158 47.0249 5.71575 50.6668 5.72369L172.539 5.9894C176.181 5.99734 179.143 9.22742 179.135 13.1838L178.965 105.587L43.8725 105.292L44.0441 12.8892Z" fill="#7858A1"/>
<path d="M82.5002 89.6527C83.827 89.6556 84.9148 88.4787 84.9174 87.0373L84.9465 71.3136C84.9759 55.4067 96.8929 42.5128 111.536 42.5447C126.178 42.5766 138.048 55.5224 138.018 71.4293L137.989 87.1531C137.987 88.5944 139.07 89.7761 140.397 89.7789C141.724 89.7818 142.811 88.6049 142.814 87.1636L142.843 71.4399C142.878 52.6503 128.842 37.3411 111.545 37.3034C94.249 37.2657 80.1565 52.5135 80.1218 71.3031L80.0927 87.0268C80.0901 88.4682 81.1734 89.6498 82.5002 89.6527Z" fill="#FCB945"/>
<path d="M135.577 87.1478C135.58 85.7065 134.496 84.5248 133.169 84.5219C131.843 84.519 130.755 85.6959 130.752 87.1373C130.742 92.9294 135.051 97.6292 140.382 97.6408C145.714 97.6524 150.04 92.9714 150.051 87.1794C150.054 85.738 148.97 84.5564 147.644 84.5535C146.317 84.5506 145.229 85.7275 145.226 87.1688C145.221 90.0515 143.046 92.4053 140.392 92.3996C137.738 92.3938 135.572 90.0305 135.577 87.1478Z" fill="#7858A1"/>
<path d="M82.4857 97.5146C87.8175 97.5262 92.1438 92.8452 92.1545 87.0531C92.1572 85.6118 91.0738 84.4301 89.747 84.4272C88.4202 84.4244 87.3325 85.6013 87.3298 87.0426C87.3245 89.9253 85.149 92.2791 82.4954 92.2733C79.8418 92.2675 77.675 89.9043 77.6804 87.0216C77.683 85.5802 76.5996 84.3986 75.2729 84.3957C73.9461 84.3928 72.8583 85.5697 72.8557 87.011C72.845 92.8031 77.1539 97.5029 82.4857 97.5146Z" fill="#7858A1"/>
<path d="M127.14 114.987C127.36 114.483 127.833 114.153 128.347 114.153C129.326 114.153 129.97 115.266 129.56 116.232C118.556 142.161 116.649 158.795 129.612 191.373C130 192.349 129.351 193.458 128.372 193.458C127.844 193.458 127.359 193.115 127.14 192.593C114.181 161.749 114.28 144.471 127.14 114.987Z" fill="#B4E8FF"/>
<path d="M134.09 125.322C134.318 124.919 134.728 124.666 135.164 124.666C136.148 124.666 136.752 125.838 136.251 126.758C125.554 146.372 123.735 159.171 136.315 183.8C136.794 184.737 136.178 185.905 135.191 185.905C134.739 185.905 134.316 185.638 134.086 185.215C121.141 161.416 121.241 148.076 134.09 125.322Z" fill="#B4E8FF"/>
<path d="M88.865 127.263C88.6371 126.859 88.2271 126.606 87.7912 126.606C86.8075 126.606 86.2032 127.779 86.7045 128.698C97.401 148.313 99.2197 161.112 86.6403 185.74C86.1614 186.678 86.7768 187.845 87.7638 187.845C88.2156 187.845 88.6394 187.578 88.8692 187.156C101.814 163.356 101.714 150.016 88.865 127.263Z" fill="#B4E8FF"/>
<path d="M95.3554 116.821C95.1353 116.317 94.6625 115.987 94.1486 115.987C93.1694 115.987 92.5255 117.1 92.9355 118.066C103.94 143.996 105.846 160.629 92.8835 193.208C92.4951 194.184 93.1447 195.292 94.1235 195.292C94.6514 195.292 95.1358 194.949 95.355 194.427C108.314 163.583 108.215 146.306 95.3554 116.821Z" fill="#B4E8FF"/>
</svg>
