<svg width="265" height="248" viewBox="0 0 265 248" fill="none" xmlns="http://www.w3.org/2000/svg">
<path d="M227.596 132.444L128.958 58.6428C117.421 50.0103 114.503 34.3437 122.454 23.7174C130.404 13.091 146.258 11.4691 157.795 20.1017C169.333 28.7342 172.251 44.4008 164.3 55.0271L162.24 57.7801" stroke="#7858A1" stroke-width="5" stroke-miterlimit="10" stroke-linecap="round" stroke-linejoin="round"/>
<path opacity="0.5" d="M215.235 148.962L116.598 75.1607C105.12 66.5729 89.2072 68.1501 81.2565 78.7765C73.3469 89.3478 76.2833 105.114 87.7611 113.702C99.2389 122.29 115.152 120.713 123.103 110.086L125.162 107.333" stroke="#FCB945" stroke-width="5" stroke-miterlimit="10" stroke-linecap="round" stroke-linejoin="round"/>
<path d="M202.878 165.479L159.179 132.783C150.271 126.118 138.113 127.413 132.016 135.562C125.878 143.765 128.168 155.785 137.016 162.404C145.923 169.069 158.081 167.774 164.178 159.625L165.743 157.533" stroke="#7858A1" stroke-width="5" stroke-miterlimit="10" stroke-linecap="round" stroke-linejoin="round"/>
<path d="M113.756 4.17392L90.3979 17.0316L91.5556 19.1347C92.8343 21.4577 92.2618 24.2266 90.2774 25.3189C88.2928 26.4114 85.6472 25.4135 84.3686 23.0908L83.211 20.9877L13.1366 59.5608C12.1444 60.1069 11.8582 61.4915 12.4975 62.6529L47.228 125.747C47.8672 126.908 49.1902 127.407 50.1824 126.861L120.257 88.2876L119.099 86.1845C117.82 83.8615 118.393 81.0926 120.377 80.0002C122.362 78.9078 125.007 79.9056 126.286 82.2283L127.444 84.3314L150.802 71.4737C151.794 70.9276 152.08 69.543 151.441 68.3816L116.71 5.28797C116.071 4.12637 114.748 3.62764 113.756 4.17392Z" fill="#7858A1"/>
<path d="M120.376 80.0008C122.36 78.9084 125.006 79.9062 126.284 82.2289L127.442 84.332L150.8 71.4743C151.792 70.9282 152.078 69.5436 151.439 68.3822L116.709 5.28856C116.069 4.1272 114.747 3.62835 113.754 4.17451L90.3962 17.0322L91.5539 19.1353C92.8326 21.4582 92.2601 24.2272 90.2757 25.3195L120.376 80.0008Z" fill="#7858A1"/>
<path d="M112.669 2.2027L89.311 15.0604C88.3808 15.5724 88.1124 16.8703 88.7118 17.9594L89.8695 20.0625C90.5478 21.2947 90.2431 22.7686 89.1904 23.3481C88.1377 23.9275 86.7294 23.3965 86.0512 22.1643L84.8935 20.0612C84.2942 18.9724 83.054 18.5046 82.1236 19.0167L12.0496 57.5896C10.13 58.6463 9.57453 61.3337 10.8114 63.5807L45.5418 126.674C46.7787 128.921 49.3465 129.89 51.2662 128.833L121.341 90.2598C122.271 89.7478 122.539 88.4499 121.94 87.3608L120.782 85.2577C120.104 84.0255 120.408 82.5516 121.461 81.9722C122.514 81.3927 123.922 81.9237 124.6 83.1559L125.758 85.259C126.357 86.3478 127.598 86.8156 128.528 86.3035L151.886 73.4458C153.806 72.3891 154.361 69.7016 153.124 67.4547L118.394 4.361C117.157 2.11427 114.589 1.146 112.669 2.2027ZM149.715 69.5028L128.041 81.4332L127.969 81.3018C126.473 78.5846 123.694 77.1028 121.154 77.4264L118.587 72.7642C117.988 71.6754 116.748 71.2076 115.817 71.7197C114.887 72.2318 114.619 73.5297 115.218 74.6188L117.784 79.2809C116.152 81.2544 115.917 84.3953 117.413 87.1125L117.485 87.2439L86.7157 104.181L79.6971 91.431C79.0978 90.3422 77.8576 89.8743 76.9272 90.3865C75.9968 90.8986 75.7285 92.1964 76.328 93.2855L83.3464 106.036L49.0954 124.889C49.0334 124.924 48.9509 124.892 48.9109 124.82L32.6311 95.2447L52.5079 84.3034C53.4381 83.7913 53.7066 82.4934 53.1071 81.4043C52.5077 80.3155 51.2676 79.8477 50.3372 80.3599L30.4601 91.3013L14.1803 61.7263C14.1403 61.6537 14.1582 61.5673 14.2202 61.5332L48.4712 42.6794L55.4896 55.4295C56.0889 56.5183 57.3291 56.9862 58.2595 56.474C59.1899 55.9619 59.4582 54.664 58.8587 53.575L51.8403 40.8249L82.61 23.8874L82.6823 24.0187C84.178 26.736 86.9573 28.2178 89.4979 27.8942L92.0642 32.5564C92.6636 33.6452 93.9037 34.113 94.8342 33.6008C95.7644 33.0888 96.0328 31.7909 95.4333 30.7018L92.867 26.0397C94.4994 24.0662 94.7341 20.9253 93.2384 18.2081L93.1661 18.0767L114.84 6.14632C114.902 6.1122 114.984 6.14334 115.024 6.21589L131.304 35.7912L82.6792 62.5573C81.7489 63.0693 81.4805 64.3672 82.08 65.4563C82.6793 66.5451 83.9195 67.0129 84.8499 66.5008L133.475 39.7346L149.755 69.3099C149.795 69.3819 149.777 69.4687 149.715 69.5028Z" fill="#FCB945"/>
<path d="M101.78 46.219C102.71 45.707 102.979 44.409 102.379 43.32L100.064 39.1138C99.4645 38.025 98.2243 37.5572 97.2939 38.0693C96.3637 38.5814 96.0953 39.8793 96.6947 40.9683L99.0101 45.1745C99.6095 46.2636 100.85 46.731 101.78 46.219Z" fill="#FCB945"/>
<path d="M108.872 59.1011C107.942 59.6131 107.673 60.911 108.273 62.0001L110.588 66.2063C111.188 67.2951 112.428 67.7629 113.358 67.2507C114.288 66.7387 114.557 65.4408 113.957 64.3517L111.642 60.1455C111.042 59.0565 109.802 58.589 108.872 59.1011Z" fill="#FCB945"/>
<path d="M73.7892 70.0202C76.8298 66.4234 80.3528 61.5345 81.2163 57.3558C81.7684 54.6846 81.2934 51.7984 79.8789 49.2288C78.4647 46.6596 76.2802 44.7144 73.7277 43.7515C71.1752 42.7886 68.5612 42.9248 66.3661 44.1331C64.171 45.3415 62.6579 47.478 62.1056 50.1493C61.242 54.3277 62.381 60.9748 63.6021 66.1784C59.8584 62.3627 54.8519 57.8449 50.8595 56.3398C48.3072 55.3774 45.6927 55.513 43.4973 56.7214C41.3024 57.9296 39.7894 60.0662 39.2368 62.7376C38.6845 65.409 39.1601 68.2948 40.5746 70.8645C41.9891 73.4341 44.1735 75.379 46.7259 76.3417C50.7182 77.8471 56.7336 77.4855 61.3987 76.841C58.3582 80.4378 54.8351 85.3267 53.9716 89.5054C53.4193 92.1761 53.8942 95.0623 55.3086 97.6317C56.7228 100.201 58.9073 102.146 61.4598 103.109C64.0122 104.072 66.6266 103.936 68.822 102.727C71.0173 101.519 72.5302 99.3825 73.0825 96.7111C73.9461 92.5327 72.8071 85.8857 71.5859 80.6818C75.3295 84.4975 80.3361 89.0153 84.3286 90.5206C86.8808 91.483 89.4954 91.3475 91.6907 90.139C93.8857 88.9308 95.3987 86.7943 95.9512 84.1228C96.5037 81.4514 96.0279 78.5656 94.6134 75.996C93.1991 73.4266 91.0146 71.4814 88.4622 70.5188C84.47 69.0136 78.4546 69.3752 73.7892 70.0202ZM66.0229 51.6268C66.3486 50.0506 67.2412 48.7898 68.5366 48.0767C69.832 47.3637 71.3747 47.2839 72.8808 47.8518C74.3868 48.4197 75.6759 49.5673 76.5105 51.0836C77.3452 52.5998 77.6252 54.3028 77.2994 55.879C76.4421 60.0271 71.7288 65.8301 68.4284 69.3905C66.9708 64.0382 65.1644 55.7803 66.0229 51.6268ZM43.9438 69.0102C43.1093 67.4942 42.8292 65.7909 43.1549 64.2147C43.4807 62.6384 44.3733 61.3776 45.6687 60.6646C46.9641 59.9515 48.5068 59.8718 50.0129 60.4397C53.9762 61.9342 59.99 67.8796 63.7344 71.9756C58.9629 72.8601 51.5422 73.7386 47.5734 72.242C46.0675 71.674 44.7783 70.5262 43.9438 69.0102ZM69.1654 95.2339C68.8396 96.8101 67.947 98.0709 66.6516 98.784C65.3564 99.4969 63.8135 99.5768 62.3074 99.0089C60.8014 98.441 59.5122 97.2932 58.6777 95.7771C57.8432 94.2611 57.563 92.5579 57.8888 90.9817C58.7461 86.8336 63.4594 81.0306 66.7598 77.4702C68.2174 82.8225 70.024 91.0803 69.1654 95.2339ZM92.0335 82.6459C91.7077 84.2222 90.8149 85.4831 89.5197 86.196C88.2245 86.9089 86.6816 86.9888 85.1755 86.4209C81.2123 84.9264 75.1984 78.981 71.454 74.885C76.2255 74.0005 83.6462 73.122 87.615 74.6186C89.1211 75.1865 90.4101 76.334 91.2448 77.8503C92.0794 79.3666 92.3593 81.0696 92.0335 82.6459Z" fill="#FCB945"/>
<path d="M14.2766 247.391H10.8566L5.13656 238.731V247.391H1.71656V233.351H5.13656L10.8566 242.051V233.351H14.2766V247.391ZM21.8356 247.551C20.7423 247.551 19.7556 247.317 18.8756 246.851C18.009 246.384 17.3223 245.717 16.8156 244.851C16.3223 243.984 16.0756 242.971 16.0756 241.811C16.0756 240.664 16.329 239.657 16.8356 238.791C17.3423 237.911 18.0356 237.237 18.9156 236.771C19.7956 236.304 20.7823 236.071 21.8756 236.071C22.969 236.071 23.9556 236.304 24.8356 236.771C25.7156 237.237 26.409 237.911 26.9156 238.791C27.4223 239.657 27.6756 240.664 27.6756 241.811C27.6756 242.957 27.4156 243.971 26.8956 244.851C26.389 245.717 25.689 246.384 24.7956 246.851C23.9156 247.317 22.929 247.551 21.8356 247.551ZM21.8356 244.591C22.489 244.591 23.0423 244.351 23.4956 243.871C23.9623 243.391 24.1956 242.704 24.1956 241.811C24.1956 240.917 23.969 240.231 23.5156 239.751C23.0756 239.271 22.529 239.031 21.8756 239.031C21.209 239.031 20.6556 239.271 20.2156 239.751C19.7756 240.217 19.5556 240.904 19.5556 241.811C19.5556 242.704 19.769 243.391 20.1956 243.871C20.6356 244.351 21.1823 244.591 21.8356 244.591ZM46.9083 233.351L41.9283 247.391H37.6483L32.6683 233.351H36.3083L39.7883 243.951L43.2883 233.351H46.9083ZM53.4177 247.551C52.3243 247.551 51.3377 247.317 50.4577 246.851C49.591 246.384 48.9043 245.717 48.3977 244.851C47.9043 243.984 47.6577 242.971 47.6577 241.811C47.6577 240.664 47.911 239.657 48.4177 238.791C48.9243 237.911 49.6177 237.237 50.4977 236.771C51.3777 236.304 52.3643 236.071 53.4577 236.071C54.551 236.071 55.5377 236.304 56.4177 236.771C57.2977 237.237 57.991 237.911 58.4977 238.791C59.0043 239.657 59.2577 240.664 59.2577 241.811C59.2577 242.957 58.9977 243.971 58.4777 244.851C57.971 245.717 57.271 246.384 56.3777 246.851C55.4977 247.317 54.511 247.551 53.4177 247.551ZM53.4177 244.591C54.071 244.591 54.6243 244.351 55.0777 243.871C55.5443 243.391 55.7777 242.704 55.7777 241.811C55.7777 240.917 55.551 240.231 55.0977 239.751C54.6577 239.271 54.111 239.031 53.4577 239.031C52.791 239.031 52.2377 239.271 51.7977 239.751C51.3577 240.217 51.1377 240.904 51.1377 241.811C51.1377 242.704 51.351 243.391 51.7777 243.871C52.2177 244.351 52.7643 244.591 53.4177 244.591ZM72.092 236.231V247.391H68.672V245.871C68.3254 246.364 67.852 246.764 67.252 247.071C66.6654 247.364 66.012 247.511 65.292 247.511C64.4387 247.511 63.6854 247.324 63.032 246.951C62.3787 246.564 61.872 246.011 61.512 245.291C61.152 244.571 60.972 243.724 60.972 242.751V236.231H64.372V242.291C64.372 243.037 64.5654 243.617 64.952 244.031C65.3387 244.444 65.8587 244.651 66.512 244.651C67.1787 244.651 67.7054 244.444 68.092 244.031C68.4787 243.617 68.672 243.037 68.672 242.291V236.231H72.092ZM73.8686 241.811C73.8686 240.651 74.1019 239.637 74.5686 238.771C75.0486 237.904 75.7086 237.237 76.5486 236.771C77.4019 236.304 78.3753 236.071 79.4686 236.071C80.8686 236.071 82.0353 236.437 82.9686 237.171C83.9153 237.904 84.5353 238.937 84.8286 240.271H81.1886C80.8819 239.417 80.2886 238.991 79.4086 238.991C78.7819 238.991 78.2819 239.237 77.9086 239.731C77.5353 240.211 77.3486 240.904 77.3486 241.811C77.3486 242.717 77.5353 243.417 77.9086 243.911C78.2819 244.391 78.7819 244.631 79.4086 244.631C80.2886 244.631 80.8819 244.204 81.1886 243.351H84.8286C84.5353 244.657 83.9153 245.684 82.9686 246.431C82.0219 247.177 80.8553 247.551 79.4686 247.551C78.3753 247.551 77.4019 247.317 76.5486 246.851C75.7086 246.384 75.0486 245.717 74.5686 244.851C74.1019 243.984 73.8686 242.971 73.8686 241.811ZM93.518 236.111C94.798 236.111 95.8246 236.537 96.598 237.391C97.3713 238.231 97.758 239.391 97.758 240.871V247.391H94.358V241.331C94.358 240.584 94.1646 240.004 93.778 239.591C93.3913 239.177 92.8713 238.971 92.218 238.971C91.5646 238.971 91.0446 239.177 90.658 239.591C90.2713 240.004 90.078 240.584 90.078 241.331V247.391H86.658V232.591H90.078V237.731C90.4246 237.237 90.898 236.844 91.498 236.551C92.098 236.257 92.7713 236.111 93.518 236.111ZM110.655 241.631C110.655 241.951 110.635 242.284 110.595 242.631H102.855C102.908 243.324 103.128 243.857 103.515 244.231C103.915 244.591 104.401 244.771 104.975 244.771C105.828 244.771 106.421 244.411 106.755 243.691H110.395C110.208 244.424 109.868 245.084 109.375 245.671C108.895 246.257 108.288 246.717 107.555 247.051C106.821 247.384 106.001 247.551 105.095 247.551C104.001 247.551 103.028 247.317 102.175 246.851C101.321 246.384 100.655 245.717 100.175 244.851C99.6945 243.984 99.4545 242.971 99.4545 241.811C99.4545 240.651 99.6879 239.637 100.155 238.771C100.635 237.904 101.301 237.237 102.155 236.771C103.008 236.304 103.988 236.071 105.095 236.071C106.175 236.071 107.135 236.297 107.975 236.751C108.815 237.204 109.468 237.851 109.935 238.691C110.415 239.531 110.655 240.511 110.655 241.631ZM107.155 240.731C107.155 240.144 106.955 239.677 106.555 239.331C106.155 238.984 105.655 238.811 105.055 238.811C104.481 238.811 103.995 238.977 103.595 239.311C103.208 239.644 102.968 240.117 102.875 240.731H107.155ZM115.879 238.091C116.279 237.477 116.779 236.997 117.379 236.651C117.979 236.291 118.645 236.111 119.379 236.111V239.731H118.439C117.585 239.731 116.945 239.917 116.519 240.291C116.092 240.651 115.879 241.291 115.879 242.211V247.391H112.459V236.231H115.879V238.091ZM137.292 233.351L132.432 242.751V247.391H129.012V242.751L124.152 233.351H128.032L130.752 239.231L133.452 233.351H137.292ZM149.19 241.631C149.19 241.951 149.17 242.284 149.13 242.631H141.39C141.443 243.324 141.663 243.857 142.05 244.231C142.45 244.591 142.936 244.771 143.51 244.771C144.363 244.771 144.956 244.411 145.29 243.691H148.93C148.743 244.424 148.403 245.084 147.91 245.671C147.43 246.257 146.823 246.717 146.09 247.051C145.356 247.384 144.536 247.551 143.63 247.551C142.536 247.551 141.563 247.317 140.71 246.851C139.856 246.384 139.19 245.717 138.71 244.851C138.23 243.984 137.99 242.971 137.99 241.811C137.99 240.651 138.223 239.637 138.69 238.771C139.17 237.904 139.836 237.237 140.69 236.771C141.543 236.304 142.523 236.071 143.63 236.071C144.71 236.071 145.67 236.297 146.51 236.751C147.35 237.204 148.003 237.851 148.47 238.691C148.95 239.531 149.19 240.511 149.19 241.631ZM145.69 240.731C145.69 240.144 145.49 239.677 145.09 239.331C144.69 238.984 144.19 238.811 143.59 238.811C143.016 238.811 142.53 238.977 142.13 239.311C141.743 239.644 141.503 240.117 141.41 240.731H145.69ZM157.214 244.491V247.391H155.474C154.234 247.391 153.267 247.091 152.574 246.491C151.881 245.877 151.534 244.884 151.534 243.511V239.071H150.174V236.231H151.534V233.511H154.954V236.231H157.194V239.071H154.954V243.551C154.954 243.884 155.034 244.124 155.194 244.271C155.354 244.417 155.621 244.491 155.994 244.491H157.214ZM172.097 244.911H166.857L166.017 247.391H162.437L167.517 233.351H171.477L176.557 247.391H172.937L172.097 244.911ZM171.217 242.271L169.477 237.131L167.757 242.271H171.217ZM183.123 244.191L185.543 236.231H189.183L185.223 247.391H181.003L177.043 236.231H180.703L183.123 244.191ZM189.943 241.791C189.943 240.644 190.156 239.637 190.583 238.771C191.023 237.904 191.616 237.237 192.363 236.771C193.109 236.304 193.943 236.071 194.863 236.071C195.649 236.071 196.336 236.231 196.923 236.551C197.523 236.871 197.983 237.291 198.303 237.811V236.231H201.723V247.391H198.303V245.811C197.969 246.331 197.503 246.751 196.903 247.071C196.316 247.391 195.629 247.551 194.843 247.551C193.936 247.551 193.109 247.317 192.363 246.851C191.616 246.371 191.023 245.697 190.583 244.831C190.156 243.951 189.943 242.937 189.943 241.791ZM198.303 241.811C198.303 240.957 198.063 240.284 197.583 239.791C197.116 239.297 196.543 239.051 195.863 239.051C195.183 239.051 194.603 239.297 194.123 239.791C193.656 240.271 193.423 240.937 193.423 241.791C193.423 242.644 193.656 243.324 194.123 243.831C194.603 244.324 195.183 244.571 195.863 244.571C196.543 244.571 197.116 244.324 197.583 243.831C198.063 243.337 198.303 242.664 198.303 241.811ZM205.917 235.071C205.317 235.071 204.824 234.897 204.437 234.551C204.064 234.191 203.877 233.751 203.877 233.231C203.877 232.697 204.064 232.257 204.437 231.911C204.824 231.551 205.317 231.371 205.917 231.371C206.504 231.371 206.984 231.551 207.357 231.911C207.744 232.257 207.937 232.697 207.937 233.231C207.937 233.751 207.744 234.191 207.357 234.551C206.984 234.897 206.504 235.071 205.917 235.071ZM207.617 236.231V247.391H204.197V236.231H207.617ZM213.515 232.591V247.391H210.095V232.591H213.515ZM215.314 241.791C215.314 240.644 215.527 239.637 215.954 238.771C216.394 237.904 216.987 237.237 217.734 236.771C218.481 236.304 219.314 236.071 220.234 236.071C221.021 236.071 221.707 236.231 222.294 236.551C222.894 236.871 223.354 237.291 223.674 237.811V236.231H227.094V247.391H223.674V245.811C223.341 246.331 222.874 246.751 222.274 247.071C221.687 247.391 221.001 247.551 220.214 247.551C219.307 247.551 218.481 247.317 217.734 246.851C216.987 246.371 216.394 245.697 215.954 244.831C215.527 243.951 215.314 242.937 215.314 241.791ZM223.674 241.811C223.674 240.957 223.434 240.284 222.954 239.791C222.487 239.297 221.914 239.051 221.234 239.051C220.554 239.051 219.974 239.297 219.494 239.791C219.027 240.271 218.794 240.937 218.794 241.791C218.794 242.644 219.027 243.324 219.494 243.831C219.974 244.324 220.554 244.571 221.234 244.571C221.914 244.571 222.487 244.324 222.954 243.831C223.434 243.337 223.674 242.664 223.674 241.811ZM232.988 237.811C233.308 237.291 233.768 236.871 234.368 236.551C234.968 236.231 235.655 236.071 236.428 236.071C237.348 236.071 238.181 236.304 238.928 236.771C239.675 237.237 240.261 237.904 240.688 238.771C241.128 239.637 241.348 240.644 241.348 241.791C241.348 242.937 241.128 243.951 240.688 244.831C240.261 245.697 239.675 246.371 238.928 246.851C238.181 247.317 237.348 247.551 236.428 247.551C235.641 247.551 234.955 247.397 234.368 247.091C233.781 246.771 233.321 246.351 232.988 245.831V247.391H229.568V232.591H232.988V237.811ZM237.868 241.791C237.868 240.937 237.628 240.271 237.148 239.791C236.681 239.297 236.101 239.051 235.408 239.051C234.728 239.051 234.148 239.297 233.668 239.791C233.201 240.284 232.968 240.957 232.968 241.811C232.968 242.664 233.201 243.337 233.668 243.831C234.148 244.324 234.728 244.571 235.408 244.571C236.088 244.571 236.668 244.324 237.148 243.831C237.628 243.324 237.868 242.644 237.868 241.791ZM246.562 232.591V247.391H243.142V232.591H246.562ZM259.561 241.631C259.561 241.951 259.541 242.284 259.501 242.631H251.761C251.814 243.324 252.034 243.857 252.421 244.231C252.821 244.591 253.307 244.771 253.881 244.771C254.734 244.771 255.327 244.411 255.661 243.691H259.301C259.114 244.424 258.774 245.084 258.281 245.671C257.801 246.257 257.194 246.717 256.461 247.051C255.727 247.384 254.907 247.551 254.001 247.551C252.907 247.551 251.934 247.317 251.081 246.851C250.227 246.384 249.561 245.717 249.081 244.851C248.601 243.984 248.361 242.971 248.361 241.811C248.361 240.651 248.594 239.637 249.061 238.771C249.541 237.904 250.207 237.237 251.061 236.771C251.914 236.304 252.894 236.071 254.001 236.071C255.081 236.071 256.041 236.297 256.881 236.751C257.721 237.204 258.374 237.851 258.841 238.691C259.321 239.531 259.561 240.511 259.561 241.631ZM256.061 240.731C256.061 240.144 255.861 239.677 255.461 239.331C255.061 238.984 254.561 238.811 253.961 238.811C253.387 238.811 252.901 238.977 252.501 239.311C252.114 239.644 251.874 240.117 251.781 240.731H256.061Z" fill="#7858A1"/>
</svg>
