<svg width="112" height="67" viewBox="0 0 112 67" fill="none" xmlns="http://www.w3.org/2000/svg">
<path d="M36.2118 11.5C38.2684 11.5 39.8981 12.3028 41.1011 13.9084C42.3041 15.514 42.9597 17.6879 43.0682 20.4298H38.8704C38.666 19.4913 38.2997 18.7439 37.7715 18.188C37.2433 17.6321 36.5771 17.3543 35.7731 17.3543C34.5209 17.3543 33.4627 18.0275 32.5989 19.3737C31.7349 20.72 31.2124 22.5419 31.0312 24.8391C30.8344 27.3341 31.0814 29.2487 31.7725 30.5826C32.4637 31.9164 33.5436 32.5835 35.0124 32.5835C35.9556 32.5835 36.8156 32.1694 37.592 31.342C38.3685 30.5144 38.9641 29.3351 39.3787 27.8034H34.3691L34.7286 23.2459H43.0546L42.5607 29.5077C42.1306 31.0394 41.5238 32.4599 40.7402 33.7689C39.9567 35.0782 39.003 36.1403 37.8796 36.9555C36.7563 37.7707 35.5141 38.1785 34.1536 38.1785C32.4992 38.1785 31.0978 37.6166 29.9494 36.4923C28.8013 35.3684 27.9708 33.7937 27.4579 31.7683C26.9453 29.7425 26.7911 27.4329 26.9957 24.8391C27.2003 22.2453 27.7187 19.9357 28.5512 17.9102C29.3837 15.8845 30.4587 14.3098 31.7765 13.1859C33.0946 12.062 34.5729 11.5 36.2118 11.5ZM51.4517 37.9561L48.6837 28.0627H47.7792L46.9987 37.9561H43.0327L45.0994 11.7593H51.8717C53.1706 11.7593 54.2401 12.1177 55.0804 12.8339C55.9205 13.5503 56.5157 14.5321 56.8656 15.7797C57.2158 17.0272 57.3275 18.4537 57.2006 20.0593C57.0507 21.9615 56.5945 23.5792 55.832 24.9133C55.0696 26.2472 54.0427 27.1611 52.7514 27.6552L55.8351 37.9561H51.4517ZM48.1212 23.7276H50.5796C51.3682 23.7276 51.97 23.4495 52.3849 22.8939C52.7999 22.338 53.0501 21.5168 53.1359 20.4298C53.2176 19.3925 53.0926 18.5773 52.7606 17.9842C52.4286 17.3913 51.8761 17.095 51.103 17.095H48.6446L48.1212 23.7276ZM67.2309 33.1763H61.0847L59.6872 37.9561H55.5125L63.5715 11.9447H68.1405L72.0952 37.9561H67.8741L67.2309 33.1763ZM66.5904 28.3593L65.3094 18.7255L62.4851 28.3593H66.5904ZM86.3864 11.7593L85.989 16.7988H81.536L79.8668 37.9561H75.8776L77.5468 16.7988H73.1403L73.5379 11.7593H86.3864ZM90.9345 11.7593L88.8678 37.9561H84.9017L86.9685 11.7593H90.9345ZM102.88 30.5826C102.771 31.9658 102.45 33.2378 101.918 34.399C101.386 35.5599 100.663 36.4863 99.7504 37.1779C98.838 37.8695 97.7708 38.2155 96.5492 38.2155C94.7094 38.2155 93.2506 37.499 92.173 36.0664C91.0956 34.6338 90.6039 32.6326 90.6984 30.0636H94.9193C94.9034 31.0518 95.0623 31.8301 95.3963 32.3981C95.7303 32.9661 96.1909 33.2503 96.7786 33.2503C97.2888 33.2503 97.7084 33.0279 98.0372 32.5835C98.366 32.1388 98.5598 31.5459 98.6182 30.8049C98.6709 30.1378 98.5793 29.5819 98.3438 29.1375C98.1084 28.6925 97.8009 28.3284 97.4212 28.0442C97.0418 27.7604 96.5118 27.4205 95.8318 27.0251C94.8406 26.4571 94.0376 25.9076 93.4222 25.3765C92.8071 24.8455 92.305 24.0548 91.9162 23.0051C91.5275 21.9551 91.3993 20.5904 91.5319 18.9105C91.6546 17.3543 92.0083 16.0081 92.5928 14.8717C93.1772 13.7354 93.9301 12.8648 94.8513 12.2595C95.7728 11.6545 96.7977 11.3516 97.9265 11.3516C99.751 11.3516 101.146 12.0435 102.111 13.4267C103.077 14.8103 103.534 16.7121 103.482 19.1329H99.1911C99.1821 18.2683 99.039 17.5831 98.762 17.0766C98.485 16.57 98.0759 16.3168 97.5347 16.3168C97.0709 16.3168 96.6805 16.5146 96.3632 16.9099C96.046 17.305 95.8569 17.8854 95.7965 18.6512C95.7481 19.2689 95.834 19.7936 96.0551 20.2259C96.2761 20.6582 96.5692 21.0102 96.9343 21.282C97.2994 21.5537 97.8288 21.8997 98.5223 22.3195C99.5289 22.8876 100.343 23.4495 100.964 24.0054C101.585 24.5613 102.093 25.3702 102.488 26.4326C102.884 27.4947 103.014 28.8779 102.88 30.5826Z" fill="#493169"/>
<path fill-rule="evenodd" clip-rule="evenodd" d="M32.1058 38.8989C33.6719 38.8989 35.047 39.4806 36.2318 40.644C37.4162 41.8075 38.2954 43.421 38.8683 45.4856C39.4417 47.5496 39.6256 49.8825 39.4202 52.4846C39.215 55.0867 38.6587 57.4262 37.7508 59.503C36.843 61.5797 35.705 63.1996 34.3371 64.3627C32.9688 65.5264 31.5096 66.1082 29.9591 66.1082C28.4087 66.1082 27.0413 65.5264 25.8568 64.3627C25.1085 63.6281 24.481 62.7109 23.9741 61.6116L12.5945 61.4883L23.668 60.8891C23.4987 60.452 23.3458 59.9901 23.2098 59.503C23.0634 58.9786 22.942 58.4374 22.8455 57.8792L15.1594 57.8059L22.7753 57.4405C22.6447 56.5521 22.5755 55.6222 22.5679 54.6512L0.828125 54.4352L22.5936 53.3473C22.6068 53.0631 22.6247 52.7754 22.6477 52.4846C22.7593 51.0682 22.9749 49.7315 23.2947 48.4748L8.72457 48.3859L23.4405 47.9319C23.6824 47.0782 23.9743 46.2626 24.3157 45.4856C24.5109 45.0412 24.7167 44.6182 24.9332 44.2155L11.0266 44.0833L25.407 43.3955C26.0881 42.2977 26.8618 41.3806 27.728 40.644C29.0961 39.4806 30.5555 38.8989 32.1058 38.8989ZM28.1326 48.8303C27.1278 50.2278 26.5424 51.8854 26.3609 53.8267C26.1792 55.7687 26.4542 57.4262 27.1978 58.8228C27.9435 60.1962 28.9148 60.9069 30.1302 60.9069C31.3453 60.9069 32.4496 60.1962 33.4522 58.8228C34.4428 57.4262 35.0424 55.7687 35.2242 53.8267C35.4059 51.8854 35.1164 50.2278 34.3874 48.8303L31.7786 43.7635L28.1326 48.8303ZM105.954 65.8453L103.15 55.8251H102.234L101.444 65.8453H97.4269L99.5202 39.3118H106.38C107.695 39.3118 108.778 39.6746 109.629 40.4C110.48 41.1257 111.083 42.1203 111.438 43.3834C111.792 44.6472 111.905 46.0922 111.777 47.7185C111.625 49.6449 111.163 51.2836 110.391 52.6349C109.619 53.986 108.579 54.9118 107.27 55.4119L110.394 65.8453H105.954ZM102.581 51.4339H105.071C105.87 51.4339 106.479 51.1523 106.899 50.5894C107.32 50.0265 107.573 49.1947 107.66 48.0938C107.743 47.0428 107.616 46.2171 107.28 45.6169C106.943 45.0164 106.384 44.716 105.601 44.716H103.111L102.581 51.4339ZM97.0715 39.3118L94.9781 65.8453H90.9613L93.0546 39.3118H97.0715ZM83.9672 52.2973L89.5932 65.8453H84.7305L80.0314 53.9484L79.0926 65.8453H75.0759L77.1692 39.3118H81.1861L80.2653 50.9835L86.871 39.3118H91.6866L83.9672 52.2973ZM67.3887 39.0487C69.4716 39.0487 71.1222 39.862 72.3408 41.4886C73.5593 43.1145 74.2233 45.3165 74.333 48.0938H70.0812C69.8744 47.1428 69.5033 46.3862 68.9683 45.8233C68.4335 45.2604 67.7587 44.9788 66.9442 44.9788C65.6758 44.9788 64.604 45.6605 63.7291 47.024C62.8541 48.3875 62.3249 50.2329 62.1412 52.5598C61.9418 55.0867 62.1923 57.0258 62.8922 58.3771C63.5921 59.7279 64.686 60.4036 66.1737 60.4036C67.129 60.4036 67.9998 59.9846 68.7865 59.1462C69.5729 58.308 70.1763 57.1134 70.596 55.5623H65.5221L65.8862 50.9459H74.3196L73.8193 57.2886C73.3836 58.8397 72.7689 60.2784 71.9753 61.6046C71.1814 62.9304 70.2158 64.0066 69.0778 64.8323C67.9398 65.6577 66.6818 66.0709 65.3039 66.0709C63.6282 66.0709 62.2086 65.5016 61.0457 64.3627C59.8824 63.2245 59.0416 61.6297 58.5221 59.5781C58.0027 57.5266 57.8466 55.187 58.0539 52.5598C58.2611 49.9329 58.7863 47.5933 59.6294 45.5417C60.4725 43.4901 61.5614 41.8951 62.8964 40.7568C64.2312 39.6183 65.7287 39.0487 67.3887 39.0487ZM55.0504 65.8453H51.0335L45.6 49.5573L44.3149 65.8453H40.2982L42.3915 39.3118H46.4082L51.8301 55.7496L53.1268 39.3118H57.1437L55.0504 65.8453Z" fill="#FBB636"/>
<path fill-rule="evenodd" clip-rule="evenodd" d="M37.1484 14.6216L13.2852 15.8841L36.6303 16.1297C37.5194 15.8009 37.6596 15.2995 37.1484 14.6216Z" fill="#493169"/>
<path fill-rule="evenodd" clip-rule="evenodd" d="M31.4556 20.6777L15.7451 21.1623L31.1145 21.2566C31.6999 21.1304 31.7922 20.938 31.4556 20.6777Z" fill="#493169"/>
<path fill-rule="evenodd" clip-rule="evenodd" d="M30.7125 28.2642L15.002 28.7487L30.3713 28.8427C30.9567 28.7165 31.0491 28.5241 30.7125 28.2642Z" fill="#493169"/>
<path fill-rule="evenodd" clip-rule="evenodd" d="M32.4023 24.6802L8.53906 25.4769L31.8842 25.6317C32.7733 25.4244 32.9135 25.108 32.4023 24.6802Z" fill="#493169"/>
<path fill-rule="evenodd" clip-rule="evenodd" d="M35.9111 31.896L12.0479 33.1062L35.3928 33.3417C36.2821 33.0266 36.4221 32.5459 35.9111 31.896Z" fill="#493169"/>
<path d="M85.0611 6.08966C85.4021 5.54523 85.8122 5.27732 86.2976 5.27732C86.7829 5.27732 87.1933 5.54523 87.5341 6.08966C87.875 6.63442 88.0425 7.28047 88.0425 8.03739C88.0425 8.79463 87.875 9.44036 87.5341 9.98512C87.1933 10.5206 86.7829 10.7975 86.2976 10.7975C85.8122 10.7975 85.4021 10.5206 85.0611 9.98512L83.8653 8.00044L85.0611 6.08966ZM82.1259 4.81603C81.7852 4.27096 81.6175 3.6249 81.6175 2.86798C81.6175 2.11107 81.7852 1.46501 82.1259 0.920259C82.4667 0.384746 82.8713 0.10791 83.3451 0.10791C83.8188 0.10791 84.2234 0.384746 84.5642 0.920259C84.8994 1.46501 85.0729 2.11107 85.0729 2.86798C85.0729 3.6249 84.8994 4.27096 84.5642 4.81603L83.3626 6.79115L82.1259 4.81603ZM81.5309 9.98512C81.1899 10.5206 80.7856 10.7975 80.3118 10.7975C79.8438 10.7975 79.4334 10.5206 79.0925 9.98512C78.7575 9.44036 78.584 8.79463 78.584 8.03739C78.584 7.28047 78.7575 6.63442 79.0925 6.08966C79.4334 5.54523 79.8438 5.27732 80.3118 5.27732C80.7856 5.27732 81.1899 5.54523 81.5309 6.08966L82.7674 8.06511L81.5309 9.98512Z" fill="#FBB636"/>
</svg>
