<svg width="60" height="40" viewBox="0 0 60 40" fill="none" xmlns="http://www.w3.org/2000/svg">
<path d="M19.1266 6.90442C20.2383 6.90442 21.1192 7.39096 21.7695 8.36404C22.4197 9.33712 22.7741 10.6546 22.8328 12.3164H20.5637C20.4532 11.7476 20.2552 11.2947 19.9697 10.9578C19.6842 10.6208 19.3241 10.4525 18.8895 10.4525C18.2126 10.4525 17.6406 10.8604 17.1737 11.6764C16.7067 12.4923 16.4243 13.5965 16.3263 14.9887C16.2199 16.5008 16.3535 17.6612 16.727 18.4696C17.1006 19.278 17.6844 19.6822 18.4783 19.6822C18.9881 19.6822 19.453 19.4312 19.8727 18.9298C20.2924 18.4282 20.6144 17.7135 20.8384 16.7852H18.1306L18.3249 14.0231H22.8254L22.5585 17.8181C22.326 18.7464 21.998 19.6073 21.5744 20.4007C21.1509 21.1942 20.6354 21.8379 20.0281 22.3319C19.421 22.826 18.7495 23.0731 18.0141 23.0731C17.1198 23.0731 16.3623 22.7326 15.7416 22.0512C15.1209 21.3701 14.672 20.4157 14.3948 19.1882C14.1177 17.9604 14.0344 16.5607 14.145 14.9887C14.2555 13.4167 14.5358 12.0169 14.9858 10.7894C15.4358 9.56166 16.0168 8.60731 16.7292 7.92616C17.4416 7.245 18.2407 6.90442 19.1266 6.90442ZM27.3644 22.9384L25.8682 16.9424H25.3793L24.9574 22.9384H22.8136L23.9308 7.06158H27.5914C28.2935 7.06158 28.8717 7.27879 29.3259 7.71281C29.78 8.14703 30.1017 8.74207 30.2909 9.49814C30.4801 10.2542 30.5405 11.1188 30.4719 12.0919C30.3909 13.2447 30.1443 14.2251 29.7321 15.0337C29.3201 15.8421 28.765 16.396 28.067 16.6954L29.7338 22.9384H27.3644ZM25.5641 14.3151H26.893C27.3193 14.3151 27.6446 14.1465 27.8689 13.8098C28.0932 13.4729 28.2284 12.9752 28.2748 12.3164C28.319 11.6878 28.2514 11.1937 28.0719 10.8342C27.8925 10.4749 27.5938 10.2953 27.1759 10.2953H25.847L25.5641 14.3151ZM35.8937 20.0415H32.5715L31.816 22.9384H29.5594L33.9156 7.17395H36.3854L38.5231 22.9384H36.2414L35.8937 20.0415ZM35.5475 17.1221L34.8551 11.2835L33.3284 17.1221H35.5475ZM46.248 7.06158L46.0332 10.1158H43.6262L42.7239 22.9384H40.5676L41.4699 10.1158H39.088L39.3029 7.06158H46.248ZM48.7065 7.06158L47.5893 22.9384H45.4455L46.5627 7.06158H48.7065ZM55.1635 18.4696C55.1044 19.3079 54.9311 20.0788 54.6434 20.7826C54.3558 21.4861 53.9653 22.0476 53.4718 22.4667C52.9786 22.8859 52.4017 23.0955 51.7415 23.0955C50.7469 23.0955 49.9584 22.6613 49.3759 21.7931C48.7936 20.9248 48.5278 19.712 48.5789 18.1551H50.8604C50.8518 18.754 50.9377 19.2256 51.1183 19.5699C51.2988 19.9141 51.5478 20.0863 51.8654 20.0863C52.1412 20.0863 52.368 19.9516 52.5457 19.6822C52.7235 19.4127 52.8282 19.0534 52.8598 18.6043C52.8883 18.2 52.8388 17.8631 52.7115 17.5938C52.5842 17.3241 52.418 17.1034 52.2128 16.9312C52.0077 16.7591 51.7212 16.5531 51.3537 16.3135C50.8179 15.9693 50.3838 15.6362 50.0512 15.3144C49.7187 14.9925 49.4473 14.5133 49.2371 13.8772C49.027 13.2408 48.9577 12.4137 49.0294 11.3956C49.0957 10.4525 49.2869 9.63657 49.6028 8.94789C49.9187 8.2592 50.3257 7.73154 50.8237 7.36471C51.3218 6.99806 51.8758 6.81445 52.4859 6.81445C53.4721 6.81445 54.2261 7.2338 54.748 8.07212C55.2699 8.91062 55.5168 10.0633 55.4888 11.5304H53.1695C53.1646 11.0064 53.0872 10.5911 52.9375 10.2841C52.7878 9.97715 52.5667 9.82366 52.2741 9.82366C52.0234 9.82366 51.8124 9.94355 51.6409 10.1832C51.4694 10.4226 51.3672 10.7743 51.3346 11.2385C51.3084 11.6128 51.3548 11.9308 51.4744 12.1928C51.5938 12.4548 51.7522 12.6682 51.9496 12.8329C52.1469 12.9975 52.4331 13.2072 52.808 13.4617C53.3521 13.8059 53.7919 14.1465 54.1276 14.4834C54.4633 14.8203 54.7381 15.3105 54.9518 15.9544C55.1656 16.5981 55.2361 17.4364 55.1635 18.4696Z" fill="white"/>
<path fill-rule="evenodd" clip-rule="evenodd" d="M16.9069 23.5098C17.7534 23.5098 18.4967 23.8623 19.1371 24.5674C19.7774 25.2725 20.2526 26.2504 20.5622 27.5017C20.8722 28.7526 20.9716 30.1665 20.8606 31.7435C20.7497 33.3205 20.449 34.7384 19.9582 35.997C19.4675 37.2556 18.8524 38.2374 18.113 38.9423C17.3733 39.6476 16.5846 40.0001 15.7465 40.0001C14.9084 40.0001 14.1693 39.6476 13.529 38.9423C13.1245 38.4971 12.7853 37.9412 12.5113 37.275L6.36021 37.2002L12.3459 36.8371C12.2544 36.5722 12.1717 36.2922 12.0982 35.997C12.0191 35.6792 11.9534 35.3512 11.9013 35.0129L7.74664 34.9685L11.8633 34.7471C11.7927 34.2086 11.7553 33.645 11.7512 33.0565L0 32.9256L11.7651 32.2663C11.7723 32.0941 11.782 31.9197 11.7944 31.7435C11.8547 30.8851 11.9712 30.0749 12.1441 29.3133L4.26835 29.2594L12.2229 28.9843C12.3536 28.4669 12.5114 27.9726 12.696 27.5017C12.8015 27.2324 12.9127 26.976 13.0298 26.7319L5.51271 26.6518L13.2859 26.235C13.6541 25.5696 14.0723 25.0138 14.5405 24.5674C15.28 23.8623 16.0688 23.5098 16.9069 23.5098ZM14.7592 29.5288C14.216 30.3758 13.8996 31.3803 13.8015 32.5569C13.7033 33.7338 13.8519 34.7384 14.2539 35.5848C14.657 36.4171 15.182 36.8479 15.8389 36.8479C16.4958 36.8479 17.0927 36.4171 17.6346 35.5848C18.1701 34.7384 18.4942 33.7338 18.5925 32.5569C18.6907 31.3803 18.5342 30.3758 18.1401 29.5288L16.73 26.458L14.7592 29.5288ZM56.8249 39.8409L55.3094 33.768H54.8142L54.3868 39.8409H52.2155L53.3471 23.76H57.0548C57.7659 23.76 58.3515 23.9799 58.8115 24.4195C59.2715 24.8593 59.5974 25.4621 59.789 26.2276C59.9806 26.9935 60.0417 27.8693 59.9723 28.8549C59.8902 30.0224 59.6404 31.0156 59.223 31.8346C58.8058 32.6534 58.2435 33.2145 57.5364 33.5176L59.2247 39.8409H56.8249ZM55.0014 31.1067H56.3474C56.7792 31.1067 57.1086 30.936 57.3357 30.5949C57.5629 30.2537 57.7 29.7496 57.7469 29.0824C57.7917 28.4454 57.7233 27.945 57.5415 27.5812C57.3596 27.2173 57.0572 27.0352 56.6339 27.0352H55.2879L55.0014 31.1067ZM52.0235 23.76L50.8918 39.8409H48.7207L49.8522 23.76H52.0235ZM44.94 31.6299L47.9811 39.8409H45.3526L42.8126 32.6306L42.3051 39.8409H40.1339L41.2655 23.76H43.4368L42.939 30.8337L46.5097 23.76H49.1127L44.94 31.6299ZM35.9787 23.6005C37.1046 23.6005 37.9968 24.0934 38.6555 25.0792C39.3141 26.0647 39.6731 27.3992 39.7323 29.0824H37.4341C37.3223 28.5061 37.1217 28.0475 36.8325 27.7064C36.5435 27.3652 36.1787 27.1945 35.7384 27.1945C35.0528 27.1945 34.4735 27.6077 34.0005 28.434C33.5276 29.2604 33.2415 30.3788 33.1422 31.789C33.0344 33.3205 33.1698 34.4957 33.5481 35.3147C33.9265 36.1333 34.5178 36.5428 35.3219 36.5428C35.8383 36.5428 36.309 36.2889 36.7342 35.7808C37.1593 35.2728 37.4855 34.5488 37.7124 33.6087H34.9697L35.1665 30.8109H39.7251L39.4547 34.655C39.2192 35.595 38.8869 36.4669 38.4579 37.2707C38.0288 38.0743 37.5068 38.7265 36.8917 39.2269C36.2766 39.7271 35.5966 39.9776 34.8518 39.9776C33.946 39.9776 33.1787 39.6325 32.5501 38.9423C31.9213 38.2525 31.4667 37.286 31.186 36.0426C30.9052 34.7992 30.8208 33.3813 30.9329 31.789C31.0449 30.197 31.3288 28.7791 31.7845 27.5357C32.2402 26.2923 32.8288 25.3256 33.5504 24.6358C34.2719 23.9457 35.0814 23.6005 35.9787 23.6005ZM29.3093 39.8409H27.138L24.201 29.9693L23.5064 39.8409H21.3352L22.4667 23.76H24.6379L27.5686 33.7223L28.2695 23.76H30.4408L29.3093 39.8409Z" fill="#FBB636"/>
<path d="M45.5324 3.62529C45.7167 3.29533 45.9384 3.13296 46.2008 3.13296C46.4631 3.13296 46.6849 3.29533 46.8691 3.62529C47.0534 3.95544 47.144 4.34699 47.144 4.80573C47.144 5.26466 47.0534 5.65601 46.8691 5.98616C46.6849 6.31072 46.4631 6.47849 46.2008 6.47849C45.9384 6.47849 45.7167 6.31072 45.5324 5.98616L44.886 4.78333L45.5324 3.62529ZM43.9458 2.85339C43.7616 2.52305 43.671 2.1315 43.671 1.67277C43.671 1.21403 43.7616 0.822482 43.9458 0.492331C44.13 0.167779 44.3487 0 44.6048 0C44.8609 0 45.0796 0.167779 45.2638 0.492331C45.445 0.822482 45.5388 1.21403 45.5388 1.67277C45.5388 2.1315 45.445 2.52305 45.2638 2.85339L44.6143 4.05043L43.9458 2.85339ZM43.6242 5.98616C43.4399 6.31072 43.2213 6.47849 42.9652 6.47849C42.7122 6.47849 42.4904 6.31072 42.3061 5.98616C42.125 5.65601 42.0312 5.26466 42.0312 4.80573C42.0312 4.34699 42.125 3.95544 42.3061 3.62529C42.4904 3.29533 42.7122 3.13296 42.9652 3.13296C43.2213 3.13296 43.4399 3.29533 43.6242 3.62529L44.2926 4.82253L43.6242 5.98616Z" fill="#FBB636"/>
</svg>
