<svg width="112" height="93" viewBox="0 0 112 93" fill="none" xmlns="http://www.w3.org/2000/svg">
<path fill-rule="evenodd" clip-rule="evenodd" d="M15.3115 59.2784C15.9163 58.9662 16.4679 59.4545 16.6661 60.018C16.9151 60.7262 16.8103 61.8918 16.8065 62.7822C16.7994 64.4556 17.076 67.0314 16.0859 67.5966C15.3962 67.9904 14.85 67.414 14.6437 66.8591C14.3773 66.1423 14.4933 64.9093 14.497 64.0534C14.5049 62.1753 14.2012 59.8514 15.3115 59.2784ZM34.703 58.3102C36.9873 57.5271 38.7751 59.8905 39.1613 62.5781C39.6392 65.9037 38.0952 68.549 36.3893 69.1563C31.5918 70.8646 29.8263 59.982 34.703 58.3102ZM15.2586 46.501C15.8932 46.0614 16.4209 46.5274 16.6845 47.1517C16.976 47.8422 16.8633 48.9746 16.8594 49.8589C16.8515 51.7027 17.1236 54.1205 16.1783 54.7293C15.5848 55.1115 15.0208 54.6839 14.7571 54.134C14.4499 53.4936 14.5446 52.3369 14.5487 51.4172C14.5574 49.4762 14.2588 47.1936 15.2586 46.501ZM24.6555 45.1254C26.8545 44.441 28.6734 46.7756 29.0348 49.4385C29.4976 52.8484 27.8921 55.5258 26.1249 56.0603C23.8425 56.7503 22.0672 54.3546 21.727 51.6964C21.2869 48.2572 22.862 45.6835 24.6555 45.1254ZM34.5287 45.7921C35.4789 45.3807 36.2966 46.8199 35.8344 48.2387L31.865 56.9691C30.9516 58.9342 30.0949 60.8376 29.2057 62.7626C28.7238 63.8059 27.0119 68.0043 26.3546 68.2687C25.325 68.6827 24.5833 67.1971 25.0255 65.8226L32.9907 48.4157C33.4193 47.4902 33.801 46.1072 34.5287 45.7921ZM1.04297 74.4144L14.3775 74.5368L14.3414 78.8425L14.4514 78.8436C14.4569 77.5069 14.3008 73.5272 14.6868 72.6942C14.9491 72.1284 15.5701 71.7684 16.1348 72.2128C16.6841 72.6451 16.7635 73.4045 16.758 74.5586L38.936 74.7622C40.1893 74.7736 42.1478 75.2921 42.924 74.0158C43.7011 72.738 43.1256 63.705 43.3503 61.1591C42.9484 60.384 42.647 58.624 42.6475 57.2771C42.6482 55.9165 42.9768 54.1675 43.3819 53.4052L43.4152 35.4557L16.9194 35.2126C16.9135 36.6495 16.9059 38.0866 16.9033 39.5236C16.9009 40.909 16.6967 42.0201 15.7559 42.0367C14.7767 42.0538 14.586 40.9348 14.5955 39.5006C14.6051 38.0642 14.6094 36.6278 14.6152 35.1914C10.8173 35.1565 7.01586 35.1458 3.21847 35.0862C2.71606 35.0784 2.36344 34.9903 1.99431 35.2541C1.69578 35.4675 1.41155 35.9069 1.28754 36.3504C1.0601 37.1642 1.15224 47.7405 1.14653 49.1403C2.68248 49.6909 3.31976 50.1761 4.28019 51.6431C6.38632 54.86 6.0701 61.1341 2.94117 63.7074C2.26252 64.2655 1.89812 64.3719 1.08299 64.6483L1.04297 74.4144Z" fill="#FCB945" stroke="#8A70AD" stroke-width="0.132003" stroke-linecap="round"/>
<path fill-rule="evenodd" clip-rule="evenodd" d="M34.4042 45.7365C33.6764 46.0516 33.2947 47.4346 32.8661 48.3601L24.901 65.767C24.4587 67.1414 25.2004 68.6271 26.23 68.213C26.8873 67.9487 28.5992 63.7502 29.0811 62.7069C29.9703 60.782 30.827 58.8785 31.7404 56.9135L35.7098 48.1831C36.172 46.7642 35.3543 45.325 34.4042 45.7365Z" fill="#493169"/>
<path fill-rule="evenodd" clip-rule="evenodd" d="M16.6741 74.4215L16.6562 78.7274L45.459 78.9996C47.4868 79.0077 47.0009 76.0186 47.0146 72.6878L47.0428 66.2235C47.058 65.0736 47.2245 64.9298 46.6007 64.7363C45.0816 64.2652 43.9344 62.8485 43.2664 61.022C43.0418 63.5678 43.6173 72.6009 42.8402 73.8786C42.064 75.1549 40.1054 74.6365 38.8521 74.625L16.6741 74.4215Z" fill="#8A70AD"/>
<path fill-rule="evenodd" clip-rule="evenodd" d="M43.1631 53.4032C43.7261 51.9088 44.6159 50.7026 45.7633 50.0369C46.8764 49.3909 46.9925 50.3856 46.9818 48.2713C46.9689 45.7072 47.1448 38.7223 47.0175 37.2238C46.9379 36.2867 46.4037 35.5259 45.694 35.4699C44.9071 35.4078 43.9977 35.4611 43.1964 35.4538L43.1631 53.4032Z" fill="#8A70AD"/>
<path fill-rule="evenodd" clip-rule="evenodd" d="M14.3412 78.6367L14.3773 74.3309L1.04278 74.2085C1.03793 75.3931 0.669779 78.1968 2.1843 78.5133L14.3412 78.6367Z" fill="#8A70AD"/>
<path fill-rule="evenodd" clip-rule="evenodd" d="M34.8807 61.6198C36.6766 60.672 37.5614 64.6345 35.8637 65.6048C34.0807 66.6239 33.1107 62.5541 34.8807 61.6198ZM34.5432 58.1897C29.6665 59.8615 31.432 70.7441 36.2295 69.0358C37.9354 68.4285 39.4794 65.7832 39.0015 62.4576C38.6154 59.77 36.8275 57.4066 34.5432 58.1897Z" fill="#493169"/>
<path fill-rule="evenodd" clip-rule="evenodd" d="M24.7936 48.596C26.5818 47.5225 27.4659 51.5355 25.806 52.5218C24.1092 53.53 22.9152 49.7236 24.7936 48.596ZM24.5471 45.0732C22.7535 45.6314 21.1784 48.2051 21.6186 51.6443C21.9588 54.3025 23.7341 56.6982 26.0164 56.0081C27.7837 55.4737 29.3891 52.7963 28.9263 49.3864C28.5649 46.7235 26.7461 44.3889 24.5471 45.0732Z" fill="#493169"/>
<path fill-rule="evenodd" clip-rule="evenodd" d="M15.2413 59.1522C14.131 59.7252 14.4347 62.0492 14.4267 63.9273C14.4231 64.7831 14.3071 66.0162 14.5735 66.733C14.7798 67.2879 15.326 67.8642 16.0157 67.4705C17.0058 66.9053 16.7292 64.3295 16.7363 62.6561C16.7401 61.7657 16.8448 60.6001 16.5958 59.8918C16.3977 59.3284 15.8461 58.8401 15.2413 59.1522Z" fill="#F4F7F7"/>
<path fill-rule="evenodd" clip-rule="evenodd" d="M15.1885 46.4423C14.1887 47.1349 14.4873 49.4175 14.4786 51.3585C14.4745 52.2781 14.3797 53.4349 14.6869 54.0753C14.9506 54.6252 15.5146 55.0528 16.1081 54.6705C17.0535 54.0618 16.7813 51.644 16.7893 49.8002C16.7932 48.9159 16.9058 47.7835 16.6143 47.093C16.3507 46.4687 15.8231 46.0026 15.1885 46.4423Z" fill="#F4F7F7"/>
<path fill-rule="evenodd" clip-rule="evenodd" d="M16.8477 35.2117L14.5435 35.1904C14.5376 36.6268 14.5333 38.0633 14.5238 39.4997C14.5143 40.9339 14.705 42.0529 15.6842 42.0357C16.625 42.0192 16.8292 40.9081 16.8316 39.5227C16.8342 38.0856 16.8418 36.6486 16.8477 35.2117Z" fill="#F4F7F7"/>
<path fill-rule="evenodd" clip-rule="evenodd" d="M14.3822 78.6513L16.6709 78.6723L16.6887 74.3663C16.6942 73.2122 16.6149 72.4528 16.0656 72.0205C15.5008 71.5761 14.8799 71.9361 14.6176 72.5019C14.2315 73.3349 14.3876 77.3146 14.3822 78.6513Z" fill="#F4F7F7"/>
<path fill-rule="evenodd" clip-rule="evenodd" d="M34.8677 61.6019C33.0976 62.5361 34.0677 66.6059 35.8507 65.5869C37.5484 64.6165 36.6635 60.654 34.8677 61.6019Z" fill="#8A70AD"/>
<path fill-rule="evenodd" clip-rule="evenodd" d="M24.7812 48.5774C22.9027 49.705 24.0968 53.5114 25.7935 52.5032C27.4534 51.5169 26.5694 47.5039 24.7812 48.5774Z" fill="#8A70AD"/>
<path d="M7.92196 42.5344C8.16592 42.2206 8.44733 42.0846 8.7703 42.1211C9.09332 42.1577 9.35791 42.3556 9.56755 42.7208C9.77726 43.0861 9.86836 43.5015 9.84454 43.9735C9.8206 44.4454 9.6888 44.8357 9.44478 45.1494C9.20106 45.4576 8.91935 45.5993 8.59632 45.5627C8.27335 45.5261 8.00907 45.3226 7.79919 44.963L7.0659 43.6355L7.92196 42.5344ZM6.00896 41.519C5.79932 41.1537 5.70816 40.7382 5.73198 40.2664C5.75586 39.7944 5.88778 39.4042 6.13174 39.0904C6.37539 38.7822 6.65336 38.6401 6.96859 38.6758C7.28383 38.7115 7.5443 38.9147 7.75425 39.2742C7.96009 39.639 8.05512 40.0548 8.03124 40.5269C8.00736 40.9987 7.87169 41.3884 7.63147 41.7029L6.76951 42.8437L6.00896 41.519ZM5.44996 44.6969C5.2063 45.0051 4.92846 45.1472 4.6131 45.1115C4.30174 45.0763 4.03746 44.8727 3.82745 44.5132C3.62167 44.1484 3.52664 43.7325 3.55046 43.2605C3.57434 42.7885 3.71014 42.3989 3.95023 42.0845C4.19431 41.7708 4.47572 41.6347 4.78714 41.67C5.10243 41.7056 5.36309 41.9032 5.57274 42.2683L6.33334 43.5931L5.44996 44.6969Z" fill="#493169"/>
<path d="M56.8379 70.876L53.1562 70.8662L53.5566 68.5811L56.9355 68.5908C57.4173 68.5908 57.86 68.5062 58.2637 68.3369C58.6673 68.1611 58.9993 67.9072 59.2598 67.5752C59.5202 67.2432 59.6862 66.8265 59.7578 66.3252C59.8229 65.902 59.8001 65.5212 59.6895 65.1826C59.5788 64.8441 59.3835 64.5706 59.1035 64.3623C58.8236 64.154 58.4622 64.04 58.0195 64.0205L55.3535 64.0107L53.2832 75.9346H50.4219L52.8828 61.7158L58.1074 61.7256C59.0124 61.7451 59.8197 61.9404 60.5293 62.3115C61.2389 62.6761 61.7858 63.1969 62.1699 63.874C62.5605 64.5446 62.7168 65.3551 62.6387 66.3057C62.554 67.3408 62.2318 68.1969 61.6719 68.874C61.112 69.5511 60.4056 70.0557 59.5527 70.3877C58.7064 70.7132 57.8014 70.876 56.8379 70.876ZM66.9258 67.8193L65.5195 75.9346H62.7754L64.6113 65.3682H67.1895L66.9258 67.8193ZM70.373 65.2803L70.0312 67.9072C69.875 67.8812 69.7155 67.8584 69.5527 67.8389C69.3965 67.8193 69.237 67.8063 69.0742 67.7998C68.6966 67.7933 68.3548 67.8421 68.0488 67.9463C67.7428 68.0505 67.4759 68.2035 67.248 68.4053C67.0267 68.6006 66.8379 68.8415 66.6816 69.1279C66.5319 69.4144 66.418 69.7367 66.3398 70.0947L65.8027 69.9189C65.8678 69.4176 65.9753 68.8903 66.125 68.3369C66.2812 67.777 66.4961 67.2562 66.7695 66.7744C67.0495 66.2861 67.4043 65.8923 67.834 65.5928C68.2702 65.2868 68.8008 65.137 69.4258 65.1436C69.5885 65.1436 69.7448 65.1566 69.8945 65.1826C70.0508 65.2087 70.2103 65.2412 70.373 65.2803ZM70.0703 70.8174L70.0996 70.6123C70.1777 69.8636 70.3568 69.1605 70.6367 68.5029C70.9232 67.8389 71.3008 67.2562 71.7695 66.7549C72.2448 66.2471 72.8014 65.8532 73.4395 65.5732C74.084 65.2868 74.8066 65.1533 75.6074 65.1729C76.3691 65.1859 77.0267 65.3389 77.5801 65.6318C78.1335 65.9248 78.5859 66.3187 78.9375 66.8135C79.2956 67.3083 79.5462 67.8747 79.6895 68.5127C79.8392 69.1507 79.8815 69.8245 79.8164 70.5342L79.7969 70.749C79.7122 71.4912 79.5234 72.1911 79.2305 72.8486C78.944 73.4997 78.5632 74.0758 78.0879 74.5771C77.6191 75.0719 77.0625 75.4593 76.418 75.7393C75.7734 76.0192 75.0573 76.1494 74.2695 76.1299C73.5208 76.1169 72.8665 75.9671 72.3066 75.6807C71.7467 75.3877 71.291 74.9971 70.9395 74.5088C70.5879 74.014 70.3405 73.4508 70.1973 72.8193C70.054 72.1878 70.0117 71.5205 70.0703 70.8174ZM72.8438 70.6123L72.8242 70.8271C72.7917 71.1396 72.7819 71.4749 72.7949 71.833C72.8079 72.1846 72.8633 72.5199 72.9609 72.8389C73.0651 73.1579 73.2344 73.4183 73.4688 73.6201C73.7031 73.8219 74.0254 73.9294 74.4355 73.9424C74.8717 73.9554 75.2461 73.8675 75.5586 73.6787C75.8711 73.4899 76.1283 73.236 76.3301 72.917C76.5319 72.5915 76.6914 72.2399 76.8086 71.8623C76.9258 71.4782 77.0039 71.1038 77.043 70.7393L77.0625 70.5342C77.0885 70.2217 77.0951 69.8864 77.082 69.5283C77.0755 69.1637 77.0202 68.8219 76.916 68.5029C76.8118 68.1774 76.6426 67.9105 76.4082 67.7021C76.1738 67.4938 75.8516 67.3831 75.4414 67.3701C75.0052 67.3506 74.6309 67.4417 74.3184 67.6436C74.0059 67.8389 73.7487 68.0993 73.5469 68.4248C73.3451 68.7503 73.1855 69.1051 73.0684 69.4893C72.9577 69.8734 72.8828 70.2477 72.8438 70.6123ZM84.709 67.7119L83.293 75.9346H80.5391L82.375 65.3682H84.9434L84.709 67.7119ZM83.918 70.2803L83.1855 70.29C83.2637 69.652 83.4069 69.0238 83.6152 68.4053C83.8301 67.7868 84.123 67.2301 84.4941 66.7354C84.8717 66.2406 85.334 65.8499 85.8809 65.5635C86.4277 65.277 87.0658 65.1436 87.7949 65.1631C88.3353 65.1761 88.7845 65.2868 89.1426 65.4951C89.5007 65.7035 89.7839 65.9801 89.9922 66.3252C90.2005 66.6702 90.3372 67.0641 90.4023 67.5068C90.474 67.9495 90.487 68.4085 90.4414 68.8838L89.2695 75.9346H86.5254L87.6484 69.1865C87.6875 68.861 87.6842 68.5615 87.6387 68.2881C87.5931 68.0146 87.4792 67.7965 87.2969 67.6338C87.1146 67.4645 86.8379 67.3734 86.4668 67.3604C86.0632 67.3473 85.7116 67.4287 85.4121 67.6045C85.1126 67.7738 84.862 68.0016 84.6602 68.2881C84.4648 68.5745 84.3053 68.8936 84.1816 69.2451C84.0579 69.5902 83.9701 69.9352 83.918 70.2803ZM90.0801 69.958L89.0938 70.0947C89.1654 69.4697 89.3086 68.8643 89.5234 68.2783C89.7383 67.6859 90.0312 67.152 90.4023 66.6768C90.7734 66.2015 91.2259 65.8271 91.7598 65.5537C92.2936 65.2803 92.9121 65.1501 93.6152 65.1631C94.1947 65.1826 94.6764 65.3031 95.0605 65.5244C95.4447 65.7458 95.7409 66.0452 95.9492 66.4229C96.1641 66.8005 96.304 67.2269 96.3691 67.7021C96.4342 68.1709 96.4408 68.6657 96.3887 69.1865L95.2559 75.9346H92.502L93.6348 69.1768C93.6738 68.8512 93.6706 68.555 93.625 68.2881C93.5794 68.0146 93.4655 67.7965 93.2832 67.6338C93.1074 67.4645 92.834 67.3766 92.4629 67.3701C92.0918 67.3571 91.7663 67.4255 91.4863 67.5752C91.2129 67.7184 90.9818 67.917 90.793 68.1709C90.6042 68.4183 90.4512 68.6982 90.334 69.0107C90.2168 69.3232 90.1322 69.639 90.0801 69.958ZM97.8438 70.8174L97.873 70.6123C97.9512 69.8636 98.1302 69.1605 98.4102 68.5029C98.6966 67.8389 99.0742 67.2562 99.543 66.7549C100.018 66.2471 100.575 65.8532 101.213 65.5732C101.857 65.2868 102.58 65.1533 103.381 65.1729C104.143 65.1859 104.8 65.3389 105.354 65.6318C105.907 65.9248 106.359 66.3187 106.711 66.8135C107.069 67.3083 107.32 67.8747 107.463 68.5127C107.613 69.1507 107.655 69.8245 107.59 70.5342L107.57 70.749C107.486 71.4912 107.297 72.1911 107.004 72.8486C106.717 73.4997 106.337 74.0758 105.861 74.5771C105.393 75.0719 104.836 75.4593 104.191 75.7393C103.547 76.0192 102.831 76.1494 102.043 76.1299C101.294 76.1169 100.64 75.9671 100.08 75.6807C99.5202 75.3877 99.0645 74.9971 98.7129 74.5088C98.3613 74.014 98.1139 73.4508 97.9707 72.8193C97.8275 72.1878 97.7852 71.5205 97.8438 70.8174ZM100.617 70.6123L100.598 70.8271C100.565 71.1396 100.555 71.4749 100.568 71.833C100.581 72.1846 100.637 72.5199 100.734 72.8389C100.839 73.1579 101.008 73.4183 101.242 73.6201C101.477 73.8219 101.799 73.9294 102.209 73.9424C102.645 73.9554 103.02 73.8675 103.332 73.6787C103.645 73.4899 103.902 73.236 104.104 72.917C104.305 72.5915 104.465 72.2399 104.582 71.8623C104.699 71.4782 104.777 71.1038 104.816 70.7393L104.836 70.5342C104.862 70.2217 104.868 69.8864 104.855 69.5283C104.849 69.1637 104.794 68.8219 104.689 68.5029C104.585 68.1774 104.416 67.9105 104.182 67.7021C103.947 67.4938 103.625 67.3831 103.215 67.3701C102.779 67.3506 102.404 67.4417 102.092 67.6436C101.779 67.8389 101.522 68.0993 101.32 68.4248C101.118 68.7503 100.959 69.1051 100.842 69.4893C100.731 69.8734 100.656 70.2477 100.617 70.6123Z" fill="#493169"/>
<g filter="url(#filter0_d_2366_9701)">
<path d="M63.896 21.7665C64.1074 20.6901 65.6471 20.6901 65.8585 21.7665L67.3049 29.1311C67.397 29.6001 67.8081 29.9384 68.2861 29.9384H73.6996C74.5471 29.9384 75.0104 30.9264 74.4684 31.5779L69.3659 37.7113C69.1734 37.9426 69.0954 38.2483 69.1534 38.5435L70.8931 47.4022C71.0927 48.4185 69.8055 49.0306 69.1431 48.2345L65.646 44.0308C65.2462 43.5502 64.5083 43.5502 64.1085 44.0308L60.6114 48.2345C59.949 49.0306 58.6618 48.4185 58.8614 47.4022L60.6011 38.5435C60.6591 38.2483 60.5811 37.9426 60.3886 37.7113L55.2862 31.5779C54.7442 30.9265 55.2075 29.9384 56.0549 29.9384H61.4684C61.9464 29.9384 62.3576 29.6001 62.4497 29.1311L63.896 21.7665Z" fill="#FCB945"/>
</g>
<g filter="url(#filter1_d_2366_9701)">
<path d="M90.8121 12.8388C91.4543 12.1566 92.3889 13.2168 92.0916 14.2901L89.8993 22.2039C89.7679 22.6781 89.886 23.2468 90.1867 23.5879L94.557 28.5451C95.1628 29.2323 94.9169 30.5535 94.1776 30.584L87.9927 30.8389C87.691 30.8513 87.4338 31.1039 87.3258 31.4937L84.9493 40.0725C84.6623 41.1082 83.5708 40.8623 83.3968 39.7228L82.2354 32.1172C82.1456 31.5293 81.7632 31.0956 81.3498 31.1126L76.0005 31.3331C75.199 31.3661 74.7683 29.8853 75.3879 29.227L80.5201 23.774C80.7534 23.5262 80.8587 23.1013 80.7932 22.6724L79.4504 13.8788C79.2899 12.8276 80.1096 12.1574 80.7154 12.8445L85.0857 17.8018C85.3864 18.1429 85.794 18.1705 86.0777 17.8691L90.8121 12.8388Z" fill="#FCB945"/>
</g>
<g filter="url(#filter2_d_2366_9701)">
<path d="M104.105 44.0182C104.933 43.8486 105.295 45.0332 104.653 45.8149L99.8029 51.7222C99.5138 52.0743 99.4031 52.5757 99.5257 52.9773L101.73 60.2C102.021 61.1535 101.042 62.2255 100.344 61.7184L95.4218 58.146C95.0945 57.9085 94.6341 58.0178 94.3126 58.4094L89.7006 64.0267C89.0402 64.831 88.0728 64.3055 88.2746 63.252L89.87 54.9244C89.9528 54.4926 89.8288 54.0864 89.5532 53.8864L84.2388 50.029C83.5666 49.541 83.9471 48.1435 84.7997 47.969L90.7542 46.7504C91.1693 46.6654 91.5336 46.2412 91.6319 45.7283L93.1095 38.0159C93.3192 36.9212 94.5217 36.582 94.8127 37.5354L97.0171 44.7581C97.1397 45.1597 97.4695 45.3761 97.8427 45.2997L104.105 44.0182Z" fill="#FCB945"/>
</g>
<defs>
<filter id="filter0_d_2366_9701" x="55.0527" y="20.959" width="21.6484" height="28.6401" filterUnits="userSpaceOnUse" color-interpolation-filters="sRGB">
<feFlood flood-opacity="0" result="BackgroundImageFix"/>
<feColorMatrix in="SourceAlpha" type="matrix" values="0 0 0 0 0 0 0 0 0 0 0 0 0 0 0 0 0 0 127 0" result="hardAlpha"/>
<feOffset dx="2" dy="1"/>
<feComposite in2="hardAlpha" operator="out"/>
<feColorMatrix type="matrix" values="0 0 0 0 1 0 0 0 0 1 0 0 0 0 1 0 0 0 0.25 0"/>
<feBlend mode="normal" in2="BackgroundImageFix" result="effect1_dropShadow_2366_9701"/>
<feBlend mode="normal" in="SourceGraphic" in2="effect1_dropShadow_2366_9701" result="shape"/>
</filter>
<filter id="filter1_d_2366_9701" x="75.0928" y="12.5649" width="21.8057" height="29.1636" filterUnits="userSpaceOnUse" color-interpolation-filters="sRGB">
<feFlood flood-opacity="0" result="BackgroundImageFix"/>
<feColorMatrix in="SourceAlpha" type="matrix" values="0 0 0 0 0 0 0 0 0 0 0 0 0 0 0 0 0 0 127 0" result="hardAlpha"/>
<feOffset dx="2" dy="1"/>
<feComposite in2="hardAlpha" operator="out"/>
<feColorMatrix type="matrix" values="0 0 0 0 1 0 0 0 0 1 0 0 0 0 1 0 0 0 0.25 0"/>
<feBlend mode="normal" in2="BackgroundImageFix" result="effect1_dropShadow_2366_9701"/>
<feBlend mode="normal" in="SourceGraphic" in2="effect1_dropShadow_2366_9701" result="shape"/>
</filter>
<filter id="filter2_d_2366_9701" x="83.8945" y="36.9775" width="23.0869" height="28.4399" filterUnits="userSpaceOnUse" color-interpolation-filters="sRGB">
<feFlood flood-opacity="0" result="BackgroundImageFix"/>
<feColorMatrix in="SourceAlpha" type="matrix" values="0 0 0 0 0 0 0 0 0 0 0 0 0 0 0 0 0 0 127 0" result="hardAlpha"/>
<feOffset dx="2" dy="1"/>
<feComposite in2="hardAlpha" operator="out"/>
<feColorMatrix type="matrix" values="0 0 0 0 1 0 0 0 0 1 0 0 0 0 1 0 0 0 0.25 0"/>
<feBlend mode="normal" in2="BackgroundImageFix" result="effect1_dropShadow_2366_9701"/>
<feBlend mode="normal" in="SourceGraphic" in2="effect1_dropShadow_2366_9701" result="shape"/>
</filter>
</defs>
</svg>
