<svg width="44" height="45" viewBox="0 0 44 45" fill="none" xmlns="http://www.w3.org/2000/svg">
<path fill-rule="evenodd" clip-rule="evenodd" d="M15.3115 25.2124C15.9163 24.9003 16.4679 25.3886 16.6661 25.9521C16.9151 26.6603 16.8103 27.8259 16.8065 28.7163C16.7994 30.3897 17.076 32.9655 16.0859 33.5307C15.3962 33.9245 14.85 33.3481 14.6437 32.7932C14.3773 32.0764 14.4933 30.8434 14.497 29.9875C14.5049 28.1094 14.2012 25.7855 15.3115 25.2124ZM34.703 24.2443C36.9873 23.4612 38.7751 25.8246 39.1613 28.5121C39.6392 31.8378 38.0952 34.483 36.3893 35.0904C31.5918 36.7987 29.8263 25.916 34.703 24.2443ZM15.2586 12.4351C15.8932 11.9954 16.4209 12.4615 16.6845 13.0858C16.976 13.7763 16.8633 14.9087 16.8594 15.793C16.8515 17.6368 17.1236 20.0546 16.1783 20.6633C15.5848 21.0456 15.0208 20.6179 14.7571 20.0681C14.4499 19.4277 14.5446 18.2709 14.5487 17.3513C14.5574 15.4103 14.2588 13.1277 15.2586 12.4351ZM24.6555 11.0595C26.8545 10.3751 28.6734 12.7097 29.0348 15.3726C29.4976 18.7825 27.8921 21.4599 26.1249 21.9943C23.8425 22.6844 22.0672 20.2887 21.727 17.6305C21.2869 14.1913 22.862 11.6176 24.6555 11.0595ZM34.5287 11.7262C35.4789 11.3147 36.2966 12.754 35.8344 14.1728L31.865 22.9032C30.9516 24.8682 30.0949 26.7717 29.2057 28.6967C28.7238 29.74 27.0119 33.9384 26.3546 34.2028C25.325 34.6168 24.5833 33.1312 25.0255 31.7567L32.9907 14.3498C33.4193 13.4243 33.801 12.0413 34.5287 11.7262ZM1.04297 40.3484L14.3775 40.4708L14.3414 44.7766L14.4514 44.7776C14.4569 43.4409 14.3008 39.4613 14.6868 38.6283C14.9491 38.0625 15.5701 37.7025 16.1348 38.1469C16.6841 38.5791 16.7635 39.3386 16.758 40.4927L38.936 40.6962C40.1893 40.7077 42.1478 41.2262 42.924 39.9498C43.7011 38.6721 43.1256 29.6391 43.3503 27.0932C42.9484 26.318 42.647 24.5581 42.6475 23.2112C42.6482 21.8505 42.9768 20.1016 43.3819 19.3392L43.4152 1.38981L16.9194 1.14667C16.9135 2.58362 16.9059 4.02066 16.9033 5.45769C16.9009 6.84309 16.6967 7.9542 15.7559 7.97074C14.7767 7.98793 14.586 6.86891 14.5955 5.43472C14.6051 3.99833 14.6094 2.56184 14.6152 1.12544C10.8173 1.09062 7.01586 1.07987 3.21847 1.02032C2.71606 1.01251 2.36344 0.924393 1.99431 1.1882C1.69578 1.40157 1.41155 1.84098 1.28754 2.28452C1.0601 3.09828 1.15224 13.6746 1.14653 15.0744C2.68248 15.6249 3.31976 16.1102 4.28019 17.5772C6.38632 20.7941 6.0701 27.0682 2.94117 29.6415C2.26252 30.1996 1.89812 30.306 1.08299 30.5824L1.04297 40.3484Z" fill="white" stroke="#FEFEFE" stroke-width="0.132003" stroke-linecap="round"/>
<path fill-rule="evenodd" clip-rule="evenodd" d="M34.4032 11.6705C33.6754 11.9856 33.2937 13.3686 32.8651 14.2941L24.9 31.7011C24.4577 33.0755 25.1994 34.5612 26.229 34.1471C26.8863 33.8828 28.5982 29.6843 29.0801 28.641C29.9694 26.716 30.826 24.8126 31.7394 22.8475L35.7088 14.1172C36.1711 12.6983 35.3533 11.2591 34.4032 11.6705Z" fill="#493169"/>
<path fill-rule="evenodd" clip-rule="evenodd" d="M34.8797 27.5539C36.6756 26.6061 37.5605 30.5686 35.8627 31.5389C34.0798 32.558 33.1097 28.4881 34.8797 27.5539ZM34.5422 24.1238C29.6655 25.7955 31.431 36.6782 36.2286 34.9699C37.9344 34.3626 39.4784 31.7173 39.0006 28.3917C38.6144 25.7041 36.8265 23.3407 34.5422 24.1238Z" fill="#493169"/>
<path fill-rule="evenodd" clip-rule="evenodd" d="M24.7822 14.5115C22.9037 15.6391 24.0977 19.4455 25.7945 18.4373C27.4544 17.451 26.5704 13.438 24.7822 14.5115Z" fill="white"/>
<path d="M7.92196 8.46853C8.16592 8.15473 8.44733 8.01864 8.7703 8.05521C9.09332 8.09179 9.35791 8.28971 9.56755 8.65488C9.77726 9.02022 9.86836 9.43556 9.84454 9.90759C9.8206 10.3795 9.6888 10.7698 9.44478 11.0835C9.20106 11.3917 8.91935 11.5334 8.59632 11.4968C8.27335 11.4602 8.00907 11.2567 7.79919 10.8971L7.0659 9.56962L7.92196 8.46853ZM6.00896 7.45307C5.79932 7.08782 5.70816 6.6723 5.73198 6.20045C5.75586 5.72851 5.88778 5.33827 6.13174 5.02447C6.37539 4.71627 6.65336 4.57422 6.96859 4.60987C7.28383 4.64561 7.5443 4.84878 7.75425 5.20824C7.96009 5.57304 8.05512 5.98893 8.03124 6.46096C8.00736 6.9328 7.87169 7.3225 7.63147 7.63694L6.76951 8.77782L6.00896 7.45307ZM5.44996 10.631C5.2063 10.9392 4.92846 11.0813 4.6131 11.0456C4.30174 11.0103 4.03746 10.8068 3.82745 10.4472C3.62167 10.0825 3.52664 9.66656 3.55046 9.19454C3.57434 8.7226 3.71014 8.33299 3.95023 8.01855C4.19431 7.70484 4.47572 7.56876 4.78714 7.60404C5.10243 7.6397 5.36309 7.83726 5.57274 8.20242L6.33334 9.52717L5.44996 10.631Z" fill="#FBB636"/>
</svg>
