<svg width="52" height="51" viewBox="0 0 52 51" fill="none" xmlns="http://www.w3.org/2000/svg">
<path d="M43.8058 42.966C44.1727 42.5365 44.6143 42.3251 45.1367 42.3251C45.6592 42.3251 46.1007 42.5365 46.4676 42.966C46.8347 43.3957 47.0149 43.9053 47.0149 44.5026C47.0149 45.0999 46.8347 45.6096 46.4676 46.0392C46.1007 46.4616 45.6592 46.6801 45.1367 46.6801C44.6143 46.6801 44.1727 46.4616 43.8058 46.0392L42.5185 44.4733L43.8058 42.966ZM40.6465 41.9611C40.2795 41.5313 40.0991 41.0216 40.0991 40.4245C40.0991 39.8273 40.2795 39.3175 40.6465 38.888C41.0133 38.4655 41.4488 38.2471 41.9587 38.2471C42.4686 38.2471 42.9041 38.4655 43.2709 38.888C43.6317 39.3175 43.8183 39.8273 43.8183 40.4245C43.8183 41.0216 43.6317 41.5313 43.2709 41.9611L41.9774 43.5194L40.6465 41.9611ZM40.0059 46.0392C39.639 46.4616 39.2036 46.6801 38.6936 46.6801C38.1899 46.6801 37.7483 46.4616 37.3813 46.0392C37.0207 45.6096 36.834 45.0999 36.834 44.5026C36.834 43.9053 37.0207 43.3957 37.3813 42.966C37.7483 42.5365 38.1899 42.3251 38.6936 42.3251C39.2036 42.3251 39.639 42.5365 40.0059 42.966L41.3368 44.5246L40.0059 46.0392Z" fill="#FCB945"/>
<path d="M50.1822 12.6057L50.2056 0.105695L1.87239 0.00179144L1.84897 12.5018L1.01564 12.5L0.953308 45.7679C0.948942 48.0981 2.72046 50.0037 4.8952 50.0084L46.9951 50.0989C49.1703 50.1036 50.9485 48.2055 50.9529 45.8754L51.0155 12.6075L50.1822 12.6057ZM48.0989 12.6012L43.7937 6.42213L48.044 1.88677L48.5356 1.88783L48.5155 12.6021L48.0989 12.6012ZM10.1823 12.5197L10.194 6.26972C10.194 6.25193 10.1856 6.22506 10.1857 6.20727C10.1858 6.15356 10.1693 6.10016 10.1528 6.0377C10.1444 6.0021 10.1445 5.95746 10.1279 5.9215C10.1195 5.90369 10.1029 5.88587 10.0948 5.86772C10.0699 5.81395 10.0449 5.77832 10.0117 5.73361C9.98674 5.69798 9.97867 5.66204 9.94519 5.63511L6.37754 1.79724L45.6858 1.88174L42.1038 5.70424C42.0787 5.73104 42.062 5.77565 42.0369 5.80246C42.0036 5.84703 41.97 5.8916 41.9533 5.93621C41.9448 5.95397 41.9282 5.97173 41.92 5.98984C41.9033 6.02538 41.9032 6.06131 41.8947 6.10593C41.878 6.15961 41.8694 6.21295 41.8612 6.27536C41.8693 6.29317 41.8608 6.32 41.8607 6.33779L41.849 12.5878L10.1823 12.5197ZM6.01563 12.5108L8.52232 8.94471L8.51562 12.5161L6.01563 12.5108ZM43.5222 9.01995L46.0155 12.5968L43.5155 12.5914L43.5222 9.01995ZM3.53571 1.79109L4.02724 1.79215L8.26022 6.34574L3.93225 12.5063L3.51559 12.5054L3.53571 1.79109ZM49.2865 45.8718C49.284 47.2202 48.2569 48.3159 46.9988 48.3132L4.89888 48.2227C3.64072 48.22 2.61778 47.1195 2.6203 45.7715L2.67929 14.2893L49.3459 14.3896L49.2865 45.8718Z" fill="#7858A1"/>
<path d="M36.0032 19.7181C35.5449 19.7171 35.1691 20.1181 35.1682 20.6092L35.1582 25.9663C35.148 31.3859 31.0314 35.779 25.9731 35.7681C20.9149 35.7572 16.8147 31.3465 16.8249 25.9269L16.8349 20.5698C16.8358 20.0787 16.4616 19.6761 16.0033 19.6751C15.5449 19.6741 15.1692 20.0751 15.1682 20.5662L15.1582 25.9234C15.1462 32.3251 19.9949 37.541 25.9698 37.5538C31.9447 37.5667 36.8128 32.3716 36.8248 25.9699L36.8349 20.6128C36.8358 20.1217 36.4615 19.7191 36.0032 19.7181Z" fill="#FCB945"/>
<path d="M17.6681 20.5714C17.6672 21.0625 18.0414 21.4651 18.4998 21.4661C18.9581 21.4671 19.3338 21.0661 19.3348 20.575C19.3385 18.6016 17.85 17.0004 16.0081 16.9964C14.1663 16.9925 12.6718 18.5873 12.6681 20.5607C12.6672 21.0518 13.0414 21.4544 13.4998 21.4553C13.9581 21.4563 14.3339 21.0553 14.3348 20.5643C14.3366 19.5821 15.0881 18.7802 16.0048 18.7821C16.9215 18.7841 17.6699 19.5893 17.6681 20.5714Z" fill="#7858A1"/>
<path d="M36.0072 17.0394C34.1653 17.0354 32.6708 18.6303 32.6671 20.6037C32.6662 21.0947 33.0405 21.4973 33.4988 21.4983C33.9571 21.4993 34.3329 21.0983 34.3338 20.6072C34.3356 19.6251 35.0871 18.8231 36.0038 18.8251C36.9205 18.8271 37.669 19.6323 37.6671 20.6144C37.6662 21.1055 38.0405 21.5081 38.4988 21.5091C38.9571 21.51 39.3329 21.1091 39.3338 20.618C39.3375 18.6446 37.849 17.0434 36.0072 17.0394Z" fill="#7858A1"/>
</svg>
