<svg width="101" height="129" viewBox="0 0 101 129" fill="none" xmlns="http://www.w3.org/2000/svg">
<path fill-rule="evenodd" clip-rule="evenodd" d="M10.6977 43.8506C11.2516 44.4123 12.088 48.4869 12.7621 50.3228C13.4717 52.2556 14.4393 54.3084 15.5204 55.9622C16.7683 57.8698 19.5934 61.621 21.3063 62.9786C23.6353 64.8281 22.9969 64.6073 26.1178 66.8208C28.3378 68.3953 32.0772 70.3087 34.8333 71.2905C47.406 75.7699 60.6416 74.8346 72.0154 68.5812C80.5729 63.8791 86.8126 56.1249 89.195 47.3753L89.9179 44.4336C90.1582 43.93 89.9758 44.176 90.305 43.8429C90.8166 24.3702 72.4825 8.57518 50.5002 8.57324C28.6203 8.57131 10.0571 24.4825 10.6977 43.8506Z" fill="url(#paint0_linear_2061_7699)"/>
<path fill-rule="evenodd" clip-rule="evenodd" d="M4.70476 25.3463C6.60669 22.0618 6.8803 21.5409 9.28273 18.4578C10.8732 16.4146 13.0176 14.3037 14.9996 12.5627L21.8821 7.6805C25.815 5.41273 25.6637 5.55797 29.8613 3.75498C41.8646 -1.40029 59.6404 -1.10205 71.1342 3.75886C76.6909 6.10797 81.5269 8.63525 86.0004 12.5627C94.856 20.3382 101 31.3866 101 42.7119C100.402 43.9378 100.439 45.9596 100.128 47.445C93.3456 79.7923 47.8195 96.3058 15.7115 71.3894C13.8874 69.9737 11.6318 67.6323 10.0302 65.6957C-0.0889796 53.4602 1.1456 45.2334 0 42.9017C0 36.598 2.24227 29.6011 4.70476 25.3463ZM14.3034 58.201C22.792 75.0999 46.2401 83.3112 66.8543 75.4369C69.0877 74.5828 71.301 73.4945 73.1118 72.3712C79.08 68.6703 83.7225 64.0573 86.6922 58.1952C89.4194 52.8133 89.6196 50.0711 90.3047 43.8429C90.8164 24.3703 72.4822 8.57522 50.5 8.57328C28.6201 8.57135 10.0568 24.4826 10.6975 43.8507C11.347 50.0633 11.6295 52.8792 14.3034 58.201Z" fill="#F7F7F7"/>
<g filter="url(#filter0_d_2061_7699)">
<path fill-rule="evenodd" clip-rule="evenodd" d="M48.3289 93.2712C41.8468 92.9264 36.5325 92.055 30.9513 90.2694C27.4388 89.1462 19.6132 85.9062 17.7201 84.1245C17.0528 84.7926 13.8473 93.2247 13.4069 94.3789C12.586 96.5247 6.32859 110.658 6.92698 111.872C7.48754 113.009 10.0702 112.397 11.1779 112.295C12.9887 112.124 14.3434 112.101 16.1363 111.884C17.9092 111.669 19.2773 111.628 21.019 111.406C25.2188 110.869 25.3501 112.223 30.7489 116.923C33.2536 119.104 34.6172 121 36.924 121C39.1173 118.149 41.1905 110.801 42.8189 107.221L47.0098 96.6873C47.3546 95.8836 48.1999 94.224 48.3289 93.2712Z" fill="#493169"/>
<path d="M21.019 111.406C20.1173 111.521 19.3157 111.587 18.5063 111.655C17.7522 111.717 16.9914 111.78 16.1363 111.884M21.019 111.406L6.92698 111.872M21.019 111.406C24.3099 110.985 25.1027 111.725 27.889 114.327M21.019 111.406L27.889 114.327M16.1363 111.884L16.1063 111.636C16.9661 111.532 17.7312 111.468 18.4845 111.406L18.5686 111.399C19.35 111.334 20.1225 111.268 20.9873 111.158L20.9873 111.158C22.0481 111.022 22.8729 111.003 23.5966 111.134C24.326 111.267 24.9378 111.55 25.5772 111.995C26.2105 112.437 26.877 113.042 27.7119 113.82C27.8246 113.925 27.9404 114.033 28.0599 114.144C28.8295 114.863 29.748 115.72 30.913 116.734C31.4697 117.219 31.9705 117.69 32.4344 118.126C32.4959 118.184 32.5568 118.241 32.6171 118.298C33.1338 118.783 33.604 119.217 34.0659 119.583C34.9507 120.284 35.7832 120.716 36.801 120.748C37.8452 119.339 38.8741 116.882 39.8494 114.296C40.1542 113.488 40.4535 112.667 40.7457 111.867C41.4022 110.068 42.0227 108.368 42.5888 107.123L46.7775 96.5949L46.7799 96.5887L46.78 96.5888C46.8559 96.4119 46.9554 96.1947 47.0643 95.957C47.0813 95.92 47.0985 95.8824 47.1159 95.8445C47.2455 95.5611 47.3864 95.2511 47.5203 94.9371C47.7402 94.4212 47.9332 93.913 48.03 93.5052C41.6596 93.1493 36.3981 92.2745 30.8751 90.5075C29.1081 89.9424 26.2649 88.848 23.6267 87.6722C22.3071 87.0841 21.0354 86.4741 19.973 85.8981C19.0551 85.4004 18.2784 84.9203 17.7633 84.4949C17.7112 84.5824 17.6511 84.6925 17.5836 84.8238C17.4344 85.1145 17.2549 85.4984 17.055 85.9479C16.6556 86.8463 16.1799 87.9957 15.7103 89.1627C14.8171 91.3827 13.9493 93.6581 13.6774 94.3712C13.6635 94.4076 13.6511 94.44 13.6404 94.468L13.6404 94.4682C13.4641 94.9291 13.0345 95.9489 12.476 97.2748C11.7362 99.0313 10.7701 101.325 9.86662 103.568C9.07096 105.544 8.32143 107.486 7.8085 109.008C7.55178 109.77 7.35635 110.421 7.2437 110.916C7.18726 111.163 7.15321 111.365 7.14138 111.519C7.13548 111.595 7.13554 111.655 7.13956 111.699C7.14369 111.744 7.15098 111.761 7.15122 111.762L7.15123 111.762L6.92698 111.872M16.1363 111.884L16.1062 111.636C15.0592 111.762 14.1755 111.822 13.2562 111.884C12.5984 111.928 11.9222 111.973 11.1549 112.046M16.1363 111.884C15.0875 112.011 14.1886 112.071 13.2607 112.134C12.6024 112.178 11.9294 112.224 11.1779 112.295M6.92698 111.872L7.1512 111.762C7.24984 111.962 7.44423 112.104 7.74335 112.193C8.04457 112.283 8.42403 112.31 8.84031 112.298C9.25402 112.287 9.6878 112.238 10.0923 112.184C10.215 112.168 10.3363 112.151 10.4537 112.134C10.7162 112.098 10.959 112.064 11.1549 112.046M6.92698 111.872C7.39144 112.814 9.24406 112.556 10.4958 112.381C10.7548 112.345 10.988 112.312 11.1779 112.295M11.1549 112.046L11.1779 112.295M11.1549 112.046C11.1548 112.046 11.1546 112.046 11.1545 112.046L11.1779 112.295M27.889 114.327C28.6587 115.045 29.5804 115.906 30.7489 116.923M27.889 114.327L30.7489 116.923M30.7489 116.923C31.3017 117.404 31.7989 117.872 32.2629 118.308M30.7489 116.923L32.2629 118.308M32.2629 118.308C33.9015 119.848 35.1263 121 36.924 121L32.2629 118.308Z" stroke="#FFBA57" stroke-width="0.5"/>
</g>
<g filter="url(#filter1_d_2061_7699)">
<path fill-rule="evenodd" clip-rule="evenodd" d="M52.6709 93.2712L63.0814 119.501C63.5352 120.641 63.4596 120.2 64.0758 121C66.3759 121 67.5838 119.245 70.1174 117.041C71.9927 115.409 73.6877 113.954 75.5385 112.306C76.6641 111.305 77.1579 111.104 79.5092 111.342C81.0685 111.499 82.6212 111.673 84.4141 111.801C97.8255 112.769 95.7968 115.887 87.6619 94.5551L83.2797 84.1245C81.4244 85.9101 73.4074 89.1984 69.8639 90.3391C64.5563 92.0511 58.7971 92.9458 52.6709 93.2712Z" fill="#493169"/>
<path d="M75.3722 112.119L75.3723 112.119C75.9399 111.615 76.3821 111.279 77.001 111.117C77.6073 110.959 78.3594 110.974 79.5344 111.093M75.3722 112.119L79.5092 111.342M75.3722 112.119C74.0259 113.318 72.7626 114.414 71.4509 115.552C70.9607 115.977 70.4638 116.408 69.9533 116.853C69.3852 117.347 68.8833 117.819 68.4241 118.25C68.3678 118.303 68.312 118.355 68.2569 118.407C67.7507 118.882 67.2977 119.301 66.8543 119.65C66.0067 120.318 65.2119 120.719 64.196 120.748M75.3722 112.119L64.196 120.748M79.5344 111.093L79.5092 111.342M79.5344 111.093C79.5343 111.093 79.5343 111.093 79.5342 111.093L79.5092 111.342M79.5344 111.093C79.8517 111.125 80.1683 111.158 80.4865 111.19C81.7351 111.319 83.0069 111.45 84.4319 111.551L84.4321 111.551C86.1136 111.673 87.5527 111.828 88.7658 111.964C88.9202 111.982 89.0708 111.999 89.2176 112.015C90.2278 112.129 91.061 112.224 91.7386 112.265C92.5233 112.312 93.055 112.285 93.3938 112.16C93.5561 112.1 93.662 112.022 93.7324 111.928C93.8032 111.834 93.8527 111.705 93.8688 111.519C93.9021 111.133 93.7879 110.561 93.5082 109.72C93.2312 108.888 92.8042 107.828 92.2416 106.482C92.0374 105.993 91.8157 105.467 91.5773 104.902C90.5045 102.357 89.0947 99.0138 87.4298 94.6481M79.5092 111.342C79.8255 111.374 80.1415 111.406 80.4593 111.439C81.7083 111.567 82.9849 111.699 84.4141 111.801C90.2265 112.22 93.1387 113.044 93.9108 112.106C94.9201 110.879 92.2712 106.642 87.6619 94.5551M87.4298 94.6481L87.4314 94.652L87.6619 94.5551M87.4298 94.6481C87.4293 94.6468 87.4288 94.6455 87.4283 94.6442L87.6619 94.5551M87.4298 94.6481L83.1837 84.5415M87.6619 94.5551L83.3829 84.3703C83.3215 84.4263 83.255 84.4834 83.1837 84.5415M83.1837 84.5415L83.0825 84.3008L63.3137 119.408L53.0314 93.5017C59.0437 93.1605 64.7079 92.2649 69.9406 90.577C71.7226 90.0034 74.6211 88.8927 77.3062 87.7022C78.6492 87.1067 79.9424 86.4897 81.018 85.9083C81.9128 85.4247 82.6723 84.9577 83.1837 84.5415ZM64.196 120.748C64.0749 120.597 63.981 120.494 63.9033 120.414C63.8593 120.369 63.8267 120.337 63.7996 120.31C63.763 120.275 63.7366 120.249 63.7064 120.214C63.6236 120.119 63.5425 119.983 63.3138 119.408L64.196 120.748Z" stroke="#FFBA57" stroke-width="0.5"/>
</g>
<path fill-rule="evenodd" clip-rule="evenodd" d="M0 42.9017C0 55.5129 4.03519 63.5712 11.7875 72.2085C13.2267 73.812 17.7335 77.4625 19.5487 78.7388C20.8166 79.1803 25.0031 82.5287 32.8644 85.0618C47.8462 89.8917 64.988 88.3483 78.208 80.5979C79.0956 80.077 80.6305 79.0293 81.4513 78.7446C81.9096 78.4173 82.0653 78.2488 82.5035 77.9448L85.4887 75.584C88.7076 73.3608 93.5213 67.396 95.3009 64.2723C98.9357 57.8892 101 52.2749 101 42.7119C100.402 43.9378 100.439 45.9596 100.128 47.445C93.3456 79.7923 47.8195 96.3058 15.7115 71.3893C13.8874 69.9737 11.6318 67.6323 10.0302 65.6957C-0.0889796 53.4601 1.1456 45.2334 0 42.9017Z" fill="#CCCCCC"/>
<path d="M31.0273 90.0313L31.0273 90.0313C29.2819 89.4731 26.4561 88.3859 23.8301 87.2155C22.5175 86.6305 21.2583 86.0263 20.2112 85.4586C19.2162 84.9191 18.4304 84.4219 17.969 84.0133C17.9799 83.2846 18.3436 82.4702 18.7704 81.5796C18.7994 81.5191 18.8287 81.4583 18.8581 81.3971C19.2161 80.6533 19.5956 79.8647 19.7467 79.0967C20.031 79.2372 20.4196 79.4655 20.93 79.7713C21.0037 79.8154 21.0796 79.861 21.1578 79.9079C21.8146 80.3022 22.6313 80.7923 23.6129 81.3348C25.8113 82.5496 28.8381 84.0272 32.7875 85.2997C47.8324 90.152 65.0487 88.6024 78.3343 80.8136L78.3344 80.8135C78.5821 80.6681 78.886 80.4782 79.2081 80.2769C79.4618 80.1183 79.7267 79.9527 79.9843 79.7963C80.4512 79.5129 80.8975 79.2573 81.2522 79.0954C81.4029 79.8609 81.782 80.6489 82.1399 81.3928C82.1702 81.4556 82.2003 81.5181 82.23 81.5803C82.6568 82.4711 83.0203 83.2865 83.0307 84.0148C82.578 84.4232 81.7884 84.9235 80.7802 85.4685C79.7201 86.0415 78.4397 86.6527 77.1036 87.2451C74.4306 88.4302 71.5489 89.5341 69.7873 90.1011L69.7871 90.1012C64.5511 91.7901 58.868 92.6814 52.8166 93.0129C52.5524 92.5063 52.1497 91.6283 51.79 90.7427C51.5929 90.2574 51.4103 89.7736 51.2715 89.351C51.1308 88.9228 51.0411 88.5754 51.0201 88.3554L50.9984 88.1292H50.7712H50.2284H50.0012L49.9796 88.3554C49.9585 88.5754 49.8689 88.9228 49.7282 89.351C49.5893 89.7736 49.4067 90.2574 49.2096 90.7427C48.85 91.6283 48.4473 92.5063 48.1831 93.0129C41.7901 92.6634 36.5388 91.7945 31.0273 90.0313Z" fill="#351B5C" stroke="#FFBA57" stroke-width="0.5"/>
<path fill-rule="evenodd" clip-rule="evenodd" d="M90.3045 43.8428C89.9753 44.1759 90.1577 43.9299 89.9174 44.4334L89.1945 47.3752C86.8121 56.1248 80.5724 63.879 72.0149 68.5811C60.6411 74.8344 47.4055 75.7698 34.8328 71.2904C32.0767 70.3086 28.3396 68.3952 26.1173 66.8207C22.9964 64.6072 23.6348 64.8279 21.3058 62.9785C19.5929 61.6209 16.7679 57.8697 15.5199 55.9621C14.4388 54.3082 13.4712 52.2554 12.7616 50.3227C12.0876 48.4868 11.2512 44.4121 10.6973 43.8505C11.3468 50.0632 11.6293 52.879 14.3031 58.2008C22.7917 75.0998 46.2399 83.311 66.8541 75.4367C69.0875 74.5827 71.3008 73.4943 73.1115 72.3711C79.0798 68.6702 83.7223 64.0572 86.692 58.195C89.4192 52.8132 89.6194 50.0709 90.3045 43.8428Z" fill="#CCCCCC"/>
<path d="M60.6927 41.0792C62.6792 39.3478 65.0727 38.4977 67.9022 38.4977C70.734 38.4977 73.1253 39.3478 75.114 41.0792C77.1027 42.8105 78.0792 44.8633 78.0792 47.2686C78.0792 49.6739 77.1027 51.7286 75.114 53.458C73.1253 55.1603 70.734 56.0395 67.9022 56.0395C65.0727 56.0395 62.6792 55.1603 60.6927 53.458L53.7168 47.1505L60.6927 41.0792ZM43.5754 37.0316C41.589 35.3003 40.6102 33.2475 40.6102 30.8422C40.6102 28.4369 41.589 26.3822 43.5754 24.6528C45.5641 22.9505 47.922 22.0713 50.6848 22.0713C53.4476 22.0713 55.8078 22.9505 57.7965 24.6528C59.7496 26.3822 60.7617 28.4369 60.7617 30.8422C60.7617 33.2475 59.7496 35.3003 57.7965 37.0316L50.7871 43.3082L43.5754 37.0316ZM40.1052 53.46C38.1165 55.1622 35.7586 56.0415 32.9936 56.0415C30.2664 56.0415 27.8728 55.1622 25.8842 53.46C23.9311 51.7306 22.9189 49.6758 22.9189 47.2705C22.9189 44.8653 23.9311 42.8124 25.8842 41.0811C27.8728 39.3498 30.2664 38.4996 32.9936 38.4996C35.7586 38.4996 38.1165 39.3498 40.1052 41.0811L47.3147 47.3577L40.1052 53.46Z" fill="white"/>
<path d="M59.9051 59.874L60.5925 61.7254L62.8281 61.7216L61.0173 62.8622L61.7114 64.7117L59.9051 63.5652L58.0988 64.7117L58.7951 62.8622L56.9844 61.7216L59.22 61.7254L59.9051 59.874Z" fill="#F7F7F7"/>
<path d="M52.2823 59.874L52.9675 61.7254L55.2031 61.7216L53.3923 62.8622L54.0886 64.7117L52.2823 63.5652L50.4761 64.7117L51.1701 62.8622L49.3594 61.7216L51.595 61.7254L52.2823 59.874Z" fill="#F7F7F7"/>
<path d="M44.6561 59.874L45.3434 61.7254L47.579 61.7216L45.7683 62.8622L46.4624 64.7117L44.6561 63.5652L42.852 64.7117L43.5461 62.8622L41.7354 61.7216L43.9709 61.7254L44.6561 59.874Z" fill="#F7F7F7"/>
<defs>
<filter id="filter0_d_2061_7699" x="2.88672" y="84.1245" width="49.4424" height="44.875" filterUnits="userSpaceOnUse" color-interpolation-filters="sRGB">
<feFlood flood-opacity="0" result="BackgroundImageFix"/>
<feColorMatrix in="SourceAlpha" type="matrix" values="0 0 0 0 0 0 0 0 0 0 0 0 0 0 0 0 0 0 127 0" result="hardAlpha"/>
<feOffset dy="4"/>
<feGaussianBlur stdDeviation="2"/>
<feComposite in2="hardAlpha" operator="out"/>
<feColorMatrix type="matrix" values="0 0 0 0 0 0 0 0 0 0 0 0 0 0 0 0 0 0 0.25 0"/>
<feBlend mode="normal" in2="BackgroundImageFix" result="effect1_dropShadow_2061_7699"/>
<feBlend mode="normal" in="SourceGraphic" in2="effect1_dropShadow_2061_7699" result="shape"/>
</filter>
<filter id="filter1_d_2061_7699" x="48.6709" y="84.1245" width="49.4531" height="44.875" filterUnits="userSpaceOnUse" color-interpolation-filters="sRGB">
<feFlood flood-opacity="0" result="BackgroundImageFix"/>
<feColorMatrix in="SourceAlpha" type="matrix" values="0 0 0 0 0 0 0 0 0 0 0 0 0 0 0 0 0 0 127 0" result="hardAlpha"/>
<feOffset dy="4"/>
<feGaussianBlur stdDeviation="2"/>
<feComposite in2="hardAlpha" operator="out"/>
<feColorMatrix type="matrix" values="0 0 0 0 0 0 0 0 0 0 0 0 0 0 0 0 0 0 0.25 0"/>
<feBlend mode="normal" in2="BackgroundImageFix" result="effect1_dropShadow_2061_7699"/>
<feBlend mode="normal" in="SourceGraphic" in2="effect1_dropShadow_2061_7699" result="shape"/>
</filter>
<linearGradient id="paint0_linear_2061_7699" x1="13.0713" y1="15.4812" x2="59.3583" y2="86.5975" gradientUnits="userSpaceOnUse">
<stop stop-color="#CFCFCF"/>
<stop offset="0.388" stop-color="#E9E9E9"/>
<stop offset="1" stop-color="#CFCFCF"/>
</linearGradient>
</defs>
</svg>
