<svg width="34" height="47" viewBox="0 0 34 47" fill="none" xmlns="http://www.w3.org/2000/svg">
<path d="M16.9998 0C12.7692 0 8.69064 1.65431 5.5609 4.63964C2.43133 7.62487 0.475774 11.7269 0.0759898 16.1438C-0.323476 20.5605 0.861817 24.9751 3.40011 28.5241L16.3818 46.6759C16.5277 46.8799 16.7568 47 17 47C17.2432 47 17.4723 46.8799 17.6182 46.6759L30.5999 28.5241C33.1381 24.9748 34.3235 20.5602 33.924 16.1438C33.5242 11.7271 31.5686 7.62505 28.4391 4.63964C25.3093 1.65441 21.2307 0 17.0002 0H16.9998ZM30.7772 19.7484C30.7772 19.9673 30.7231 20.1778 30.6844 20.3887C30.6458 20.5993 30.5841 20.948 30.5223 21.1991V21.1987C29.3891 26.1961 25.888 30.2323 21.2514 31.887C16.6147 33.5424 11.4922 32.5837 7.68772 29.3496C3.88275 26.1151 1.92852 21.058 2.51323 15.958C3.0976 10.8583 6.13884 6.4302 10.5661 4.23439C14.9938 2.03737 20.1867 2.37929 24.317 5.13951C28.448 7.89979 30.9373 12.6913 30.909 17.8272C30.909 18.2809 30.909 18.7266 30.8473 19.1722C30.8242 19.3669 30.8007 19.5532 30.7776 19.7478L30.7772 19.7484Z" fill="#493169"/>
<path d="M21.0092 17.7435C21.8254 16.8555 22.808 16.4186 23.9702 16.4186C25.1327 16.4186 26.1152 16.8555 26.9314 17.7435C27.7482 18.6318 28.1491 19.6854 28.1491 20.9202C28.1491 22.1549 27.7482 23.2088 26.9314 24.0968C26.1152 24.9702 25.1327 25.4218 23.9702 25.4218C22.808 25.4218 21.8254 24.9702 21.0092 24.0968L18.1449 20.8596L21.0092 17.7435ZM13.9798 15.666C13.1634 14.7775 12.762 13.7236 12.762 12.4893C12.762 11.2546 13.1634 10.2007 13.9798 9.31268C14.796 8.43927 15.765 7.98772 16.8995 7.98772C18.0339 7.98772 19.0029 8.43927 19.8191 9.31268C20.6218 10.2007 21.0369 11.2546 21.0369 12.4893C21.0369 13.7236 20.6218 14.7775 19.8191 15.666L16.941 18.8876L13.9798 15.666ZM12.5546 24.0968C11.7382 24.9702 10.7696 25.4218 9.63478 25.4218C8.51419 25.4218 7.53174 24.9702 6.71514 24.0968C5.91279 23.2088 5.49736 22.1549 5.49736 20.9202C5.49736 19.6854 5.91279 18.6318 6.71514 17.7435C7.53174 16.8555 8.51419 16.4186 9.63478 16.4186C10.7696 16.4186 11.7382 16.8555 12.5546 17.7435L15.5158 20.9656L12.5546 24.0968Z" fill="#FFBD00"/>
</svg>
