<svg width="121" height="116" viewBox="0 0 121 116" fill="none" xmlns="http://www.w3.org/2000/svg">
<path d="M117.699 57.7231C117.699 87.8342 92.26 112.446 60.6249 112.446C28.9897 112.446 3.55078 87.8342 3.55078 57.7231C3.55078 27.6121 28.9897 3 60.6249 3C92.26 3 117.699 27.6121 117.699 57.7231Z" stroke="#FCB945" stroke-width="6"/>
<path d="M93.2052 70.0177C92.493 69.004 91.3929 68.3042 90.109 68.0493C88.8257 67.7941 87.5139 68.0168 86.4208 68.6773L71.3916 77.7089L50.03 77.6894L50.051 75.9629H64.2128C66.921 75.9629 69.1212 73.9225 69.1212 71.4111C69.1212 68.8996 66.9209 66.8594 64.2128 66.8594H38.0906C37.9214 66.8594 37.7523 66.8988 37.6041 66.9707L36.2783 67.6117V66.1339C36.2783 65.5978 35.8128 65.1662 35.2347 65.1662L28.0338 65.1653C27.4557 65.1718 26.9902 65.61 26.9902 66.1465V87.5323C26.9902 88.0683 27.4557 88.5 28.0338 88.5H35.2272C35.8053 88.5 36.2707 88.0684 36.2707 87.5323V86.5775C37.0465 86.7279 37.8293 86.8063 38.6262 86.8063H73.9738C74.1784 86.8063 74.3757 86.7539 74.5448 86.6495L91.7455 76.3034C94.0238 74.9425 94.6729 72.1174 93.2059 70.0181L93.2052 70.0177ZM34.1833 86.5574H29.0846V67.1143H34.1833V86.5574ZM90.6174 74.6741L73.6704 84.8633H38.6339C37.8371 84.8633 37.0473 84.7718 36.2785 84.5885V69.8084L38.345 68.8077H64.2135C65.7651 68.8077 67.0274 69.9783 67.0274 71.4171C67.0274 72.856 65.7651 74.0266 64.2135 74.0266L50.0518 74.027C48.8881 74.027 47.936 74.9033 47.936 75.989V77.6961C47.936 78.7752 48.881 79.658 50.0518 79.658H71.7029C71.9076 79.658 72.1049 79.6056 72.274 79.5011L87.564 70.3061C88.1916 69.9269 88.9394 69.8025 89.6797 69.9464C90.4204 70.0903 91.0481 70.4959 91.45 71.0715C92.2894 72.281 91.9155 73.8963 90.6181 74.6747L90.6174 74.6741ZM49.2053 62.4701H85.0948C85.6729 62.4701 86.1384 62.0385 86.1384 61.5024V27.4677C86.1384 26.9317 85.6729 26.5 85.0948 26.5H49.2053C48.6272 26.5 48.1617 26.9316 48.1617 27.4677V61.5013C48.1617 62.0378 48.6272 62.4694 49.2053 62.4694V62.4701ZM69.9329 28.4432V39.7241H64.3757V28.4432H69.9329ZM50.2569 28.4432H62.2807V40.6927C62.2807 41.2288 62.7462 41.6604 63.3243 41.6604H70.969C71.5471 41.6604 72.0126 41.2288 72.0126 40.6927L72.0131 28.4432H84.0369V60.5341H50.2554L50.2569 28.4432ZM78.0504 51.268H67.6979C67.1198 51.268 66.6543 51.6996 66.6543 52.2357V57.2126C66.6543 57.7487 67.1198 58.1803 67.6979 58.1803H78.0504C78.6285 58.1803 79.094 57.7487 79.094 57.2126V52.2357C79.1015 51.6996 78.629 51.268 78.0504 51.268ZM77.0069 56.2449H68.7485V53.2103H77.0069V56.2449Z" fill="#FCB945" stroke="#FCB945" stroke-width="1.5"/>
</svg>
