<svg width="575" height="264" viewBox="0 0 575 264" fill="none" xmlns="http://www.w3.org/2000/svg">
<path d="M0 11C0 5.47715 4.47715 1 10 1H558.069C565.679 1 570.5 9.16273 566.827 15.8274L504.113 129.598C502.434 132.644 502.458 136.343 504.176 139.366L566.51 249.059C570.298 255.726 565.483 264 557.816 264H10C4.47716 264 0 259.523 0 254V11Z" fill="#7858A1"/>
<path d="M402.019 5.98096L402.981 258.981" stroke="#FCB945" stroke-width="10" stroke-linecap="round" stroke-dasharray="20 10"/>
<g filter="url(#filter0_d_115_892)">
<ellipse cx="25.5" cy="37.5" rx="19.5" ry="18.5" fill="#FCB945"/>
</g>
<g filter="url(#filter1_d_115_892)">
<ellipse cx="25.5" cy="227.5" rx="19.5" ry="18.5" fill="#FCB945"/>
</g>
<defs>
<filter id="filter0_d_115_892" x="2" y="19" width="47" height="45" filterUnits="userSpaceOnUse" color-interpolation-filters="sRGB">
<feFlood flood-opacity="0" result="BackgroundImageFix"/>
<feColorMatrix in="SourceAlpha" type="matrix" values="0 0 0 0 0 0 0 0 0 0 0 0 0 0 0 0 0 0 127 0" result="hardAlpha"/>
<feOffset dy="4"/>
<feGaussianBlur stdDeviation="2"/>
<feComposite in2="hardAlpha" operator="out"/>
<feColorMatrix type="matrix" values="0 0 0 0 0 0 0 0 0 0 0 0 0 0 0 0 0 0 0.25 0"/>
<feBlend mode="normal" in2="BackgroundImageFix" result="effect1_dropShadow_115_892"/>
<feBlend mode="normal" in="SourceGraphic" in2="effect1_dropShadow_115_892" result="shape"/>
</filter>
<filter id="filter1_d_115_892" x="2" y="209" width="47" height="45" filterUnits="userSpaceOnUse" color-interpolation-filters="sRGB">
<feFlood flood-opacity="0" result="BackgroundImageFix"/>
<feColorMatrix in="SourceAlpha" type="matrix" values="0 0 0 0 0 0 0 0 0 0 0 0 0 0 0 0 0 0 127 0" result="hardAlpha"/>
<feOffset dy="4"/>
<feGaussianBlur stdDeviation="2"/>
<feComposite in2="hardAlpha" operator="out"/>
<feColorMatrix type="matrix" values="0 0 0 0 0 0 0 0 0 0 0 0 0 0 0 0 0 0 0.25 0"/>
<feBlend mode="normal" in2="BackgroundImageFix" result="effect1_dropShadow_115_892"/>
<feBlend mode="normal" in="SourceGraphic" in2="effect1_dropShadow_115_892" result="shape"/>
</filter>
</defs>
</svg>
