<svg width="121" height="116" viewBox="0 0 121 116" fill="none" xmlns="http://www.w3.org/2000/svg">
<path d="M117.332 57.7231C117.332 87.8342 91.8928 112.446 60.2577 112.446C28.6225 112.446 3.18359 87.8342 3.18359 57.7231C3.18359 27.6121 28.6225 3 60.2577 3C91.8928 3 117.332 27.6121 117.332 57.7231Z" stroke="#FCB945" stroke-width="6"/>
<path d="M76.5275 43.8296C78.1413 45.3229 78.9481 46.0695 79.3733 47.019C79.7982 47.9685 79.7982 49.0244 79.7982 51.1363V70.1061C79.7982 74.9773 79.7982 77.4128 78.1628 78.9261C76.5275 80.4395 73.8955 80.4395 68.6315 80.4395H51.8815C46.6175 80.4395 43.9855 80.4395 42.3502 78.9261C40.7148 77.4128 40.7148 74.9773 40.7148 70.1061V44.2728C40.7148 39.4016 40.7148 36.966 42.3502 35.4527C43.9855 33.9395 46.6175 33.9395 51.8815 33.9395H61.2143C63.4965 33.9395 64.6378 33.9395 65.6637 34.3327C66.6899 34.726 67.4967 35.4727 69.1106 36.966L76.5275 43.8296Z" stroke="#FCB945" stroke-width="5" stroke-linejoin="round"/>
<path d="M51.8809 62.3561L56.2839 66.4306C56.9357 67.0338 57.9927 67.0338 58.6445 66.4306L68.6309 57.1895" stroke="#FCB945" stroke-width="5" stroke-linecap="round" stroke-linejoin="round"/>
</svg>
